G75*
%MOIN*%
%OFA0B0*%
%FSLAX24Y24*%
%IPPOS*%
%LPD*%
%AMOC8*
5,1,8,0,0,1.08239X$1,22.5*
%
%ADD10C,0.0160*%
%ADD11C,0.0100*%
%ADD12C,0.0060*%
%ADD13C,0.0080*%
%ADD14C,0.0030*%
D10*
X001180Y000547D02*
X026580Y000547D01*
X027180Y000547D01*
X027230Y000547D01*
X027180Y000547D01*
X026580Y000547D01*
X027230Y000547D02*
X027290Y000549D01*
X027351Y000554D01*
X027410Y000563D01*
X027469Y000576D01*
X027528Y000592D01*
X027585Y000612D01*
X027640Y000635D01*
X027695Y000662D01*
X027747Y000691D01*
X027798Y000724D01*
X027847Y000760D01*
X027893Y000798D01*
X027937Y000840D01*
X027979Y000884D01*
X028017Y000930D01*
X028053Y000979D01*
X028086Y001030D01*
X028115Y001082D01*
X028142Y001137D01*
X028165Y001192D01*
X028185Y001249D01*
X028201Y001308D01*
X028214Y001367D01*
X028223Y001426D01*
X028228Y001487D01*
X028230Y001547D01*
X028230Y001897D01*
X028230Y001907D02*
X028230Y044747D01*
X028230Y045997D01*
X028228Y046057D01*
X028223Y046118D01*
X028214Y046177D01*
X028201Y046236D01*
X028185Y046295D01*
X028165Y046352D01*
X028142Y046407D01*
X028115Y046462D01*
X028086Y046514D01*
X028053Y046565D01*
X028017Y046614D01*
X027979Y046660D01*
X027937Y046704D01*
X027893Y046746D01*
X027847Y046784D01*
X027798Y046820D01*
X027747Y046853D01*
X027695Y046882D01*
X027640Y046909D01*
X027585Y046932D01*
X027528Y046952D01*
X027469Y046968D01*
X027410Y046981D01*
X027351Y046990D01*
X027290Y046995D01*
X027230Y046997D01*
X026880Y046997D01*
X026980Y046997D01*
X026880Y046997D02*
X001880Y046997D01*
X001180Y046997D01*
X001860Y046997D02*
X001880Y046997D01*
X001180Y046997D02*
X001120Y046995D01*
X001059Y046990D01*
X001000Y046981D01*
X000941Y046968D01*
X000882Y046952D01*
X000825Y046932D01*
X000770Y046909D01*
X000715Y046882D01*
X000663Y046853D01*
X000612Y046820D01*
X000563Y046784D01*
X000517Y046746D01*
X000473Y046704D01*
X000431Y046660D01*
X000393Y046614D01*
X000357Y046565D01*
X000324Y046514D01*
X000295Y046462D01*
X000268Y046407D01*
X000245Y046352D01*
X000225Y046295D01*
X000209Y046236D01*
X000196Y046177D01*
X000187Y046118D01*
X000182Y046057D01*
X000180Y045997D01*
X000180Y045897D01*
X000180Y045507D01*
X000180Y045897D01*
X000180Y045947D01*
X000180Y045897D02*
X000180Y045997D01*
X000180Y045507D02*
X000180Y001497D01*
X000180Y001547D02*
X000182Y001487D01*
X000187Y001426D01*
X000196Y001367D01*
X000209Y001308D01*
X000225Y001249D01*
X000245Y001192D01*
X000268Y001137D01*
X000295Y001082D01*
X000324Y001030D01*
X000357Y000979D01*
X000393Y000930D01*
X000431Y000884D01*
X000473Y000840D01*
X000517Y000798D01*
X000563Y000760D01*
X000612Y000724D01*
X000663Y000691D01*
X000715Y000662D01*
X000770Y000635D01*
X000825Y000612D01*
X000882Y000592D01*
X000941Y000576D01*
X001000Y000563D01*
X001059Y000554D01*
X001120Y000549D01*
X001180Y000547D01*
X028230Y044747D02*
X028230Y044787D01*
D11*
X026680Y044773D02*
X014730Y044773D01*
X014730Y044675D02*
X026680Y044675D01*
X026680Y044576D02*
X014730Y044576D01*
X014730Y044478D02*
X026680Y044478D01*
X026680Y044379D02*
X014730Y044379D01*
X014730Y044281D02*
X026680Y044281D01*
X026680Y044182D02*
X014730Y044182D01*
X014730Y044084D02*
X026680Y044084D01*
X026680Y043985D02*
X014730Y043985D01*
X014730Y043887D02*
X026680Y043887D01*
X026680Y043947D02*
X026680Y043647D01*
X026680Y046047D01*
X026675Y046095D01*
X026661Y046142D01*
X026638Y046186D01*
X026607Y046223D01*
X026569Y046255D01*
X026526Y046278D01*
X026479Y046292D01*
X026430Y046297D01*
X014980Y046297D01*
X014931Y046292D01*
X014884Y046278D01*
X014841Y046255D01*
X014803Y046223D01*
X014772Y046186D01*
X014749Y046142D01*
X014735Y046095D01*
X014730Y046047D01*
X014730Y043597D01*
X014735Y043548D01*
X014749Y043501D01*
X014772Y043458D01*
X014803Y043420D01*
X014841Y043389D01*
X014884Y043366D01*
X014931Y043351D01*
X014980Y043347D01*
X026430Y043347D01*
X026479Y043351D01*
X026526Y043366D01*
X026569Y043389D01*
X026607Y043420D01*
X026638Y043458D01*
X026661Y043501D01*
X026675Y043548D01*
X026680Y043597D01*
X026680Y043947D01*
X026680Y043788D02*
X014730Y043788D01*
X014730Y043690D02*
X026680Y043690D01*
X026679Y043591D02*
X014731Y043591D01*
X014753Y043493D02*
X026657Y043493D01*
X026576Y043394D02*
X014834Y043394D01*
X014931Y042992D02*
X014884Y042978D01*
X014841Y042955D01*
X014803Y042923D01*
X014772Y042886D01*
X014749Y042842D01*
X014735Y042795D01*
X014730Y042747D01*
X014730Y040297D01*
X014735Y040248D01*
X014749Y040201D01*
X014772Y040158D01*
X014803Y040120D01*
X014841Y040089D01*
X014884Y040066D01*
X014931Y040051D01*
X014980Y040047D01*
X026430Y040047D01*
X026479Y040051D01*
X026526Y040066D01*
X026569Y040089D01*
X026607Y040120D01*
X026638Y040158D01*
X026661Y040201D01*
X026675Y040248D01*
X026680Y040297D01*
X026680Y040647D01*
X026680Y040347D01*
X026680Y042747D01*
X026675Y042795D01*
X026661Y042842D01*
X026638Y042886D01*
X026607Y042923D01*
X026569Y042955D01*
X026526Y042978D01*
X026479Y042992D01*
X026430Y042997D01*
X014980Y042997D01*
X014931Y042992D01*
X014785Y042902D02*
X026625Y042902D01*
X026673Y042803D02*
X014737Y042803D01*
X014730Y042705D02*
X026680Y042705D01*
X026680Y042606D02*
X014730Y042606D01*
X014730Y042508D02*
X026680Y042508D01*
X026680Y042409D02*
X014730Y042409D01*
X014730Y042311D02*
X026680Y042311D01*
X026680Y042212D02*
X014730Y042212D01*
X014730Y042114D02*
X026680Y042114D01*
X026680Y042015D02*
X014730Y042015D01*
X014730Y041917D02*
X026680Y041917D01*
X026680Y041818D02*
X014730Y041818D01*
X014730Y041720D02*
X026680Y041720D01*
X026680Y041621D02*
X014730Y041621D01*
X014730Y041523D02*
X026680Y041523D01*
X026680Y041424D02*
X014730Y041424D01*
X014730Y041326D02*
X026680Y041326D01*
X026680Y041227D02*
X014730Y041227D01*
X014730Y041129D02*
X026680Y041129D01*
X026680Y041030D02*
X014730Y041030D01*
X014730Y040932D02*
X026680Y040932D01*
X026680Y040833D02*
X014730Y040833D01*
X014730Y040735D02*
X026680Y040735D01*
X026680Y040636D02*
X014730Y040636D01*
X014730Y040538D02*
X026680Y040538D01*
X026680Y040439D02*
X014730Y040439D01*
X014730Y040341D02*
X026680Y040341D01*
X026673Y040242D02*
X014737Y040242D01*
X014784Y040144D02*
X026626Y040144D01*
X026479Y039692D02*
X026430Y039697D01*
X014980Y039697D01*
X014931Y039692D01*
X014884Y039678D01*
X014841Y039655D01*
X014803Y039623D01*
X014772Y039586D01*
X014749Y039542D01*
X014735Y039495D01*
X014730Y039447D01*
X014730Y036997D01*
X014735Y036948D01*
X014749Y036901D01*
X014772Y036858D01*
X014803Y036820D01*
X014841Y036789D01*
X014884Y036766D01*
X014931Y036751D01*
X014980Y036747D01*
X026430Y036747D01*
X026479Y036751D01*
X026526Y036766D01*
X026569Y036789D01*
X026607Y036820D01*
X026638Y036858D01*
X026661Y036901D01*
X026675Y036948D01*
X026680Y036997D01*
X026680Y037347D01*
X026680Y037047D01*
X026680Y039447D01*
X026675Y039495D01*
X026661Y039542D01*
X026638Y039586D01*
X026607Y039623D01*
X026569Y039655D01*
X026526Y039678D01*
X026479Y039692D01*
X026573Y039651D02*
X014837Y039651D01*
X014755Y039553D02*
X026655Y039553D01*
X026679Y039454D02*
X014731Y039454D01*
X014730Y039356D02*
X026680Y039356D01*
X026680Y039257D02*
X014730Y039257D01*
X014730Y039159D02*
X026680Y039159D01*
X026680Y039060D02*
X014730Y039060D01*
X014730Y038962D02*
X026680Y038962D01*
X026680Y038863D02*
X014730Y038863D01*
X014730Y038765D02*
X026680Y038765D01*
X026680Y038666D02*
X014730Y038666D01*
X014730Y038568D02*
X026680Y038568D01*
X026680Y038469D02*
X014730Y038469D01*
X014730Y038371D02*
X026680Y038371D01*
X026680Y038272D02*
X014730Y038272D01*
X014730Y038174D02*
X026680Y038174D01*
X026680Y038075D02*
X014730Y038075D01*
X014730Y037977D02*
X026680Y037977D01*
X026680Y037878D02*
X014730Y037878D01*
X014730Y037780D02*
X026680Y037780D01*
X026680Y037681D02*
X014730Y037681D01*
X014730Y037583D02*
X026680Y037583D01*
X026680Y037484D02*
X014730Y037484D01*
X014730Y037386D02*
X026680Y037386D01*
X026680Y037287D02*
X014730Y037287D01*
X014730Y037189D02*
X026680Y037189D01*
X026680Y037090D02*
X014730Y037090D01*
X014730Y036992D02*
X026680Y036992D01*
X026657Y036893D02*
X014753Y036893D01*
X014834Y036795D02*
X026576Y036795D01*
X026479Y036392D02*
X026430Y036397D01*
X014980Y036397D01*
X014931Y036392D01*
X014884Y036378D01*
X014841Y036355D01*
X014803Y036323D01*
X014772Y036286D01*
X014749Y036242D01*
X014735Y036195D01*
X014730Y036147D01*
X014730Y033697D01*
X014735Y033648D01*
X014749Y033601D01*
X014772Y033558D01*
X014803Y033520D01*
X014841Y033489D01*
X014884Y033466D01*
X014931Y033451D01*
X014980Y033447D01*
X026430Y033447D01*
X026479Y033451D01*
X026526Y033466D01*
X026569Y033489D01*
X026607Y033520D01*
X026638Y033558D01*
X026661Y033601D01*
X026675Y033648D01*
X026680Y033697D01*
X026680Y034047D01*
X026680Y033747D01*
X026680Y036147D01*
X026675Y036195D01*
X026661Y036242D01*
X026638Y036286D01*
X026607Y036323D01*
X026569Y036355D01*
X026526Y036378D01*
X026479Y036392D01*
X026624Y036302D02*
X014786Y036302D01*
X014737Y036204D02*
X026673Y036204D01*
X026680Y036105D02*
X014730Y036105D01*
X014730Y036007D02*
X026680Y036007D01*
X026680Y035908D02*
X014730Y035908D01*
X014730Y035810D02*
X026680Y035810D01*
X026680Y035711D02*
X014730Y035711D01*
X014730Y035613D02*
X026680Y035613D01*
X026680Y035514D02*
X014730Y035514D01*
X014730Y035416D02*
X026680Y035416D01*
X026680Y035317D02*
X014730Y035317D01*
X014730Y035219D02*
X026680Y035219D01*
X026680Y035120D02*
X014730Y035120D01*
X014730Y035022D02*
X026680Y035022D01*
X026680Y034923D02*
X014730Y034923D01*
X014730Y034825D02*
X026680Y034825D01*
X026680Y034726D02*
X014730Y034726D01*
X014730Y034628D02*
X026680Y034628D01*
X026680Y034529D02*
X014730Y034529D01*
X014730Y034431D02*
X026680Y034431D01*
X026680Y034332D02*
X014730Y034332D01*
X014730Y034234D02*
X026680Y034234D01*
X026680Y034135D02*
X014730Y034135D01*
X014730Y034037D02*
X026680Y034037D01*
X026680Y033938D02*
X014730Y033938D01*
X014730Y033840D02*
X026680Y033840D01*
X026680Y033741D02*
X014730Y033741D01*
X014736Y033643D02*
X026674Y033643D01*
X026627Y033544D02*
X014783Y033544D01*
X013725Y033648D02*
X013730Y033697D01*
X013730Y036147D01*
X013725Y036195D01*
X013711Y036242D01*
X013688Y036286D01*
X013657Y036323D01*
X013619Y036355D01*
X013576Y036378D01*
X013529Y036392D01*
X013480Y036397D01*
X002480Y036397D01*
X002431Y036392D01*
X002384Y036378D01*
X002341Y036355D01*
X002303Y036323D01*
X002272Y036286D01*
X002249Y036242D01*
X002235Y036195D01*
X002230Y036147D01*
X002230Y035797D01*
X002230Y036097D01*
X002230Y033697D01*
X002235Y033648D01*
X002249Y033601D01*
X002272Y033558D01*
X002303Y033520D01*
X002341Y033489D01*
X002384Y033466D01*
X002431Y033451D01*
X002480Y033447D01*
X013480Y033447D01*
X013529Y033451D01*
X013576Y033466D01*
X013619Y033489D01*
X013657Y033520D01*
X013688Y033558D01*
X013711Y033601D01*
X013725Y033648D01*
X013724Y033643D02*
X002236Y033643D01*
X002230Y033741D02*
X013730Y033741D01*
X013730Y033840D02*
X002230Y033840D01*
X002230Y033938D02*
X013730Y033938D01*
X013730Y034037D02*
X002230Y034037D01*
X002230Y034135D02*
X013730Y034135D01*
X013730Y034234D02*
X002230Y034234D01*
X002230Y034332D02*
X013730Y034332D01*
X013730Y034431D02*
X002230Y034431D01*
X002230Y034529D02*
X013730Y034529D01*
X013730Y034628D02*
X002230Y034628D01*
X002230Y034726D02*
X013730Y034726D01*
X013730Y034825D02*
X002230Y034825D01*
X002230Y034923D02*
X013730Y034923D01*
X013730Y035022D02*
X002230Y035022D01*
X002230Y035120D02*
X013730Y035120D01*
X013730Y035219D02*
X002230Y035219D01*
X002230Y035317D02*
X013730Y035317D01*
X013730Y035416D02*
X002230Y035416D01*
X002230Y035514D02*
X013730Y035514D01*
X013730Y035613D02*
X002230Y035613D01*
X002230Y035711D02*
X013730Y035711D01*
X013730Y035810D02*
X002230Y035810D01*
X002230Y035908D02*
X013730Y035908D01*
X013730Y036007D02*
X002230Y036007D01*
X002230Y036105D02*
X013730Y036105D01*
X013723Y036204D02*
X002237Y036204D01*
X002286Y036302D02*
X013674Y036302D01*
X013529Y036751D02*
X013576Y036766D01*
X013619Y036789D01*
X013657Y036820D01*
X013688Y036858D01*
X013711Y036901D01*
X013725Y036948D01*
X013730Y036997D01*
X013730Y039447D01*
X013725Y039495D01*
X013711Y039542D01*
X013688Y039586D01*
X013657Y039623D01*
X013619Y039655D01*
X013576Y039678D01*
X013529Y039692D01*
X013480Y039697D01*
X002480Y039697D01*
X002431Y039692D01*
X002384Y039678D01*
X002341Y039655D01*
X002303Y039623D01*
X002272Y039586D01*
X002249Y039542D01*
X002235Y039495D01*
X002230Y039447D01*
X002230Y039097D01*
X002230Y039397D01*
X002230Y036997D01*
X002235Y036948D01*
X002249Y036901D01*
X002272Y036858D01*
X002303Y036820D01*
X002341Y036789D01*
X002384Y036766D01*
X002431Y036751D01*
X002480Y036747D01*
X013480Y036747D01*
X013529Y036751D01*
X013626Y036795D02*
X002334Y036795D01*
X002253Y036893D02*
X013707Y036893D01*
X013730Y036992D02*
X002230Y036992D01*
X002230Y037090D02*
X013730Y037090D01*
X013730Y037189D02*
X002230Y037189D01*
X002230Y037287D02*
X013730Y037287D01*
X013730Y037386D02*
X002230Y037386D01*
X002230Y037484D02*
X013730Y037484D01*
X013730Y037583D02*
X002230Y037583D01*
X002230Y037681D02*
X013730Y037681D01*
X013730Y037780D02*
X002230Y037780D01*
X002230Y037878D02*
X013730Y037878D01*
X013730Y037977D02*
X002230Y037977D01*
X002230Y038075D02*
X013730Y038075D01*
X013730Y038174D02*
X002230Y038174D01*
X002230Y038272D02*
X013730Y038272D01*
X013730Y038371D02*
X002230Y038371D01*
X002230Y038469D02*
X013730Y038469D01*
X013730Y038568D02*
X002230Y038568D01*
X002230Y038666D02*
X013730Y038666D01*
X013730Y038765D02*
X002230Y038765D01*
X002230Y038863D02*
X013730Y038863D01*
X013730Y038962D02*
X002230Y038962D01*
X002230Y039060D02*
X013730Y039060D01*
X013730Y039159D02*
X002230Y039159D01*
X002230Y039257D02*
X013730Y039257D01*
X013730Y039356D02*
X002230Y039356D01*
X002231Y039454D02*
X013729Y039454D01*
X013705Y039553D02*
X002255Y039553D01*
X002337Y039651D02*
X013623Y039651D01*
X013529Y040051D02*
X013576Y040066D01*
X013619Y040089D01*
X013657Y040120D01*
X013688Y040158D01*
X013711Y040201D01*
X013725Y040248D01*
X013730Y040297D01*
X013730Y042747D01*
X013725Y042795D01*
X013711Y042842D01*
X013688Y042886D01*
X013657Y042923D01*
X013619Y042955D01*
X013576Y042978D01*
X013529Y042992D01*
X013480Y042997D01*
X002480Y042997D01*
X002431Y042992D01*
X002384Y042978D01*
X002341Y042955D01*
X002303Y042923D01*
X002272Y042886D01*
X002249Y042842D01*
X002235Y042795D01*
X002230Y042747D01*
X002230Y042397D01*
X002230Y042697D01*
X002230Y040297D01*
X002235Y040248D01*
X002249Y040201D01*
X002272Y040158D01*
X002303Y040120D01*
X002341Y040089D01*
X002384Y040066D01*
X002431Y040051D01*
X002480Y040047D01*
X013480Y040047D01*
X013529Y040051D01*
X013676Y040144D02*
X002284Y040144D01*
X002237Y040242D02*
X013723Y040242D01*
X013730Y040341D02*
X002230Y040341D01*
X002230Y040439D02*
X013730Y040439D01*
X013730Y040538D02*
X002230Y040538D01*
X002230Y040636D02*
X013730Y040636D01*
X013730Y040735D02*
X002230Y040735D01*
X002230Y040833D02*
X013730Y040833D01*
X013730Y040932D02*
X002230Y040932D01*
X002230Y041030D02*
X013730Y041030D01*
X013730Y041129D02*
X002230Y041129D01*
X002230Y041227D02*
X013730Y041227D01*
X013730Y041326D02*
X002230Y041326D01*
X002230Y041424D02*
X013730Y041424D01*
X013730Y041523D02*
X002230Y041523D01*
X002230Y041621D02*
X013730Y041621D01*
X013730Y041720D02*
X002230Y041720D01*
X002230Y041818D02*
X013730Y041818D01*
X013730Y041917D02*
X002230Y041917D01*
X002230Y042015D02*
X013730Y042015D01*
X013730Y042114D02*
X002230Y042114D01*
X002230Y042212D02*
X013730Y042212D01*
X013730Y042311D02*
X002230Y042311D01*
X002230Y042409D02*
X013730Y042409D01*
X013730Y042508D02*
X002230Y042508D01*
X002230Y042606D02*
X013730Y042606D01*
X013730Y042705D02*
X002230Y042705D01*
X002237Y042803D02*
X013723Y042803D01*
X013675Y042902D02*
X002285Y042902D01*
X002431Y043351D02*
X002384Y043366D01*
X002341Y043389D01*
X002303Y043420D01*
X002272Y043458D01*
X002249Y043501D01*
X002235Y043548D01*
X002230Y043597D01*
X002230Y045997D01*
X002230Y045697D01*
X002230Y046047D01*
X002235Y046095D01*
X002249Y046142D01*
X002272Y046186D01*
X002303Y046223D01*
X002341Y046255D01*
X002384Y046278D01*
X002431Y046292D01*
X002480Y046297D01*
X013480Y046297D01*
X013529Y046292D01*
X013576Y046278D01*
X013619Y046255D01*
X013657Y046223D01*
X013688Y046186D01*
X013711Y046142D01*
X013725Y046095D01*
X013730Y046047D01*
X013730Y043597D01*
X013725Y043548D01*
X013711Y043501D01*
X013688Y043458D01*
X013657Y043420D01*
X013619Y043389D01*
X013576Y043366D01*
X013529Y043351D01*
X013480Y043347D01*
X002480Y043347D01*
X002431Y043351D01*
X002334Y043394D02*
X013626Y043394D01*
X013707Y043493D02*
X002253Y043493D01*
X002231Y043591D02*
X013729Y043591D01*
X013730Y043690D02*
X002230Y043690D01*
X002230Y043788D02*
X013730Y043788D01*
X013730Y043887D02*
X002230Y043887D01*
X002230Y043985D02*
X013730Y043985D01*
X013730Y044084D02*
X002230Y044084D01*
X002230Y044182D02*
X013730Y044182D01*
X013730Y044281D02*
X002230Y044281D01*
X002230Y044379D02*
X013730Y044379D01*
X013730Y044478D02*
X002230Y044478D01*
X002230Y044576D02*
X013730Y044576D01*
X013730Y044675D02*
X002230Y044675D01*
X002230Y044773D02*
X013730Y044773D01*
X013730Y044872D02*
X002230Y044872D01*
X002230Y044970D02*
X013730Y044970D01*
X013730Y045069D02*
X002230Y045069D01*
X002230Y045167D02*
X013730Y045167D01*
X013730Y045266D02*
X002230Y045266D01*
X002230Y045364D02*
X013730Y045364D01*
X013730Y045463D02*
X002230Y045463D01*
X002230Y045561D02*
X013730Y045561D01*
X013730Y045660D02*
X002230Y045660D01*
X002230Y045758D02*
X013730Y045758D01*
X013730Y045857D02*
X002230Y045857D01*
X002230Y045955D02*
X013730Y045955D01*
X013729Y046054D02*
X002231Y046054D01*
X002254Y046152D02*
X013706Y046152D01*
X013623Y046251D02*
X002337Y046251D01*
X014731Y046054D02*
X026679Y046054D01*
X026680Y045955D02*
X014730Y045955D01*
X014730Y045857D02*
X026680Y045857D01*
X026680Y045758D02*
X014730Y045758D01*
X014730Y045660D02*
X026680Y045660D01*
X026680Y045561D02*
X014730Y045561D01*
X014730Y045463D02*
X026680Y045463D01*
X026680Y045364D02*
X014730Y045364D01*
X014730Y045266D02*
X026680Y045266D01*
X026680Y045167D02*
X014730Y045167D01*
X014730Y045069D02*
X026680Y045069D01*
X026680Y044970D02*
X014730Y044970D01*
X014730Y044872D02*
X026680Y044872D01*
X026656Y046152D02*
X014754Y046152D01*
X014837Y046251D02*
X026573Y046251D01*
X013677Y033544D02*
X002283Y033544D01*
X002480Y029347D02*
X002431Y029342D01*
X002384Y029328D01*
X002341Y029305D01*
X002303Y029273D01*
X002272Y029236D01*
X002249Y029192D01*
X002235Y029145D01*
X002230Y029097D01*
X002230Y028747D01*
X002230Y029047D01*
X002230Y026647D01*
X002235Y026598D01*
X002249Y026551D01*
X002272Y026508D01*
X002303Y026470D01*
X002341Y026439D01*
X002384Y026416D01*
X002431Y026401D01*
X002480Y026397D01*
X013480Y026397D01*
X013529Y026401D01*
X013576Y026416D01*
X013619Y026439D01*
X013657Y026470D01*
X013688Y026508D01*
X013711Y026551D01*
X013725Y026598D01*
X013730Y026647D01*
X013730Y029097D01*
X013725Y029145D01*
X013711Y029192D01*
X013688Y029236D01*
X013657Y029273D01*
X013619Y029305D01*
X013576Y029328D01*
X013529Y029342D01*
X013480Y029347D01*
X002480Y029347D01*
X002349Y029309D02*
X013611Y029309D01*
X013701Y029210D02*
X002259Y029210D01*
X002231Y029112D02*
X013729Y029112D01*
X013730Y029013D02*
X002230Y029013D01*
X002230Y028915D02*
X013730Y028915D01*
X013730Y028816D02*
X002230Y028816D01*
X002230Y028718D02*
X013730Y028718D01*
X013730Y028619D02*
X002230Y028619D01*
X002230Y028521D02*
X013730Y028521D01*
X013730Y028422D02*
X002230Y028422D01*
X002230Y028324D02*
X013730Y028324D01*
X013730Y028225D02*
X002230Y028225D01*
X002230Y028127D02*
X013730Y028127D01*
X013730Y028028D02*
X002230Y028028D01*
X002230Y027930D02*
X013730Y027930D01*
X013730Y027831D02*
X002230Y027831D01*
X002230Y027733D02*
X013730Y027733D01*
X013730Y027634D02*
X002230Y027634D01*
X002230Y027536D02*
X013730Y027536D01*
X013730Y027437D02*
X002230Y027437D01*
X002230Y027339D02*
X013730Y027339D01*
X013730Y027240D02*
X002230Y027240D01*
X002230Y027142D02*
X013730Y027142D01*
X013730Y027043D02*
X002230Y027043D01*
X002230Y026945D02*
X013730Y026945D01*
X013730Y026846D02*
X002230Y026846D01*
X002230Y026748D02*
X013730Y026748D01*
X013730Y026649D02*
X002230Y026649D01*
X002249Y026551D02*
X013711Y026551D01*
X013635Y026452D02*
X002325Y026452D01*
X002431Y026042D02*
X002384Y026028D01*
X002341Y026005D01*
X002303Y025973D01*
X002272Y025936D01*
X002249Y025892D01*
X002235Y025845D01*
X002230Y025797D01*
X002230Y025447D01*
X002230Y025747D01*
X002230Y023347D01*
X002235Y023298D01*
X002249Y023251D01*
X002272Y023208D01*
X002303Y023170D01*
X002341Y023139D01*
X002384Y023116D01*
X002431Y023101D01*
X002480Y023097D01*
X013480Y023097D01*
X013529Y023101D01*
X013576Y023116D01*
X013619Y023139D01*
X013657Y023170D01*
X013688Y023208D01*
X013711Y023251D01*
X013725Y023298D01*
X013730Y023347D01*
X013730Y025797D01*
X013725Y025845D01*
X013711Y025892D01*
X013688Y025936D01*
X013657Y025973D01*
X013619Y026005D01*
X013576Y026028D01*
X013529Y026042D01*
X013480Y026047D01*
X002480Y026047D01*
X002431Y026042D01*
X002292Y025960D02*
X013668Y025960D01*
X013720Y025861D02*
X002240Y025861D01*
X002230Y025763D02*
X013730Y025763D01*
X013730Y025664D02*
X002230Y025664D01*
X002230Y025566D02*
X013730Y025566D01*
X013730Y025467D02*
X002230Y025467D01*
X002230Y025369D02*
X013730Y025369D01*
X013730Y025270D02*
X002230Y025270D01*
X002230Y025172D02*
X013730Y025172D01*
X013730Y025073D02*
X002230Y025073D01*
X002230Y024975D02*
X013730Y024975D01*
X013730Y024876D02*
X002230Y024876D01*
X002230Y024778D02*
X013730Y024778D01*
X013730Y024679D02*
X002230Y024679D01*
X002230Y024581D02*
X013730Y024581D01*
X013730Y024482D02*
X002230Y024482D01*
X002230Y024384D02*
X013730Y024384D01*
X013730Y024285D02*
X002230Y024285D01*
X002230Y024187D02*
X013730Y024187D01*
X013730Y024088D02*
X002230Y024088D01*
X002230Y023990D02*
X013730Y023990D01*
X013730Y023891D02*
X002230Y023891D01*
X002230Y023793D02*
X013730Y023793D01*
X013730Y023694D02*
X002230Y023694D01*
X002230Y023596D02*
X013730Y023596D01*
X013730Y023497D02*
X002230Y023497D01*
X002230Y023399D02*
X013730Y023399D01*
X013725Y023300D02*
X002235Y023300D01*
X002277Y023202D02*
X013683Y023202D01*
X013535Y023103D02*
X002425Y023103D01*
X002480Y022747D02*
X002431Y022742D01*
X002384Y022728D01*
X002341Y022705D01*
X002303Y022673D01*
X002272Y022636D01*
X002249Y022592D01*
X002235Y022545D01*
X002230Y022497D01*
X002230Y022147D01*
X002230Y022447D01*
X002230Y020047D01*
X002235Y019998D01*
X002249Y019951D01*
X002272Y019908D01*
X002303Y019870D01*
X002341Y019839D01*
X002384Y019816D01*
X002431Y019801D01*
X002480Y019797D01*
X013480Y019797D01*
X013529Y019801D01*
X013576Y019816D01*
X013619Y019839D01*
X013657Y019870D01*
X013688Y019908D01*
X013711Y019951D01*
X013725Y019998D01*
X013730Y020047D01*
X013730Y022497D01*
X013725Y022545D01*
X013711Y022592D01*
X013688Y022636D01*
X013657Y022673D01*
X013619Y022705D01*
X013576Y022728D01*
X013529Y022742D01*
X013480Y022747D01*
X002480Y022747D01*
X002350Y022709D02*
X013610Y022709D01*
X013701Y022611D02*
X002259Y022611D01*
X002232Y022512D02*
X013728Y022512D01*
X013730Y022414D02*
X002230Y022414D01*
X002230Y022315D02*
X013730Y022315D01*
X013730Y022217D02*
X002230Y022217D01*
X002230Y022118D02*
X013730Y022118D01*
X013730Y022020D02*
X002230Y022020D01*
X002230Y021921D02*
X013730Y021921D01*
X013730Y021823D02*
X002230Y021823D01*
X002230Y021724D02*
X013730Y021724D01*
X013730Y021626D02*
X002230Y021626D01*
X002230Y021527D02*
X013730Y021527D01*
X013730Y021429D02*
X002230Y021429D01*
X002230Y021330D02*
X013730Y021330D01*
X013730Y021232D02*
X002230Y021232D01*
X002230Y021133D02*
X013730Y021133D01*
X013730Y021035D02*
X002230Y021035D01*
X002230Y020936D02*
X013730Y020936D01*
X013730Y020838D02*
X002230Y020838D01*
X002230Y020739D02*
X013730Y020739D01*
X013730Y020641D02*
X002230Y020641D01*
X002230Y020542D02*
X013730Y020542D01*
X013730Y020444D02*
X002230Y020444D01*
X002230Y020345D02*
X013730Y020345D01*
X013730Y020247D02*
X002230Y020247D01*
X002230Y020148D02*
X013730Y020148D01*
X013730Y020050D02*
X002230Y020050D01*
X002249Y019951D02*
X013711Y019951D01*
X013636Y019853D02*
X002324Y019853D01*
X002431Y019442D02*
X002384Y019428D01*
X002341Y019405D01*
X002303Y019373D01*
X002272Y019336D01*
X002249Y019292D01*
X002235Y019245D01*
X002230Y019197D01*
X002230Y018847D01*
X002230Y019147D01*
X002230Y016747D01*
X002235Y016698D01*
X002249Y016651D01*
X002272Y016608D01*
X002303Y016570D01*
X002341Y016539D01*
X002384Y016516D01*
X002431Y016501D01*
X002480Y016497D01*
X013480Y016497D01*
X013529Y016501D01*
X013576Y016516D01*
X013619Y016539D01*
X013657Y016570D01*
X013688Y016608D01*
X013711Y016651D01*
X013725Y016698D01*
X013730Y016747D01*
X013730Y019197D01*
X013725Y019245D01*
X013711Y019292D01*
X013688Y019336D01*
X013657Y019373D01*
X013619Y019405D01*
X013576Y019428D01*
X013529Y019442D01*
X013480Y019447D01*
X002480Y019447D01*
X002431Y019442D01*
X002292Y019360D02*
X013668Y019360D01*
X013720Y019262D02*
X002240Y019262D01*
X002230Y019163D02*
X013730Y019163D01*
X013730Y019065D02*
X002230Y019065D01*
X002230Y018966D02*
X013730Y018966D01*
X013730Y018868D02*
X002230Y018868D01*
X002230Y018769D02*
X013730Y018769D01*
X013730Y018671D02*
X002230Y018671D01*
X002230Y018572D02*
X013730Y018572D01*
X013730Y018474D02*
X002230Y018474D01*
X002230Y018375D02*
X013730Y018375D01*
X013730Y018277D02*
X002230Y018277D01*
X002230Y018178D02*
X013730Y018178D01*
X013730Y018080D02*
X002230Y018080D01*
X002230Y017981D02*
X013730Y017981D01*
X013730Y017883D02*
X002230Y017883D01*
X002230Y017784D02*
X013730Y017784D01*
X013730Y017686D02*
X002230Y017686D01*
X002230Y017587D02*
X013730Y017587D01*
X013730Y017489D02*
X002230Y017489D01*
X002230Y017390D02*
X013730Y017390D01*
X013730Y017292D02*
X002230Y017292D01*
X002230Y017193D02*
X013730Y017193D01*
X013730Y017095D02*
X002230Y017095D01*
X002230Y016996D02*
X013730Y016996D01*
X013730Y016898D02*
X002230Y016898D01*
X002230Y016799D02*
X013730Y016799D01*
X013725Y016701D02*
X002235Y016701D01*
X002277Y016602D02*
X013683Y016602D01*
X013536Y016504D02*
X002424Y016504D01*
X014730Y016747D02*
X014735Y016698D01*
X014749Y016651D01*
X014772Y016608D01*
X014803Y016570D01*
X014841Y016539D01*
X014884Y016516D01*
X014931Y016501D01*
X014980Y016497D01*
X026430Y016497D01*
X026479Y016501D01*
X026526Y016516D01*
X026569Y016539D01*
X026607Y016570D01*
X026638Y016608D01*
X026661Y016651D01*
X026675Y016698D01*
X026680Y016747D01*
X026680Y017097D01*
X026680Y016797D01*
X026680Y019197D01*
X026675Y019245D01*
X026661Y019292D01*
X026638Y019336D01*
X026607Y019373D01*
X026569Y019405D01*
X026526Y019428D01*
X026479Y019442D01*
X026430Y019447D01*
X014980Y019447D01*
X014931Y019442D01*
X014884Y019428D01*
X014841Y019405D01*
X014803Y019373D01*
X014772Y019336D01*
X014749Y019292D01*
X014735Y019245D01*
X014730Y019197D01*
X014730Y016747D01*
X014735Y016701D02*
X026675Y016701D01*
X026680Y016799D02*
X014730Y016799D01*
X014730Y016898D02*
X026680Y016898D01*
X026680Y016996D02*
X014730Y016996D01*
X014730Y017095D02*
X026680Y017095D01*
X026680Y017193D02*
X014730Y017193D01*
X014730Y017292D02*
X026680Y017292D01*
X026680Y017390D02*
X014730Y017390D01*
X014730Y017489D02*
X026680Y017489D01*
X026680Y017587D02*
X014730Y017587D01*
X014730Y017686D02*
X026680Y017686D01*
X026680Y017784D02*
X014730Y017784D01*
X014730Y017883D02*
X026680Y017883D01*
X026680Y017981D02*
X014730Y017981D01*
X014730Y018080D02*
X026680Y018080D01*
X026680Y018178D02*
X014730Y018178D01*
X014730Y018277D02*
X026680Y018277D01*
X026680Y018375D02*
X014730Y018375D01*
X014730Y018474D02*
X026680Y018474D01*
X026680Y018572D02*
X014730Y018572D01*
X014730Y018671D02*
X026680Y018671D01*
X026680Y018769D02*
X014730Y018769D01*
X014730Y018868D02*
X026680Y018868D01*
X026680Y018966D02*
X014730Y018966D01*
X014730Y019065D02*
X026680Y019065D01*
X026680Y019163D02*
X014730Y019163D01*
X014740Y019262D02*
X026670Y019262D01*
X026618Y019360D02*
X014792Y019360D01*
X014931Y019801D02*
X014884Y019816D01*
X014841Y019839D01*
X014803Y019870D01*
X014772Y019908D01*
X014749Y019951D01*
X014735Y019998D01*
X014730Y020047D01*
X014730Y022497D01*
X014735Y022545D01*
X014749Y022592D01*
X014772Y022636D01*
X014803Y022673D01*
X014841Y022705D01*
X014884Y022728D01*
X014931Y022742D01*
X014980Y022747D01*
X026430Y022747D01*
X026479Y022742D01*
X026526Y022728D01*
X026569Y022705D01*
X026607Y022673D01*
X026638Y022636D01*
X026661Y022592D01*
X026675Y022545D01*
X026680Y022497D01*
X026680Y020097D01*
X026680Y020397D01*
X026680Y020047D01*
X026675Y019998D01*
X026661Y019951D01*
X026638Y019908D01*
X026607Y019870D01*
X026569Y019839D01*
X026526Y019816D01*
X026479Y019801D01*
X026430Y019797D01*
X014980Y019797D01*
X014931Y019801D01*
X014824Y019853D02*
X026586Y019853D01*
X026661Y019951D02*
X014749Y019951D01*
X014730Y020050D02*
X026680Y020050D01*
X026680Y020148D02*
X014730Y020148D01*
X014730Y020247D02*
X026680Y020247D01*
X026680Y020345D02*
X014730Y020345D01*
X014730Y020444D02*
X026680Y020444D01*
X026680Y020542D02*
X014730Y020542D01*
X014730Y020641D02*
X026680Y020641D01*
X026680Y020739D02*
X014730Y020739D01*
X014730Y020838D02*
X026680Y020838D01*
X026680Y020936D02*
X014730Y020936D01*
X014730Y021035D02*
X026680Y021035D01*
X026680Y021133D02*
X014730Y021133D01*
X014730Y021232D02*
X026680Y021232D01*
X026680Y021330D02*
X014730Y021330D01*
X014730Y021429D02*
X026680Y021429D01*
X026680Y021527D02*
X014730Y021527D01*
X014730Y021626D02*
X026680Y021626D01*
X026680Y021724D02*
X014730Y021724D01*
X014730Y021823D02*
X026680Y021823D01*
X026680Y021921D02*
X014730Y021921D01*
X014730Y022020D02*
X026680Y022020D01*
X026680Y022118D02*
X014730Y022118D01*
X014730Y022217D02*
X026680Y022217D01*
X026680Y022315D02*
X014730Y022315D01*
X014730Y022414D02*
X026680Y022414D01*
X026678Y022512D02*
X014732Y022512D01*
X014759Y022611D02*
X026651Y022611D01*
X026560Y022709D02*
X014850Y022709D01*
X014931Y023101D02*
X014980Y023097D01*
X026430Y023097D01*
X026479Y023101D01*
X026526Y023116D01*
X026569Y023139D01*
X026607Y023170D01*
X026638Y023208D01*
X026661Y023251D01*
X026675Y023298D01*
X026680Y023347D01*
X026680Y023697D01*
X026680Y023397D01*
X026680Y025797D01*
X026675Y025845D01*
X026661Y025892D01*
X026638Y025936D01*
X026607Y025973D01*
X026569Y026005D01*
X026526Y026028D01*
X026479Y026042D01*
X026430Y026047D01*
X014980Y026047D01*
X014931Y026042D01*
X014884Y026028D01*
X014841Y026005D01*
X014803Y025973D01*
X014772Y025936D01*
X014749Y025892D01*
X014735Y025845D01*
X014730Y025797D01*
X014730Y023347D01*
X014735Y023298D01*
X014749Y023251D01*
X014772Y023208D01*
X014803Y023170D01*
X014841Y023139D01*
X014884Y023116D01*
X014931Y023101D01*
X014925Y023103D02*
X026485Y023103D01*
X026633Y023202D02*
X014777Y023202D01*
X014735Y023300D02*
X026675Y023300D01*
X026680Y023399D02*
X014730Y023399D01*
X014730Y023497D02*
X026680Y023497D01*
X026680Y023596D02*
X014730Y023596D01*
X014730Y023694D02*
X026680Y023694D01*
X026680Y023793D02*
X014730Y023793D01*
X014730Y023891D02*
X026680Y023891D01*
X026680Y023990D02*
X014730Y023990D01*
X014730Y024088D02*
X026680Y024088D01*
X026680Y024187D02*
X014730Y024187D01*
X014730Y024285D02*
X026680Y024285D01*
X026680Y024384D02*
X014730Y024384D01*
X014730Y024482D02*
X026680Y024482D01*
X026680Y024581D02*
X014730Y024581D01*
X014730Y024679D02*
X026680Y024679D01*
X026680Y024778D02*
X014730Y024778D01*
X014730Y024876D02*
X026680Y024876D01*
X026680Y024975D02*
X014730Y024975D01*
X014730Y025073D02*
X026680Y025073D01*
X026680Y025172D02*
X014730Y025172D01*
X014730Y025270D02*
X026680Y025270D01*
X026680Y025369D02*
X014730Y025369D01*
X014730Y025467D02*
X026680Y025467D01*
X026680Y025566D02*
X014730Y025566D01*
X014730Y025664D02*
X026680Y025664D01*
X026680Y025763D02*
X014730Y025763D01*
X014740Y025861D02*
X026670Y025861D01*
X026618Y025960D02*
X014792Y025960D01*
X014931Y026401D02*
X014980Y026397D01*
X026430Y026397D01*
X026479Y026401D01*
X026526Y026416D01*
X026569Y026439D01*
X026607Y026470D01*
X026638Y026508D01*
X026661Y026551D01*
X026675Y026598D01*
X026680Y026647D01*
X026680Y026997D01*
X026680Y026697D01*
X026680Y029097D01*
X026675Y029145D01*
X026661Y029192D01*
X026638Y029236D01*
X026607Y029273D01*
X026569Y029305D01*
X026526Y029328D01*
X026479Y029342D01*
X026430Y029347D01*
X014980Y029347D01*
X014931Y029342D01*
X014884Y029328D01*
X014841Y029305D01*
X014803Y029273D01*
X014772Y029236D01*
X014749Y029192D01*
X014735Y029145D01*
X014730Y029097D01*
X014730Y026647D01*
X014735Y026598D01*
X014749Y026551D01*
X014772Y026508D01*
X014803Y026470D01*
X014841Y026439D01*
X014884Y026416D01*
X014931Y026401D01*
X014825Y026452D02*
X026585Y026452D01*
X026661Y026551D02*
X014749Y026551D01*
X014730Y026649D02*
X026680Y026649D01*
X026680Y026748D02*
X014730Y026748D01*
X014730Y026846D02*
X026680Y026846D01*
X026680Y026945D02*
X014730Y026945D01*
X014730Y027043D02*
X026680Y027043D01*
X026680Y027142D02*
X014730Y027142D01*
X014730Y027240D02*
X026680Y027240D01*
X026680Y027339D02*
X014730Y027339D01*
X014730Y027437D02*
X026680Y027437D01*
X026680Y027536D02*
X014730Y027536D01*
X014730Y027634D02*
X026680Y027634D01*
X026680Y027733D02*
X014730Y027733D01*
X014730Y027831D02*
X026680Y027831D01*
X026680Y027930D02*
X014730Y027930D01*
X014730Y028028D02*
X026680Y028028D01*
X026680Y028127D02*
X014730Y028127D01*
X014730Y028225D02*
X026680Y028225D01*
X026680Y028324D02*
X014730Y028324D01*
X014730Y028422D02*
X026680Y028422D01*
X026680Y028521D02*
X014730Y028521D01*
X014730Y028619D02*
X026680Y028619D01*
X026680Y028718D02*
X014730Y028718D01*
X014730Y028816D02*
X026680Y028816D01*
X026680Y028915D02*
X014730Y028915D01*
X014730Y029013D02*
X026680Y029013D01*
X026679Y029112D02*
X014731Y029112D01*
X014759Y029210D02*
X026651Y029210D01*
X026561Y029309D02*
X014849Y029309D01*
X014777Y016602D02*
X026633Y016602D01*
X026486Y016504D02*
X014924Y016504D01*
D12*
X027323Y017877D02*
X027750Y017877D01*
X027750Y018517D01*
X027323Y018517D01*
X027536Y018197D02*
X027750Y018197D01*
X027643Y021177D02*
X027430Y021177D01*
X027323Y021283D01*
X027643Y021177D02*
X027750Y021283D01*
X027750Y021710D01*
X027643Y021817D01*
X027430Y021817D01*
X027323Y021710D01*
X027323Y024477D02*
X027323Y024904D01*
X027536Y025117D01*
X027750Y024904D01*
X027750Y024477D01*
X027750Y024797D02*
X027323Y024797D01*
X027430Y027777D02*
X027643Y027777D01*
X027750Y027883D01*
X027750Y027990D01*
X027643Y028097D01*
X027430Y028097D01*
X027323Y027990D01*
X027323Y027883D01*
X027430Y027777D01*
X027430Y028097D02*
X027323Y028204D01*
X027323Y028310D01*
X027430Y028417D01*
X027643Y028417D01*
X027750Y028310D01*
X027750Y028204D01*
X027643Y028097D01*
X027643Y034827D02*
X027430Y034827D01*
X027323Y034933D01*
X027323Y035040D01*
X027430Y035147D01*
X027750Y035147D01*
X027750Y034933D01*
X027643Y034827D01*
X027750Y035147D02*
X027536Y035360D01*
X027323Y035467D01*
X027430Y038127D02*
X027430Y038767D01*
X027750Y038447D01*
X027323Y038447D01*
X027323Y041427D02*
X027750Y041427D01*
X027323Y041854D01*
X027323Y041960D01*
X027430Y042067D01*
X027643Y042067D01*
X027750Y041960D01*
X027643Y044727D02*
X027750Y044833D01*
X027323Y045260D01*
X027323Y044833D01*
X027430Y044727D01*
X027643Y044727D01*
X027750Y044833D02*
X027750Y045260D01*
X027643Y045367D01*
X027430Y045367D01*
X027323Y045260D01*
X001200Y045154D02*
X000986Y045367D01*
X000986Y044727D01*
X000773Y044727D02*
X001200Y044727D01*
X001093Y042067D02*
X000880Y042067D01*
X000773Y041960D01*
X000773Y041854D01*
X000880Y041747D01*
X000773Y041640D01*
X000773Y041533D01*
X000880Y041427D01*
X001093Y041427D01*
X001200Y041533D01*
X000986Y041747D02*
X000880Y041747D01*
X001200Y041960D02*
X001093Y042067D01*
X001200Y038767D02*
X000773Y038767D01*
X000880Y038554D02*
X000773Y038447D01*
X000773Y038233D01*
X000880Y038127D01*
X001093Y038127D01*
X001200Y038233D01*
X001200Y038447D02*
X000986Y038554D01*
X000880Y038554D01*
X001200Y038447D02*
X001200Y038767D01*
X001200Y035467D02*
X000773Y035467D01*
X000773Y035360D01*
X001200Y034933D01*
X001200Y034827D01*
X001093Y028417D02*
X000880Y028417D01*
X000773Y028310D01*
X000773Y027883D01*
X000880Y027777D01*
X001093Y027777D01*
X001200Y027883D01*
X001093Y028097D02*
X000773Y028097D01*
X001093Y028097D02*
X001200Y028204D01*
X001200Y028310D01*
X001093Y028417D01*
X001200Y025117D02*
X000880Y025117D01*
X000773Y025010D01*
X000773Y024904D01*
X000880Y024797D01*
X001200Y024797D01*
X001200Y024477D02*
X001200Y025117D01*
X000880Y024797D02*
X000773Y024690D01*
X000773Y024583D01*
X000880Y024477D01*
X001200Y024477D01*
X001200Y021817D02*
X000880Y021817D01*
X000773Y021710D01*
X000773Y021283D01*
X000880Y021177D01*
X001200Y021177D01*
X001200Y021817D01*
X001200Y018517D02*
X000773Y018517D01*
X000986Y018197D02*
X001200Y018197D01*
X001200Y017877D02*
X001200Y018517D01*
D13*
X000420Y015107D02*
X004740Y015107D01*
X012420Y015107D01*
X012420Y010387D01*
X012420Y009587D01*
X011620Y009587D01*
X011620Y004787D01*
X008180Y004787D01*
X008180Y000867D01*
X006900Y000867D01*
X001420Y000867D01*
X001360Y000869D01*
X001299Y000874D01*
X001240Y000883D01*
X001181Y000896D01*
X001122Y000912D01*
X001065Y000932D01*
X001010Y000955D01*
X000955Y000982D01*
X000903Y001011D01*
X000852Y001044D01*
X000803Y001080D01*
X000757Y001118D01*
X000713Y001160D01*
X000671Y001204D01*
X000633Y001250D01*
X000597Y001299D01*
X000564Y001350D01*
X000535Y001402D01*
X000508Y001457D01*
X000485Y001512D01*
X000465Y001569D01*
X000449Y001628D01*
X000436Y001687D01*
X000427Y001746D01*
X000422Y001807D01*
X000420Y001867D01*
X000420Y003587D01*
X000420Y015107D01*
D14*
X004378Y014420D02*
X004378Y014227D01*
X004378Y014130D02*
X004378Y014082D01*
X004479Y014178D02*
X004673Y014178D01*
X004673Y014130D02*
X004673Y014227D01*
X004624Y014275D01*
X004528Y014275D01*
X004479Y014227D01*
X004479Y014178D01*
X004528Y014082D02*
X004624Y014082D01*
X004673Y014130D01*
X004774Y014082D02*
X004774Y014227D01*
X004822Y014275D01*
X004967Y014275D01*
X004967Y014082D01*
X005069Y014130D02*
X005069Y014227D01*
X005117Y014275D01*
X005214Y014275D01*
X005262Y014227D01*
X005262Y014130D01*
X005214Y014082D01*
X005117Y014082D01*
X005069Y014130D01*
X005363Y014082D02*
X005557Y014082D01*
X005363Y014275D01*
X005557Y014275D01*
X005953Y014275D02*
X005953Y014033D01*
X006001Y013985D01*
X006049Y013985D01*
X006098Y014082D02*
X005953Y014082D01*
X006098Y014082D02*
X006146Y014130D01*
X006146Y014275D01*
X006247Y014227D02*
X006247Y014082D01*
X006247Y014227D02*
X006296Y014275D01*
X006392Y014275D01*
X006441Y014227D01*
X006542Y014275D02*
X006687Y014275D01*
X006735Y014227D01*
X006735Y014130D01*
X006687Y014082D01*
X006542Y014082D01*
X006441Y014082D02*
X006441Y014372D01*
X006836Y014275D02*
X006836Y014082D01*
X006982Y014082D01*
X007030Y014130D01*
X007030Y014275D01*
X007131Y014227D02*
X007179Y014275D01*
X007276Y014275D01*
X007325Y014227D01*
X007325Y014130D01*
X007276Y014082D01*
X007179Y014082D01*
X007131Y014130D01*
X007131Y014227D01*
X007424Y014275D02*
X007521Y014275D01*
X007473Y014324D02*
X007473Y014130D01*
X007424Y014082D01*
X007917Y014130D02*
X007917Y014227D01*
X007965Y014275D01*
X008062Y014275D01*
X008110Y014227D01*
X008110Y014130D01*
X008062Y014082D01*
X007965Y014082D01*
X007917Y014130D01*
X008212Y014082D02*
X008212Y014372D01*
X008405Y014372D02*
X008212Y014082D01*
X008405Y014082D02*
X008405Y014372D01*
X005508Y013218D02*
X005508Y013073D01*
X005315Y013073D01*
X005363Y012971D02*
X005460Y012971D01*
X005508Y012923D01*
X005508Y012826D01*
X005460Y012778D01*
X005363Y012778D01*
X005315Y012826D01*
X005315Y012923D01*
X005363Y012971D01*
X005508Y013218D02*
X005460Y013266D01*
X005315Y013266D01*
X005315Y012678D02*
X005315Y012581D01*
X005315Y012630D02*
X005508Y012630D01*
X005508Y012581D01*
X005508Y012482D02*
X005508Y012385D01*
X005557Y012433D02*
X005363Y012433D01*
X005315Y012482D01*
X005315Y012284D02*
X005315Y012139D01*
X005363Y012090D01*
X005412Y012139D01*
X005412Y012284D01*
X005460Y012284D02*
X005315Y012284D01*
X005460Y012284D02*
X005508Y012235D01*
X005508Y012139D01*
X005508Y011990D02*
X005508Y011942D01*
X005412Y011845D01*
X005508Y011845D02*
X005315Y011845D01*
X005412Y011744D02*
X005412Y011550D01*
X005460Y011550D02*
X005508Y011599D01*
X005508Y011695D01*
X005460Y011744D01*
X005412Y011744D01*
X005315Y011695D02*
X005315Y011599D01*
X005363Y011550D01*
X005460Y011550D01*
X005460Y011449D02*
X005363Y011449D01*
X005315Y011401D01*
X005315Y011255D01*
X005218Y011255D02*
X005508Y011255D01*
X005508Y011401D01*
X005460Y011449D01*
X005460Y011154D02*
X005508Y011106D01*
X005508Y011009D01*
X005460Y010961D01*
X005363Y010961D01*
X005315Y011009D01*
X005315Y011106D01*
X005363Y011154D01*
X005460Y011154D01*
X005795Y011008D02*
X005843Y011056D01*
X005892Y011008D01*
X005892Y010911D01*
X005940Y010863D01*
X005988Y010911D01*
X005988Y011056D01*
X005795Y011008D02*
X005795Y010863D01*
X005795Y010763D02*
X005795Y010666D01*
X005795Y010715D02*
X006085Y010715D01*
X006085Y010666D01*
X005940Y010565D02*
X005795Y010565D01*
X005795Y010420D01*
X005843Y010372D01*
X005892Y010420D01*
X005892Y010565D01*
X005940Y010565D02*
X005988Y010517D01*
X005988Y010420D01*
X005940Y010270D02*
X005795Y010270D01*
X005940Y010270D02*
X005988Y010222D01*
X005988Y010077D01*
X005795Y010077D01*
X005795Y009976D02*
X005795Y009831D01*
X005843Y009782D01*
X005940Y009782D01*
X005988Y009831D01*
X005988Y009976D01*
X005747Y009976D01*
X005698Y009927D01*
X005698Y009879D01*
X005605Y009781D02*
X005557Y009732D01*
X005315Y009732D01*
X005460Y009684D02*
X005460Y009781D01*
X005460Y009880D02*
X005508Y009929D01*
X005508Y010026D01*
X005460Y010074D01*
X005412Y010074D01*
X005412Y009880D01*
X005460Y009880D02*
X005363Y009880D01*
X005315Y009929D01*
X005315Y010026D01*
X005363Y010175D02*
X005315Y010223D01*
X005315Y010369D01*
X005363Y010518D02*
X005315Y010566D01*
X005363Y010518D02*
X005557Y010518D01*
X005508Y010470D02*
X005508Y010566D01*
X005508Y010369D02*
X005508Y010223D01*
X005460Y010175D01*
X005363Y010175D01*
X005460Y009584D02*
X005460Y009488D01*
X005460Y009386D02*
X005315Y009386D01*
X005315Y009241D01*
X005363Y009193D01*
X005412Y009241D01*
X005412Y009386D01*
X005460Y009386D02*
X005508Y009338D01*
X005508Y009241D01*
X005795Y009291D02*
X005795Y009436D01*
X005843Y009485D01*
X005892Y009436D01*
X005892Y009340D01*
X005940Y009291D01*
X005988Y009340D01*
X005988Y009485D01*
X005988Y009586D02*
X005988Y009634D01*
X005795Y009634D01*
X005795Y009586D02*
X005795Y009683D01*
X005605Y009584D02*
X005557Y009536D01*
X005315Y009536D01*
X006085Y009634D02*
X006134Y009634D01*
X005940Y008895D02*
X005892Y008895D01*
X005892Y008702D01*
X005940Y008702D02*
X005988Y008750D01*
X005988Y008847D01*
X005940Y008895D01*
X005795Y008847D02*
X005795Y008750D01*
X005843Y008702D01*
X005940Y008702D01*
X005988Y008601D02*
X005795Y008504D01*
X005988Y008407D01*
X005988Y008259D02*
X005795Y008259D01*
X005795Y008211D02*
X005795Y008307D01*
X005795Y008111D02*
X005843Y008063D01*
X006037Y008063D01*
X005988Y008111D02*
X005988Y008014D01*
X005988Y007866D02*
X005795Y007866D01*
X005795Y007818D02*
X005795Y007915D01*
X005988Y007866D02*
X005988Y007818D01*
X005988Y007717D02*
X005988Y007572D01*
X005940Y007523D01*
X005892Y007572D01*
X005892Y007668D01*
X005843Y007717D01*
X005795Y007668D01*
X005795Y007523D01*
X005795Y007422D02*
X005940Y007422D01*
X005988Y007374D01*
X005988Y007229D01*
X005795Y007229D01*
X005892Y007127D02*
X005892Y006934D01*
X005940Y006934D02*
X005988Y006982D01*
X005988Y007079D01*
X005940Y007127D01*
X005892Y007127D01*
X005795Y007079D02*
X005795Y006982D01*
X005843Y006934D01*
X005940Y006934D01*
X005988Y006833D02*
X005988Y006688D01*
X005940Y006639D01*
X005892Y006688D01*
X005892Y006784D01*
X005843Y006833D01*
X005795Y006784D01*
X005795Y006639D01*
X005508Y006686D02*
X005508Y006589D01*
X005412Y006589D02*
X005412Y006735D01*
X005460Y006735D02*
X005315Y006735D01*
X005315Y006589D01*
X005363Y006541D01*
X005412Y006589D01*
X005508Y006686D02*
X005460Y006735D01*
X005508Y006836D02*
X005508Y006981D01*
X005460Y007029D01*
X005315Y007029D01*
X005363Y007130D02*
X005315Y007179D01*
X005315Y007324D01*
X005363Y007425D02*
X005460Y007425D01*
X005508Y007473D01*
X005508Y007570D01*
X005460Y007619D01*
X005412Y007619D01*
X005412Y007425D01*
X005363Y007425D02*
X005315Y007473D01*
X005315Y007570D01*
X005508Y007324D02*
X005508Y007179D01*
X005460Y007130D01*
X005363Y007130D01*
X005315Y006836D02*
X005508Y006836D01*
X005508Y006441D02*
X005508Y006345D01*
X005557Y006393D02*
X005363Y006393D01*
X005315Y006441D01*
X005315Y006245D02*
X005315Y006148D01*
X005315Y006197D02*
X005508Y006197D01*
X005508Y006148D01*
X005508Y006047D02*
X005508Y005902D01*
X005460Y005854D01*
X005363Y005854D01*
X005315Y005902D01*
X005315Y006047D01*
X005315Y005752D02*
X005315Y005607D01*
X005363Y005559D01*
X005412Y005607D01*
X005412Y005752D01*
X005460Y005752D02*
X005315Y005752D01*
X005460Y005752D02*
X005508Y005704D01*
X005508Y005607D01*
X005460Y005458D02*
X005363Y005458D01*
X005315Y005409D01*
X005315Y005264D01*
X005218Y005264D02*
X005508Y005264D01*
X005508Y005409D01*
X005460Y005458D01*
X005460Y005163D02*
X005315Y005163D01*
X005315Y005018D01*
X005363Y004970D01*
X005412Y005018D01*
X005412Y005163D01*
X005460Y005163D02*
X005508Y005115D01*
X005508Y005018D01*
X005557Y004868D02*
X005605Y004820D01*
X005605Y004723D01*
X005557Y004675D01*
X005363Y004675D01*
X005315Y004723D01*
X005315Y004820D01*
X005363Y004868D01*
X005795Y004772D02*
X005795Y004675D01*
X005795Y004723D02*
X005988Y004723D01*
X005988Y004675D01*
X005988Y004574D02*
X005988Y004429D01*
X005940Y004380D01*
X005843Y004380D01*
X005795Y004429D01*
X005795Y004574D01*
X005795Y004279D02*
X005795Y004134D01*
X005843Y004086D01*
X005892Y004134D01*
X005892Y004279D01*
X005940Y004279D02*
X005795Y004279D01*
X005940Y004279D02*
X005988Y004231D01*
X005988Y004134D01*
X005940Y003984D02*
X005843Y003984D01*
X005795Y003936D01*
X005795Y003791D01*
X005698Y003791D02*
X005988Y003791D01*
X005988Y003936D01*
X005940Y003984D01*
X005940Y003690D02*
X005795Y003690D01*
X005795Y003545D01*
X005843Y003496D01*
X005892Y003545D01*
X005892Y003690D01*
X005940Y003690D02*
X005988Y003641D01*
X005988Y003545D01*
X006037Y003395D02*
X006085Y003347D01*
X006085Y003250D01*
X006037Y003202D01*
X005843Y003202D01*
X005795Y003250D01*
X005795Y003347D01*
X005843Y003395D01*
X005605Y003347D02*
X005605Y003202D01*
X005315Y003202D01*
X005315Y003347D01*
X005363Y003395D01*
X005412Y003395D01*
X005460Y003347D01*
X005460Y003202D01*
X005460Y003347D02*
X005508Y003395D01*
X005557Y003395D01*
X005605Y003347D01*
X005460Y003496D02*
X005363Y003496D01*
X005315Y003545D01*
X005315Y003641D01*
X005363Y003690D01*
X005460Y003690D01*
X005508Y003641D01*
X005508Y003545D01*
X005460Y003496D01*
X005460Y003791D02*
X005508Y003839D01*
X005508Y003984D01*
X005605Y003984D02*
X005315Y003984D01*
X005315Y003839D01*
X005363Y003791D01*
X005460Y003791D01*
X005508Y004086D02*
X005363Y004086D01*
X005315Y004134D01*
X005315Y004279D01*
X005267Y004279D02*
X005508Y004279D01*
X005267Y004279D02*
X005218Y004231D01*
X005218Y004182D01*
X005843Y004920D02*
X005795Y004968D01*
X005843Y004920D02*
X006037Y004920D01*
X005988Y004968D02*
X005988Y004871D01*
X006085Y004723D02*
X006134Y004723D01*
X005988Y005068D02*
X005988Y005116D01*
X005795Y005116D01*
X005795Y005068D02*
X005795Y005165D01*
X005795Y005361D02*
X005988Y005458D01*
X005940Y005559D02*
X005988Y005607D01*
X005988Y005704D01*
X005940Y005752D01*
X005892Y005752D01*
X005892Y005559D01*
X005940Y005559D02*
X005843Y005559D01*
X005795Y005607D01*
X005795Y005704D01*
X005795Y005854D02*
X005795Y005950D01*
X005795Y005902D02*
X006085Y005902D01*
X006085Y005854D01*
X005988Y006050D02*
X005843Y006050D01*
X005795Y006098D01*
X005795Y006243D01*
X005747Y006243D02*
X005988Y006243D01*
X005747Y006243D02*
X005698Y006195D01*
X005698Y006147D01*
X005654Y006197D02*
X005605Y006197D01*
X005795Y005361D02*
X005988Y005264D01*
X006085Y005116D02*
X006134Y005116D01*
X006134Y007866D02*
X006085Y007866D01*
X005988Y008211D02*
X005988Y008259D01*
X006085Y008259D02*
X006134Y008259D01*
X005508Y008208D02*
X005508Y008063D01*
X005460Y008014D01*
X005363Y008014D01*
X005315Y008063D01*
X005315Y008208D01*
X005363Y008309D02*
X005412Y008357D01*
X005412Y008502D01*
X005460Y008502D02*
X005315Y008502D01*
X005315Y008357D01*
X005363Y008309D01*
X005508Y008357D02*
X005508Y008454D01*
X005460Y008502D01*
X005508Y008604D02*
X005508Y008749D01*
X005460Y008797D01*
X005315Y008797D01*
X005315Y008604D02*
X005508Y008604D01*
X009075Y008673D02*
X009220Y008673D01*
X009268Y008624D01*
X009268Y008479D01*
X009075Y008479D01*
X009123Y008378D02*
X009075Y008330D01*
X009075Y008233D01*
X009123Y008185D01*
X009220Y008185D01*
X009268Y008233D01*
X009268Y008330D01*
X009220Y008378D01*
X009123Y008378D01*
X009075Y008083D02*
X009075Y007890D01*
X009268Y008083D01*
X009268Y007890D01*
X009268Y007494D02*
X009027Y007494D01*
X008978Y007446D01*
X008978Y007397D01*
X009075Y007349D02*
X009075Y007494D01*
X009075Y007349D02*
X009123Y007301D01*
X009268Y007301D01*
X009220Y007200D02*
X009075Y007200D01*
X009220Y007200D02*
X009268Y007151D01*
X009268Y007054D01*
X009220Y007006D01*
X009268Y006905D02*
X009268Y006760D01*
X009220Y006711D01*
X009123Y006711D01*
X009075Y006760D01*
X009075Y006905D01*
X009075Y007006D02*
X009365Y007006D01*
X009268Y006610D02*
X009075Y006610D01*
X009075Y006465D01*
X009123Y006417D01*
X009268Y006417D01*
X009220Y006316D02*
X009268Y006267D01*
X009268Y006170D01*
X009220Y006122D01*
X009123Y006122D01*
X009075Y006170D01*
X009075Y006267D01*
X009123Y006316D01*
X009220Y006316D01*
X009268Y006022D02*
X009268Y005926D01*
X009317Y005974D02*
X009123Y005974D01*
X009075Y006022D01*
X009123Y005530D02*
X009075Y005481D01*
X009075Y005385D01*
X009123Y005336D01*
X009220Y005336D01*
X009268Y005385D01*
X009268Y005481D01*
X009220Y005530D01*
X009123Y005530D01*
X009075Y005235D02*
X009365Y005235D01*
X009365Y005042D02*
X009075Y005042D01*
X009075Y005235D02*
X009365Y005042D01*
X009220Y008774D02*
X009268Y008822D01*
X009268Y008919D01*
X009220Y008967D01*
X009172Y008967D01*
X009172Y008774D01*
X009220Y008774D02*
X009123Y008774D01*
X009075Y008822D01*
X009075Y008919D01*
X009075Y009069D02*
X009123Y009069D01*
X009220Y009069D02*
X009414Y009069D01*
X005654Y012630D02*
X005605Y012630D01*
X000965Y006932D02*
X000675Y006932D01*
X000965Y006738D01*
X000675Y006738D01*
X000820Y006637D02*
X000917Y006637D01*
X000965Y006589D01*
X000965Y006492D01*
X000917Y006444D01*
X000820Y006444D01*
X000772Y006492D01*
X000772Y006589D01*
X000820Y006637D01*
X000772Y006048D02*
X000772Y005951D01*
X000723Y005999D02*
X000917Y005999D01*
X000965Y005951D01*
X000917Y005851D02*
X000965Y005803D01*
X000965Y005706D01*
X000917Y005658D01*
X000820Y005658D01*
X000772Y005706D01*
X000772Y005803D01*
X000820Y005851D01*
X000917Y005851D01*
X000917Y005557D02*
X000965Y005508D01*
X000965Y005363D01*
X000772Y005363D01*
X000820Y005262D02*
X000917Y005262D01*
X000965Y005214D01*
X000965Y005068D01*
X000965Y004967D02*
X000675Y004967D01*
X000772Y004919D02*
X000772Y004822D01*
X000820Y004774D01*
X000965Y004774D01*
X000917Y004673D02*
X000965Y004624D01*
X000965Y004479D01*
X001013Y004479D02*
X001062Y004528D01*
X001062Y004576D01*
X001013Y004479D02*
X000772Y004479D01*
X000772Y004673D02*
X000917Y004673D01*
X000772Y004919D02*
X000820Y004967D01*
X000772Y005068D02*
X000772Y005214D01*
X000820Y005262D01*
X000772Y005557D02*
X000917Y005557D01*
X000965Y004083D02*
X000772Y003890D01*
X000772Y004083D01*
X000965Y004083D02*
X000965Y003890D01*
X000917Y003789D02*
X000965Y003740D01*
X000965Y003644D01*
X000917Y003595D01*
X000820Y003595D01*
X000772Y003644D01*
X000772Y003740D01*
X000820Y003789D01*
X000917Y003789D01*
X000965Y003494D02*
X000772Y003494D01*
X000772Y003349D01*
X000820Y003301D01*
X000965Y003301D01*
X000917Y003199D02*
X000965Y003151D01*
X000965Y003054D01*
X000868Y003006D02*
X000868Y003199D01*
X000820Y003199D02*
X000772Y003151D01*
X000772Y003054D01*
X000820Y003006D01*
X000868Y003006D01*
X000820Y002905D02*
X000626Y002905D01*
X000917Y002905D02*
X000965Y002905D01*
X000917Y003199D02*
X000820Y003199D01*
M02*
