G75*
%MOIN*%
%OFA0B0*%
%FSLAX24Y24*%
%IPPOS*%
%LPD*%
%AMOC8*
5,1,8,0,0,1.08239X$1,22.5*
%
%ADD10C,0.0540*%
%ADD11OC8,0.0540*%
%ADD12OC8,0.0680*%
%ADD13C,0.0680*%
%ADD14C,0.0591*%
%ADD15C,0.0660*%
%ADD16C,0.0591*%
%ADD17C,0.0560*%
%ADD18C,0.7060*%
%ADD19C,0.0960*%
%ADD20C,0.0436*%
D10*
X001460Y001567D02*
X001940Y001567D01*
X001940Y002567D02*
X001460Y002567D01*
X001460Y003567D02*
X001940Y003567D01*
X001940Y004567D02*
X001460Y004567D01*
X001460Y005567D02*
X001940Y005567D01*
X001940Y006567D02*
X001460Y006567D01*
X012200Y005167D02*
X012200Y004687D01*
X013200Y004687D02*
X013200Y005167D01*
X014200Y005167D02*
X014200Y004687D01*
X015200Y004687D02*
X015200Y005167D01*
X015200Y002167D02*
X015200Y001687D01*
X014200Y001687D02*
X014200Y002167D01*
X013200Y002167D02*
X013200Y001687D01*
X012200Y001687D02*
X012200Y002167D01*
D11*
X010820Y001367D03*
X009780Y001367D03*
X008820Y001367D03*
X008820Y004367D03*
X009780Y004367D03*
X010820Y004367D03*
X010920Y005667D03*
X010420Y006417D03*
X009920Y005667D03*
X008500Y005367D03*
X007540Y005367D03*
X006620Y005587D03*
X006620Y006707D03*
X006620Y007827D03*
X006620Y008867D03*
X007540Y008367D03*
X008500Y008367D03*
X009920Y007907D03*
X010420Y008657D03*
X010920Y007907D03*
X012180Y008767D03*
X013220Y008767D03*
X014180Y008767D03*
X015220Y008767D03*
X016320Y007667D03*
X016820Y008417D03*
X017320Y007667D03*
X015220Y005767D03*
X014180Y005767D03*
X013220Y005767D03*
X012180Y005767D03*
X006620Y010147D03*
X006620Y011267D03*
X006620Y012387D03*
X006620Y013507D03*
X007580Y014707D03*
X009580Y014707D03*
X010860Y014707D03*
X012860Y014707D03*
X016880Y014387D03*
X017880Y014387D03*
X018960Y014387D03*
X019960Y014387D03*
X021000Y012547D03*
X021000Y011507D03*
X024000Y011507D03*
X024000Y012547D03*
X004620Y012387D03*
X004620Y013507D03*
X003620Y014607D03*
X003620Y011607D03*
X004620Y011267D03*
X004620Y010147D03*
X004620Y008867D03*
X004620Y007827D03*
X004620Y006707D03*
X003460Y006987D03*
X002860Y007907D03*
X002860Y008867D03*
X000860Y008867D03*
X000860Y007907D03*
X003460Y004987D03*
X003460Y004367D03*
X004620Y005587D03*
X003460Y001367D03*
D12*
X027160Y009987D03*
D13*
X026160Y009987D03*
D14*
X013900Y010141D02*
X013900Y010672D01*
X012900Y010672D02*
X012900Y010141D01*
X011900Y010141D02*
X011900Y010672D01*
X010900Y010672D02*
X010900Y010141D01*
X009900Y010141D02*
X009900Y010672D01*
X008900Y010672D02*
X008900Y010141D01*
X007900Y010141D02*
X007900Y010672D01*
X007900Y013141D02*
X007900Y013672D01*
X008900Y013672D02*
X008900Y013141D01*
X009900Y013141D02*
X009900Y013672D01*
X010900Y013672D02*
X010900Y013141D01*
X011900Y013141D02*
X011900Y013672D01*
X012900Y013672D02*
X012900Y013141D01*
X013900Y013141D02*
X013900Y013672D01*
D15*
X016840Y012717D02*
X017440Y012717D01*
X017440Y010937D02*
X016840Y010937D01*
X019400Y010937D02*
X020000Y010937D01*
X020000Y012717D02*
X019400Y012717D01*
D16*
X002670Y012587D03*
X002670Y011587D03*
X002670Y010587D03*
X001370Y010587D03*
X001370Y011587D03*
X001370Y012587D03*
D17*
X004600Y004367D03*
X004600Y003367D03*
X004600Y002367D03*
X004600Y001367D03*
X007600Y001367D03*
X007600Y002367D03*
X007600Y003367D03*
X007600Y004367D03*
D18*
X021700Y004627D03*
D19*
X025800Y005227D03*
X025800Y004027D03*
X017600Y004027D03*
X017600Y005227D03*
D20*
X021700Y007907D03*
X014344Y028115D03*
X014344Y028784D03*
M02*
