%
M48
M72
T01C0.0236
T02C0.0320
T03C0.0354
T04C0.0400
T05C0.0460
%
T01
X21700Y7907
X14344Y28115
X14344Y28784
T02
X1700Y1567
X1700Y2567
X1700Y3567
X1700Y4567
X1700Y5567
X1700Y6567
X860Y7907
X860Y8867
X2860Y8867
X2860Y7907
X3460Y6987
X4620Y6707
X4620Y7827
X4620Y8867
X4620Y10147
X4620Y11267
X3620Y11607
X4620Y12387
X4620Y13507
X3620Y14607
X6620Y13507
X6620Y12387
X6620Y11267
X6620Y10147
X6620Y8867
X6620Y7827
X7540Y8367
X8500Y8367
X9920Y7907
X10420Y8657
X10920Y7907
X12180Y8767
X13220Y8767
X14180Y8767
X15220Y8767
X16320Y7667
X16820Y8417
X17320Y7667
X15220Y5767
X15200Y4927
X14200Y4927
X14180Y5767
X13220Y5767
X13200Y4927
X12200Y4927
X12180Y5767
X10920Y5667
X10420Y6417
X9920Y5667
X9780Y4367
X8820Y4367
X8500Y5367
X7540Y5367
X6620Y5587
X7600Y4367
X7600Y3367
X7600Y2367
X7600Y1367
X8820Y1367
X9780Y1367
X10820Y1367
X12200Y1927
X13200Y1927
X14200Y1927
X15200Y1927
X10820Y4367
X6620Y6707
X4620Y5587
X4600Y4367
X4600Y3367
X4600Y2367
X4600Y1367
X3460Y1367
X3460Y4367
X3460Y4987
X7580Y14707
X9580Y14707
X10860Y14707
X12860Y14707
X16880Y14387
X17880Y14387
X18960Y14387
X19960Y14387
X21000Y12547
X21000Y11507
X24000Y11507
X24000Y12547
X26160Y9987
X27160Y9987
T03
X13900Y10407
X12900Y10407
X11900Y10407
X10900Y10407
X9900Y10407
X8900Y10407
X7900Y10407
X7900Y13407
X8900Y13407
X9900Y13407
X10900Y13407
X11900Y13407
X12900Y13407
X13900Y13407
X2670Y12587
X2670Y11587
X2670Y10587
X1370Y10587
X1370Y11587
X1370Y12587
T04
X17140Y12717
X17140Y10937
X19700Y10937
X19700Y12717
T05
X17600Y5227
X17600Y4027
X25800Y4027
X25800Y5227
M30
