G75*
%MOIN*%
%OFA0B0*%
%FSLAX24Y24*%
%IPPOS*%
%LPD*%
%AMOC8*
5,1,8,0,0,1.08239X$1,22.5*
%
%ADD10C,0.0158*%
%ADD11C,0.0480*%
%ADD12OC8,0.0480*%
%ADD13OC8,0.0620*%
%ADD14C,0.0620*%
%ADD15C,0.0531*%
%ADD16C,0.0600*%
%ADD17C,0.0531*%
%ADD18C,0.0500*%
%ADD19C,0.7000*%
%ADD20C,0.0900*%
%ADD21C,0.0080*%
%ADD22C,0.0376*%
%ADD23C,0.0160*%
%ADD24C,0.0157*%
D10*
X001494Y016001D03*
X001494Y016001D03*
X001785Y016292D03*
X001785Y016292D03*
X002077Y016583D03*
X002077Y016583D03*
X002368Y016875D03*
X002368Y016875D03*
X002659Y017166D03*
X002659Y017166D03*
X002951Y017457D03*
X002951Y017457D03*
X003242Y017749D03*
X003242Y017749D03*
X003533Y018040D03*
X003533Y018040D03*
X003825Y018331D03*
X003825Y018331D03*
X004116Y018623D03*
X004116Y018623D03*
X004407Y018914D03*
X004407Y018914D03*
X004699Y019206D03*
X004699Y019206D03*
X004990Y019497D03*
X004990Y019497D03*
X005281Y019788D03*
X005281Y019788D03*
X005573Y020080D03*
X005573Y020080D03*
X005864Y020371D03*
X005864Y020371D03*
X006155Y020662D03*
X006155Y020662D03*
X006447Y020954D03*
X006447Y020954D03*
X006738Y021245D03*
X006738Y021245D03*
X007029Y021536D03*
X007029Y021536D03*
X007321Y021828D03*
X007321Y021828D03*
X007612Y022119D03*
X007612Y022119D03*
X007903Y022410D03*
X007903Y022410D03*
X008195Y022702D03*
X008195Y022702D03*
X008486Y022993D03*
X008486Y022993D03*
X008778Y023284D03*
X008778Y023284D03*
X009069Y023576D03*
X009069Y023576D03*
X009360Y023867D03*
X009360Y023867D03*
X009652Y024158D03*
X009652Y024158D03*
X009943Y024450D03*
X009943Y024450D03*
X010234Y024741D03*
X010234Y024741D03*
X010526Y025032D03*
X010526Y025032D03*
X010817Y025324D03*
X010817Y025324D03*
X011108Y025615D03*
X011108Y025615D03*
X011400Y025906D03*
X011400Y025906D03*
X011691Y026198D03*
X011691Y026198D03*
X011982Y026489D03*
X011982Y026489D03*
X012274Y026780D03*
X012274Y026780D03*
X012565Y027072D03*
X012565Y027072D03*
X012856Y027363D03*
X012856Y027363D03*
X011872Y028347D03*
X011872Y028347D03*
X011581Y028056D03*
X011581Y028056D03*
X011289Y027765D03*
X011289Y027765D03*
X010998Y027473D03*
X010998Y027473D03*
X010707Y027182D03*
X010707Y027182D03*
X010415Y026891D03*
X010415Y026891D03*
X010124Y026599D03*
X010124Y026599D03*
X009833Y026308D03*
X009833Y026308D03*
X009541Y026017D03*
X009541Y026017D03*
X009250Y025725D03*
X009250Y025725D03*
X008959Y025434D03*
X008959Y025434D03*
X008667Y025143D03*
X008667Y025143D03*
X008376Y024851D03*
X008376Y024851D03*
X008085Y024560D03*
X008085Y024560D03*
X007793Y024269D03*
X007793Y024269D03*
X007502Y023977D03*
X007502Y023977D03*
X007211Y023686D03*
X007211Y023686D03*
X006919Y023394D03*
X006919Y023394D03*
X006628Y023103D03*
X006628Y023103D03*
X006337Y022812D03*
X006337Y022812D03*
X006045Y022520D03*
X006045Y022520D03*
X005754Y022229D03*
X005754Y022229D03*
X005463Y021938D03*
X005463Y021938D03*
X005171Y021646D03*
X005171Y021646D03*
X004880Y021355D03*
X004880Y021355D03*
X004589Y021064D03*
X004589Y021064D03*
X004297Y020772D03*
X004297Y020772D03*
X004006Y020481D03*
X004006Y020481D03*
X003715Y020190D03*
X003715Y020190D03*
X003423Y019898D03*
X003423Y019898D03*
X003132Y019607D03*
X003132Y019607D03*
X002840Y019316D03*
X002840Y019316D03*
X002549Y019024D03*
X002549Y019024D03*
X002258Y018733D03*
X002258Y018733D03*
X001966Y018442D03*
X001966Y018442D03*
X001675Y018150D03*
X001675Y018150D03*
X001384Y017859D03*
X001384Y017859D03*
X001092Y017568D03*
X001092Y017568D03*
X000801Y017276D03*
X000801Y017276D03*
X000510Y016985D03*
X000510Y016985D03*
X014344Y027363D03*
X014344Y027363D03*
X014344Y028115D03*
X014344Y028115D03*
X014344Y028784D03*
X015541Y027072D03*
X015541Y027072D03*
X015833Y026780D03*
X015833Y026780D03*
X016124Y026489D03*
X016124Y026489D03*
X016415Y026198D03*
X016415Y026198D03*
X016707Y025906D03*
X016707Y025906D03*
X016998Y025615D03*
X016998Y025615D03*
X017289Y025324D03*
X017289Y025324D03*
X017581Y025032D03*
X017581Y025032D03*
X017872Y024741D03*
X017872Y024741D03*
X018163Y024450D03*
X018163Y024450D03*
X018455Y024158D03*
X018455Y024158D03*
X018746Y023867D03*
X018746Y023867D03*
X019037Y023576D03*
X019037Y023576D03*
X019329Y023284D03*
X019329Y023284D03*
X019620Y022993D03*
X019620Y022993D03*
X019911Y022702D03*
X019911Y022702D03*
X020203Y022410D03*
X020203Y022410D03*
X020494Y022119D03*
X020494Y022119D03*
X020785Y021828D03*
X020785Y021828D03*
X021077Y021536D03*
X021077Y021536D03*
X021368Y021245D03*
X021368Y021245D03*
X021659Y020954D03*
X021659Y020954D03*
X021951Y020662D03*
X021951Y020662D03*
X022242Y020371D03*
X022242Y020371D03*
X022533Y020080D03*
X022533Y020080D03*
X022825Y019788D03*
X022825Y019788D03*
X023116Y019497D03*
X023116Y019497D03*
X023407Y019206D03*
X023407Y019206D03*
X023699Y018914D03*
X023699Y018914D03*
X023990Y018623D03*
X023990Y018623D03*
X024281Y018331D03*
X024281Y018331D03*
X024573Y018040D03*
X024573Y018040D03*
X024864Y017749D03*
X024864Y017749D03*
X025155Y017457D03*
X025155Y017457D03*
X025447Y017166D03*
X025447Y017166D03*
X025738Y016875D03*
X025738Y016875D03*
X026029Y016583D03*
X026029Y016583D03*
X026321Y016292D03*
X026321Y016292D03*
X026612Y016001D03*
X026612Y016001D03*
X026903Y015709D03*
X026903Y015709D03*
X027888Y016694D03*
X027888Y016694D03*
X027596Y016985D03*
X027596Y016985D03*
X027305Y017276D03*
X027305Y017276D03*
X027014Y017568D03*
X027014Y017568D03*
X026722Y017859D03*
X026722Y017859D03*
X026431Y018150D03*
X026431Y018150D03*
X026140Y018442D03*
X026140Y018442D03*
X025848Y018733D03*
X025848Y018733D03*
X025557Y019024D03*
X025557Y019024D03*
X025266Y019316D03*
X025266Y019316D03*
X024974Y019607D03*
X024974Y019607D03*
X024683Y019898D03*
X024683Y019898D03*
X024392Y020190D03*
X024392Y020190D03*
X024100Y020481D03*
X024100Y020481D03*
X023809Y020772D03*
X023809Y020772D03*
X023518Y021064D03*
X023518Y021064D03*
X023226Y021355D03*
X023226Y021355D03*
X022935Y021646D03*
X022935Y021646D03*
X022644Y021938D03*
X022644Y021938D03*
X022352Y022229D03*
X022352Y022229D03*
X022061Y022520D03*
X022061Y022520D03*
X021770Y022812D03*
X021770Y022812D03*
X021478Y023103D03*
X021478Y023103D03*
X021187Y023394D03*
X021187Y023394D03*
X020896Y023686D03*
X020896Y023686D03*
X020604Y023977D03*
X020604Y023977D03*
X020313Y024269D03*
X020313Y024269D03*
X020312Y024269D03*
X020312Y024269D03*
X020022Y024560D03*
X020022Y024560D03*
X019730Y024851D03*
X019730Y024851D03*
X019439Y025143D03*
X019439Y025143D03*
X019438Y025143D03*
X019438Y025143D03*
X019148Y025434D03*
X019148Y025434D03*
X018856Y025725D03*
X018856Y025725D03*
X018565Y026017D03*
X018565Y026017D03*
X018564Y026017D03*
X018564Y026017D03*
X018274Y026308D03*
X018274Y026308D03*
X017982Y026599D03*
X017982Y026599D03*
X017691Y026891D03*
X017691Y026891D03*
X017690Y026891D03*
X017690Y026891D03*
X017400Y027182D03*
X017400Y027182D03*
X017108Y027473D03*
X017108Y027473D03*
X016817Y027765D03*
X016817Y027765D03*
X016816Y027765D03*
X016816Y027765D03*
X016526Y028056D03*
X016526Y028056D03*
X016526Y034316D03*
X016526Y034316D03*
X016817Y034607D03*
X016817Y034607D03*
X017108Y034898D03*
X017108Y034898D03*
X017400Y035190D03*
X017400Y035190D03*
X017691Y035481D03*
X017691Y035481D03*
X017982Y035772D03*
X017982Y035772D03*
X018274Y036064D03*
X018274Y036064D03*
X018565Y036355D03*
X018565Y036355D03*
X018856Y036646D03*
X018856Y036646D03*
X019148Y036938D03*
X019148Y036938D03*
X019439Y037229D03*
X019439Y037229D03*
X019730Y037520D03*
X019730Y037520D03*
X020022Y037812D03*
X020022Y037812D03*
X020313Y038103D03*
X020313Y038103D03*
X020604Y038394D03*
X020604Y038394D03*
X020896Y038686D03*
X020896Y038686D03*
X021187Y038977D03*
X021187Y038977D03*
X021478Y039269D03*
X021478Y039269D03*
X021770Y039560D03*
X021770Y039560D03*
X022061Y039851D03*
X022061Y039851D03*
X022352Y040143D03*
X022352Y040143D03*
X022644Y040434D03*
X022644Y040434D03*
X022935Y040725D03*
X022935Y040725D03*
X023226Y041017D03*
X023226Y041017D03*
X023518Y041308D03*
X023518Y041308D03*
X023809Y041599D03*
X023809Y041599D03*
X024100Y041891D03*
X024100Y041891D03*
X024392Y042182D03*
X024392Y042182D03*
X024683Y042473D03*
X024683Y042473D03*
X024974Y042765D03*
X024974Y042765D03*
X025266Y043056D03*
X025266Y043056D03*
X025557Y043347D03*
X025557Y043347D03*
X025848Y043639D03*
X025848Y043639D03*
X026140Y043930D03*
X026140Y043930D03*
X026431Y044221D03*
X026431Y044221D03*
X026722Y044513D03*
X026722Y044513D03*
X027014Y044804D03*
X027014Y044804D03*
X027305Y045095D03*
X027305Y045095D03*
X027596Y045387D03*
X027596Y045387D03*
X027888Y045678D03*
X027888Y045678D03*
X026903Y046661D03*
X026903Y046661D03*
X026903Y046662D03*
X026903Y046662D03*
X026612Y046371D03*
X026612Y046371D03*
X026321Y046080D03*
X026321Y046080D03*
X026029Y045788D03*
X026029Y045788D03*
X026029Y045787D03*
X026029Y045787D03*
X025738Y045497D03*
X025738Y045497D03*
X025447Y045206D03*
X025447Y045206D03*
X025155Y044914D03*
X025155Y044914D03*
X025155Y044913D03*
X025155Y044913D03*
X024864Y044623D03*
X024864Y044623D03*
X024573Y044331D03*
X024573Y044331D03*
X024281Y044040D03*
X024281Y044040D03*
X024281Y044039D03*
X024281Y044039D03*
X023990Y043749D03*
X023990Y043749D03*
X023699Y043457D03*
X023699Y043457D03*
X023407Y043166D03*
X023407Y043166D03*
X023407Y043165D03*
X023407Y043165D03*
X023116Y042875D03*
X023116Y042875D03*
X022825Y042583D03*
X022825Y042583D03*
X022533Y042292D03*
X022533Y042292D03*
X022533Y042291D03*
X022533Y042291D03*
X022242Y042001D03*
X022242Y042001D03*
X021951Y041709D03*
X021951Y041709D03*
X021659Y041418D03*
X021659Y041418D03*
X021659Y041417D03*
X021659Y041417D03*
X021368Y041127D03*
X021368Y041127D03*
X021077Y040835D03*
X021077Y040835D03*
X020785Y040544D03*
X020785Y040544D03*
X020785Y040543D03*
X020785Y040543D03*
X020494Y040253D03*
X020494Y040253D03*
X020203Y039961D03*
X020203Y039961D03*
X019911Y039670D03*
X019911Y039670D03*
X019911Y039669D03*
X019911Y039669D03*
X019620Y039379D03*
X019620Y039379D03*
X019329Y039087D03*
X019329Y039087D03*
X019037Y038796D03*
X019037Y038796D03*
X019037Y038795D03*
X019037Y038795D03*
X018746Y038505D03*
X018746Y038505D03*
X018455Y038213D03*
X018455Y038213D03*
X018163Y037922D03*
X018163Y037922D03*
X018163Y037921D03*
X018163Y037921D03*
X017872Y037631D03*
X017872Y037631D03*
X017581Y037339D03*
X017581Y037339D03*
X017289Y037048D03*
X017289Y037048D03*
X017289Y037047D03*
X017289Y037047D03*
X016998Y036757D03*
X016998Y036757D03*
X016707Y036465D03*
X016707Y036465D03*
X016415Y036174D03*
X016415Y036174D03*
X016415Y036173D03*
X016415Y036173D03*
X016124Y035883D03*
X016124Y035883D03*
X015833Y035591D03*
X015833Y035591D03*
X015541Y035300D03*
X015541Y035300D03*
X015541Y035299D03*
X015541Y035299D03*
X012856Y035300D03*
X012856Y035300D03*
X012565Y035591D03*
X012565Y035591D03*
X012274Y035883D03*
X012274Y035883D03*
X011982Y036174D03*
X011982Y036174D03*
X011691Y036465D03*
X011691Y036465D03*
X011400Y036757D03*
X011400Y036757D03*
X011108Y037048D03*
X011108Y037048D03*
X010817Y037339D03*
X010817Y037339D03*
X010526Y037631D03*
X010526Y037631D03*
X010234Y037922D03*
X010234Y037922D03*
X009943Y038213D03*
X009943Y038213D03*
X009652Y038505D03*
X009652Y038505D03*
X009360Y038796D03*
X009360Y038796D03*
X009069Y039087D03*
X009069Y039087D03*
X008778Y039379D03*
X008778Y039379D03*
X008486Y039670D03*
X008486Y039670D03*
X008195Y039961D03*
X008195Y039961D03*
X007903Y040253D03*
X007903Y040253D03*
X007612Y040544D03*
X007612Y040544D03*
X007321Y040835D03*
X007321Y040835D03*
X007029Y041127D03*
X007029Y041127D03*
X006738Y041418D03*
X006738Y041418D03*
X006447Y041709D03*
X006447Y041709D03*
X006155Y042001D03*
X006155Y042001D03*
X005864Y042292D03*
X005864Y042292D03*
X005573Y042583D03*
X005573Y042583D03*
X005281Y042875D03*
X005281Y042875D03*
X004990Y043166D03*
X004990Y043166D03*
X004699Y043457D03*
X004699Y043457D03*
X004407Y043749D03*
X004407Y043749D03*
X004116Y044040D03*
X004116Y044040D03*
X003825Y044331D03*
X003825Y044331D03*
X003533Y044623D03*
X003533Y044623D03*
X003242Y044914D03*
X003242Y044914D03*
X002951Y045206D03*
X002951Y045206D03*
X002659Y045497D03*
X002659Y045497D03*
X002368Y045788D03*
X002368Y045788D03*
X002077Y046080D03*
X002077Y046080D03*
X001785Y046371D03*
X001785Y046371D03*
X001494Y046662D03*
X001494Y046662D03*
X000510Y045678D03*
X000510Y045678D03*
X000801Y045387D03*
X000801Y045387D03*
X001092Y045095D03*
X001092Y045095D03*
X001384Y044804D03*
X001384Y044804D03*
X001675Y044513D03*
X001675Y044513D03*
X001966Y044221D03*
X001966Y044221D03*
X002258Y043930D03*
X002258Y043930D03*
X002549Y043639D03*
X002549Y043639D03*
X002840Y043347D03*
X002840Y043347D03*
X003132Y043056D03*
X003132Y043056D03*
X003423Y042765D03*
X003423Y042765D03*
X003715Y042473D03*
X003715Y042473D03*
X004006Y042182D03*
X004006Y042182D03*
X004297Y041891D03*
X004297Y041891D03*
X004589Y041599D03*
X004589Y041599D03*
X004880Y041308D03*
X004880Y041308D03*
X005171Y041017D03*
X005171Y041017D03*
X005463Y040725D03*
X005463Y040725D03*
X005754Y040434D03*
X005754Y040434D03*
X006045Y040143D03*
X006045Y040143D03*
X006337Y039851D03*
X006337Y039851D03*
X006628Y039560D03*
X006628Y039560D03*
X006919Y039269D03*
X006919Y039269D03*
X007211Y038977D03*
X007211Y038977D03*
X007502Y038686D03*
X007502Y038686D03*
X007793Y038394D03*
X007793Y038394D03*
X008085Y038103D03*
X008085Y038103D03*
X008376Y037812D03*
X008376Y037812D03*
X008667Y037520D03*
X008667Y037520D03*
X008959Y037229D03*
X008959Y037229D03*
X009250Y036938D03*
X009250Y036938D03*
X009541Y036646D03*
X009541Y036646D03*
X009833Y036355D03*
X009833Y036355D03*
X010124Y036064D03*
X010124Y036064D03*
X010415Y035772D03*
X010415Y035772D03*
X010707Y035481D03*
X010707Y035481D03*
X010998Y035190D03*
X010998Y035190D03*
X011289Y034898D03*
X011289Y034898D03*
X011581Y034607D03*
X011581Y034607D03*
X011872Y034316D03*
X011872Y034316D03*
D11*
X001940Y001567D02*
X001460Y001567D01*
X001460Y002567D02*
X001940Y002567D01*
X001940Y003567D02*
X001460Y003567D01*
X001460Y004567D02*
X001940Y004567D01*
X001940Y005567D02*
X001460Y005567D01*
X001460Y006567D02*
X001940Y006567D01*
X012200Y005167D02*
X012200Y004687D01*
X013200Y004687D02*
X013200Y005167D01*
X014200Y005167D02*
X014200Y004687D01*
X015200Y004687D02*
X015200Y005167D01*
X015200Y002167D02*
X015200Y001687D01*
X014200Y001687D02*
X014200Y002167D01*
X013200Y002167D02*
X013200Y001687D01*
X012200Y001687D02*
X012200Y002167D01*
D12*
X010820Y001367D03*
X009780Y001367D03*
X008820Y001367D03*
X008820Y004367D03*
X009780Y004367D03*
X010820Y004367D03*
X010920Y005667D03*
X010420Y006417D03*
X009920Y005667D03*
X008500Y005367D03*
X007540Y005367D03*
X006620Y005587D03*
X006620Y006707D03*
X006620Y007827D03*
X006620Y008867D03*
X007540Y008367D03*
X008500Y008367D03*
X009920Y007907D03*
X010420Y008657D03*
X010920Y007907D03*
X012180Y008767D03*
X013220Y008767D03*
X014180Y008767D03*
X015220Y008767D03*
X016320Y007667D03*
X016820Y008417D03*
X017320Y007667D03*
X015220Y005767D03*
X014180Y005767D03*
X013220Y005767D03*
X012180Y005767D03*
X006620Y010147D03*
X006620Y011267D03*
X006620Y012387D03*
X006620Y013507D03*
X007580Y014707D03*
X009580Y014707D03*
X010860Y014707D03*
X012860Y014707D03*
X016880Y014387D03*
X017880Y014387D03*
X018960Y014387D03*
X019960Y014387D03*
X021000Y012547D03*
X021000Y011507D03*
X024000Y011507D03*
X024000Y012547D03*
X004620Y012387D03*
X004620Y013507D03*
X003620Y014607D03*
X003620Y011607D03*
X004620Y011267D03*
X004620Y010147D03*
X004620Y008867D03*
X004620Y007827D03*
X004620Y006707D03*
X003460Y006987D03*
X002860Y007907D03*
X002860Y008867D03*
X000860Y008867D03*
X000860Y007907D03*
X003460Y004987D03*
X003460Y004367D03*
X004620Y005587D03*
X003460Y001367D03*
D13*
X027160Y009987D03*
D14*
X026160Y009987D03*
D15*
X013900Y010141D02*
X013900Y010672D01*
X012900Y010672D02*
X012900Y010141D01*
X011900Y010141D02*
X011900Y010672D01*
X010900Y010672D02*
X010900Y010141D01*
X009900Y010141D02*
X009900Y010672D01*
X008900Y010672D02*
X008900Y010141D01*
X007900Y010141D02*
X007900Y010672D01*
X007900Y013141D02*
X007900Y013672D01*
X008900Y013672D02*
X008900Y013141D01*
X009900Y013141D02*
X009900Y013672D01*
X010900Y013672D02*
X010900Y013141D01*
X011900Y013141D02*
X011900Y013672D01*
X012900Y013672D02*
X012900Y013141D01*
X013900Y013141D02*
X013900Y013672D01*
D16*
X016840Y012717D02*
X017440Y012717D01*
X017440Y010937D02*
X016840Y010937D01*
X019400Y010937D02*
X020000Y010937D01*
X020000Y012717D02*
X019400Y012717D01*
D17*
X002670Y012587D03*
X002670Y011587D03*
X002670Y010587D03*
X001370Y010587D03*
X001370Y011587D03*
X001370Y012587D03*
D18*
X004600Y004367D03*
X004600Y003367D03*
X004600Y002367D03*
X004600Y001367D03*
X007600Y001367D03*
X007600Y002367D03*
X007600Y003367D03*
X007600Y004367D03*
D19*
X021700Y004627D03*
D20*
X025800Y005227D03*
X025800Y004027D03*
X017600Y004027D03*
X017600Y005227D03*
D21*
X017600Y004027D01*
X017600Y005227D02*
X017600Y006387D01*
X016920Y007067D01*
X016330Y007657D01*
X016330Y007667D01*
X016320Y007667D01*
X015220Y008767D01*
X016440Y009987D01*
X024020Y009987D01*
X024000Y010007D01*
X024000Y011507D01*
X024000Y012547D01*
X024020Y009987D02*
X026160Y009987D01*
X026160Y006547D01*
X026160Y005587D01*
X025800Y005227D01*
X025800Y004027D01*
X021700Y004627D02*
X021700Y007907D01*
X021000Y011507D02*
X020980Y011507D01*
X020500Y011987D01*
X020500Y013027D01*
X020340Y013187D01*
X018660Y013187D01*
X017880Y013967D01*
X017880Y014387D01*
X016880Y014387D02*
X016640Y014147D01*
X012260Y014147D01*
X009060Y014147D01*
X008980Y014067D01*
X008900Y013987D01*
X008900Y013407D01*
X008900Y012947D01*
X009460Y012387D01*
X010340Y011507D01*
X010340Y010947D01*
X010340Y009747D01*
X010180Y009587D01*
X008500Y009587D01*
X002580Y009587D01*
X002180Y009187D01*
X002180Y007587D01*
X001860Y007267D01*
X001220Y007267D01*
X000900Y006947D01*
X000900Y003667D01*
X000980Y003587D01*
X001000Y003567D01*
X001700Y003567D01*
X001700Y002567D02*
X002420Y002567D01*
X002420Y004867D01*
X002180Y005107D01*
X001300Y005107D01*
X001060Y005347D01*
X001060Y006867D01*
X001300Y007107D01*
X001940Y007107D01*
X002340Y007507D01*
X002340Y009107D01*
X002660Y009427D01*
X008500Y009427D01*
X010260Y009427D01*
X010500Y009667D01*
X010500Y012227D01*
X010420Y012307D01*
X009900Y012827D01*
X009900Y013407D01*
X009460Y014307D02*
X007980Y014307D01*
X007580Y014707D01*
X009460Y014307D02*
X010460Y014307D01*
X010860Y014707D01*
X011900Y013407D02*
X011900Y011387D01*
X012340Y010947D01*
X012340Y009347D01*
X012580Y009107D01*
X012580Y006167D01*
X012180Y005767D01*
X012180Y004947D01*
X012200Y004927D01*
X013200Y004927D02*
X013220Y004947D01*
X013220Y005767D01*
X012740Y006247D01*
X012740Y009187D01*
X012500Y009427D01*
X012500Y009507D01*
X012500Y012227D01*
X012660Y012387D01*
X012900Y012627D01*
X012900Y013407D01*
X013900Y013407D02*
X013900Y011387D01*
X013380Y010867D01*
X013380Y009587D01*
X013700Y009267D01*
X013700Y006247D01*
X014180Y005767D01*
X014180Y004947D01*
X014200Y004927D01*
X015200Y004927D02*
X015220Y004947D01*
X015220Y005767D01*
X014660Y006327D01*
X014660Y009267D01*
X013900Y010027D01*
X013900Y010407D01*
X011900Y010407D02*
X011900Y010137D01*
X010420Y008657D01*
X010420Y006417D01*
X010920Y005667D02*
X010920Y007907D01*
X010420Y009267D02*
X010820Y009667D01*
X010900Y009747D01*
X010900Y010407D01*
X009900Y010407D02*
X009900Y009787D01*
X009860Y009747D01*
X009380Y009747D01*
X007020Y009747D01*
X006620Y010147D01*
X006220Y009747D01*
X004180Y009747D01*
X002210Y009747D01*
X001370Y010587D01*
X002670Y010587D02*
X003110Y010147D01*
X004620Y010147D01*
X004620Y011267D01*
X004120Y011607D02*
X004340Y011827D01*
X008580Y011827D01*
X008740Y011667D01*
X008900Y011507D01*
X008900Y010407D01*
X010420Y009267D02*
X003940Y009267D01*
X002740Y009267D01*
X002500Y009027D01*
X002500Y007367D01*
X001700Y006567D01*
X002940Y007827D02*
X002860Y007907D01*
X002860Y008867D01*
X002940Y007827D02*
X004620Y007827D01*
X004620Y008867D01*
X004620Y007827D02*
X005020Y007427D01*
X006500Y007427D01*
X007560Y007427D01*
X008500Y008367D01*
X007540Y008367D02*
X007300Y008367D01*
X007160Y008367D01*
X006620Y007827D01*
X007120Y008367D02*
X007300Y008367D01*
X007120Y008367D02*
X006620Y008867D01*
X006620Y010147D02*
X006620Y011267D01*
X004620Y012387D02*
X004620Y013507D01*
X002290Y013507D01*
X002210Y013427D01*
X001370Y012587D01*
X000900Y012117D01*
X000860Y012077D01*
X000860Y008867D01*
X003460Y006987D02*
X004340Y006987D01*
X004620Y006707D01*
X005180Y006147D01*
X006100Y006147D01*
X006760Y006147D01*
X007540Y005367D01*
X007540Y004787D02*
X009360Y004787D01*
X009780Y004367D01*
X010820Y004367D01*
X008820Y004367D02*
X008820Y003587D01*
X007600Y002367D01*
X007140Y001907D01*
X006660Y001907D01*
X004000Y001907D01*
X003460Y001367D01*
X003060Y001187D02*
X003060Y002307D01*
X002900Y002467D01*
X002800Y002567D01*
X002420Y002567D01*
X003060Y001187D02*
X003300Y000947D01*
X004820Y000947D01*
X004900Y001027D01*
X005240Y001367D01*
X007600Y001367D01*
X008820Y001367D01*
X009400Y001747D02*
X009780Y001367D01*
X009400Y001747D02*
X007780Y001747D01*
X004980Y001747D01*
X004600Y001367D01*
X004600Y002367D02*
X004600Y003367D01*
X007600Y003367D01*
X007540Y004787D02*
X005020Y004787D01*
X004620Y004387D01*
X004600Y004367D01*
X004620Y004387D02*
X004620Y005587D01*
X003460Y004987D02*
X003460Y004367D01*
X003600Y011587D02*
X002670Y011587D01*
X003600Y011587D02*
X003608Y011589D01*
X003614Y011593D01*
X003618Y011599D01*
X003620Y011607D01*
X004120Y011607D01*
X016320Y007667D02*
X016330Y007657D01*
X017140Y012717D02*
X019700Y012717D01*
X021000Y012547D02*
X021000Y013347D01*
X019960Y014387D01*
D22*
X021700Y007907D03*
X014344Y028115D03*
X014344Y028784D03*
D23*
X003620Y014867D02*
X003620Y014607D01*
D24*
X003620Y014867D02*
X003620Y015709D01*
X003810Y015709D01*
X026903Y015709D01*
X026612Y016001D02*
X001494Y016001D01*
X001785Y016292D02*
X026321Y016292D01*
X026029Y016583D02*
X002077Y016583D01*
X002368Y016875D02*
X025738Y016875D01*
X025447Y017166D02*
X002659Y017166D01*
X002951Y017457D02*
X025155Y017457D01*
X024864Y017749D02*
X003242Y017749D01*
X003533Y018040D02*
X024573Y018040D01*
X024281Y018331D02*
X003825Y018331D01*
X004116Y018623D02*
X023990Y018623D01*
X023699Y018914D02*
X004407Y018914D01*
X004699Y019206D02*
X023407Y019206D01*
X023116Y019497D02*
X004990Y019497D01*
X005281Y019788D02*
X022825Y019788D01*
X022533Y020080D02*
X005573Y020080D01*
X005864Y020371D02*
X022242Y020371D01*
X021951Y020662D02*
X006155Y020662D01*
X006447Y020954D02*
X021659Y020954D01*
X021368Y021245D02*
X006738Y021245D01*
X007029Y021536D02*
X021077Y021536D01*
X020785Y021828D02*
X007321Y021828D01*
X007612Y022119D02*
X020494Y022119D01*
X020203Y022410D02*
X007903Y022410D01*
X008195Y022702D02*
X019911Y022702D01*
X019620Y022993D02*
X008486Y022993D01*
X008778Y023284D02*
X019329Y023284D01*
X019037Y023576D02*
X009069Y023576D01*
X009360Y023867D02*
X018746Y023867D01*
X018455Y024158D02*
X009652Y024158D01*
X009943Y024450D02*
X018163Y024450D01*
X017872Y024741D02*
X010234Y024741D01*
X010526Y025032D02*
X017581Y025032D01*
X017289Y025324D02*
X010817Y025324D01*
X011108Y025615D02*
X016998Y025615D01*
X016707Y025906D02*
X011400Y025906D01*
X011691Y026198D02*
X016415Y026198D01*
X016124Y026489D02*
X011982Y026489D01*
X012274Y026780D02*
X015833Y026780D01*
X015541Y027072D02*
X012565Y027072D01*
X012856Y027363D02*
X014344Y027363D01*
X014344Y028115D01*
X014344Y028784D01*
X015541Y027072D02*
X015603Y027074D01*
X015664Y027080D01*
X015725Y027089D01*
X015786Y027103D01*
X015845Y027120D01*
X015903Y027141D01*
X015960Y027166D01*
X016015Y027194D01*
X016068Y027225D01*
X016120Y027260D01*
X016169Y027298D01*
X016215Y027339D01*
X016259Y027382D01*
X016300Y027429D01*
X016338Y027478D01*
X016372Y027529D01*
X016404Y027582D01*
X016432Y027637D01*
X016457Y027694D01*
X016478Y027752D01*
X016495Y027811D01*
X016508Y027872D01*
X016518Y027933D01*
X016524Y027994D01*
X016526Y028056D01*
X016526Y034316D01*
X016817Y034607D02*
X016817Y027765D01*
X016816Y027765D01*
X017108Y027473D02*
X017108Y034898D01*
X017400Y035190D02*
X017400Y027182D01*
X017690Y026891D02*
X017691Y026891D01*
X017691Y035481D01*
X017982Y035772D02*
X017982Y026599D01*
X018274Y026308D02*
X018274Y036064D01*
X018565Y036355D02*
X018565Y026017D01*
X018564Y026017D01*
X018856Y025725D02*
X018856Y036646D01*
X019148Y036938D02*
X019148Y025434D01*
X019438Y025143D02*
X019439Y025143D01*
X019439Y037229D01*
X019730Y037520D02*
X019730Y024851D01*
X020022Y024560D02*
X020022Y037812D01*
X020313Y038103D02*
X020313Y024269D01*
X020312Y024269D01*
X020604Y023977D02*
X020604Y038394D01*
X020896Y038686D02*
X020896Y023686D01*
X021187Y023394D02*
X021187Y038977D01*
X021478Y039269D02*
X021478Y023103D01*
X021770Y022812D02*
X021770Y039560D01*
X022061Y039851D02*
X022061Y022520D01*
X022352Y022229D02*
X022352Y040143D01*
X022644Y040434D02*
X022644Y021938D01*
X022935Y021646D02*
X022935Y040725D01*
X023226Y041017D02*
X023226Y021355D01*
X023518Y021064D02*
X023518Y041308D01*
X023809Y041599D02*
X023809Y020772D01*
X024100Y020481D02*
X024100Y041891D01*
X024392Y042182D02*
X024392Y020190D01*
X024683Y019898D02*
X024683Y042473D01*
X024974Y042765D02*
X024974Y019607D01*
X025266Y019316D02*
X025266Y043056D01*
X025557Y043347D02*
X025557Y019024D01*
X025848Y018733D02*
X025848Y043639D01*
X026140Y043930D02*
X026140Y018442D01*
X026431Y018150D02*
X026431Y044221D01*
X026722Y044513D02*
X026722Y017859D01*
X027014Y017568D02*
X027014Y044804D01*
X027305Y045095D02*
X027305Y017276D01*
X027596Y016985D02*
X027596Y045387D01*
X027888Y045678D02*
X027888Y016694D01*
X027886Y016632D01*
X027880Y016571D01*
X027871Y016509D01*
X027857Y016449D01*
X027840Y016390D01*
X027819Y016331D01*
X027794Y016275D01*
X027766Y016219D01*
X027735Y016166D01*
X027700Y016115D01*
X027662Y016066D01*
X027621Y016020D01*
X027577Y015976D01*
X027531Y015935D01*
X027482Y015897D01*
X027431Y015862D01*
X027378Y015831D01*
X027322Y015803D01*
X027266Y015778D01*
X027207Y015757D01*
X027148Y015740D01*
X027088Y015726D01*
X027026Y015717D01*
X026965Y015711D01*
X026903Y015709D01*
X026612Y016001D02*
X026674Y016003D01*
X026735Y016009D01*
X026796Y016018D01*
X026857Y016032D01*
X026916Y016049D01*
X026974Y016070D01*
X027031Y016095D01*
X027086Y016123D01*
X027139Y016154D01*
X027190Y016189D01*
X027239Y016227D01*
X027286Y016268D01*
X027329Y016311D01*
X027370Y016358D01*
X027408Y016407D01*
X027443Y016458D01*
X027474Y016511D01*
X027502Y016566D01*
X027527Y016623D01*
X027548Y016681D01*
X027565Y016740D01*
X027579Y016801D01*
X027588Y016862D01*
X027594Y016923D01*
X027596Y016985D01*
X027305Y017276D02*
X027303Y017214D01*
X027297Y017153D01*
X027288Y017092D01*
X027274Y017031D01*
X027257Y016972D01*
X027236Y016914D01*
X027211Y016857D01*
X027183Y016802D01*
X027152Y016749D01*
X027117Y016698D01*
X027079Y016649D01*
X027038Y016602D01*
X026995Y016559D01*
X026948Y016518D01*
X026899Y016480D01*
X026848Y016445D01*
X026795Y016414D01*
X026740Y016386D01*
X026683Y016361D01*
X026625Y016340D01*
X026566Y016323D01*
X026505Y016309D01*
X026444Y016300D01*
X026383Y016294D01*
X026321Y016292D01*
X026029Y016583D02*
X026091Y016585D01*
X026152Y016591D01*
X026214Y016600D01*
X026274Y016614D01*
X026333Y016631D01*
X026392Y016652D01*
X026448Y016677D01*
X026504Y016705D01*
X026557Y016736D01*
X026608Y016771D01*
X026657Y016809D01*
X026703Y016850D01*
X026747Y016894D01*
X026788Y016940D01*
X026826Y016989D01*
X026861Y017040D01*
X026892Y017093D01*
X026920Y017149D01*
X026945Y017205D01*
X026966Y017264D01*
X026983Y017323D01*
X026997Y017383D01*
X027006Y017445D01*
X027012Y017506D01*
X027014Y017568D01*
X026722Y017859D02*
X026720Y017797D01*
X026714Y017736D01*
X026705Y017675D01*
X026691Y017614D01*
X026674Y017555D01*
X026653Y017497D01*
X026628Y017440D01*
X026600Y017385D01*
X026569Y017332D01*
X026534Y017281D01*
X026496Y017232D01*
X026455Y017185D01*
X026412Y017142D01*
X026365Y017101D01*
X026316Y017063D01*
X026265Y017028D01*
X026212Y016997D01*
X026157Y016969D01*
X026100Y016944D01*
X026042Y016923D01*
X025983Y016906D01*
X025922Y016892D01*
X025861Y016883D01*
X025800Y016877D01*
X025738Y016875D01*
X025447Y017166D02*
X025509Y017168D01*
X025570Y017174D01*
X025631Y017183D01*
X025692Y017197D01*
X025751Y017214D01*
X025809Y017235D01*
X025866Y017260D01*
X025921Y017288D01*
X025974Y017319D01*
X026025Y017354D01*
X026074Y017392D01*
X026121Y017433D01*
X026164Y017476D01*
X026205Y017523D01*
X026243Y017572D01*
X026278Y017623D01*
X026309Y017676D01*
X026337Y017731D01*
X026362Y017788D01*
X026383Y017846D01*
X026400Y017905D01*
X026414Y017966D01*
X026423Y018027D01*
X026429Y018088D01*
X026431Y018150D01*
X026140Y018442D02*
X026138Y018380D01*
X026132Y018319D01*
X026123Y018257D01*
X026109Y018197D01*
X026092Y018138D01*
X026071Y018079D01*
X026046Y018023D01*
X026018Y017967D01*
X025987Y017914D01*
X025952Y017863D01*
X025914Y017814D01*
X025873Y017768D01*
X025829Y017724D01*
X025783Y017683D01*
X025734Y017645D01*
X025683Y017610D01*
X025630Y017579D01*
X025574Y017551D01*
X025518Y017526D01*
X025459Y017505D01*
X025400Y017488D01*
X025340Y017474D01*
X025278Y017465D01*
X025217Y017459D01*
X025155Y017457D01*
X024864Y017749D02*
X024926Y017751D01*
X024987Y017757D01*
X025048Y017766D01*
X025109Y017780D01*
X025168Y017797D01*
X025226Y017818D01*
X025283Y017843D01*
X025338Y017871D01*
X025391Y017902D01*
X025442Y017937D01*
X025491Y017975D01*
X025538Y018016D01*
X025581Y018059D01*
X025622Y018106D01*
X025660Y018155D01*
X025695Y018206D01*
X025726Y018259D01*
X025754Y018314D01*
X025779Y018371D01*
X025800Y018429D01*
X025817Y018488D01*
X025831Y018549D01*
X025840Y018610D01*
X025846Y018671D01*
X025848Y018733D01*
X025557Y019024D02*
X025555Y018962D01*
X025549Y018901D01*
X025540Y018840D01*
X025526Y018779D01*
X025509Y018720D01*
X025488Y018662D01*
X025463Y018605D01*
X025435Y018550D01*
X025404Y018497D01*
X025369Y018446D01*
X025331Y018397D01*
X025290Y018350D01*
X025247Y018307D01*
X025200Y018266D01*
X025151Y018228D01*
X025100Y018193D01*
X025047Y018162D01*
X024992Y018134D01*
X024935Y018109D01*
X024877Y018088D01*
X024818Y018071D01*
X024757Y018057D01*
X024696Y018048D01*
X024635Y018042D01*
X024573Y018040D01*
X024281Y018331D02*
X024343Y018333D01*
X024404Y018339D01*
X024466Y018348D01*
X024526Y018362D01*
X024585Y018379D01*
X024644Y018400D01*
X024700Y018425D01*
X024756Y018453D01*
X024809Y018484D01*
X024860Y018519D01*
X024909Y018557D01*
X024955Y018598D01*
X024999Y018642D01*
X025040Y018688D01*
X025078Y018737D01*
X025113Y018788D01*
X025144Y018841D01*
X025172Y018897D01*
X025197Y018953D01*
X025218Y019012D01*
X025235Y019071D01*
X025249Y019131D01*
X025258Y019193D01*
X025264Y019254D01*
X025266Y019316D01*
X024974Y019607D02*
X024972Y019545D01*
X024966Y019484D01*
X024957Y019423D01*
X024943Y019362D01*
X024926Y019303D01*
X024905Y019245D01*
X024880Y019188D01*
X024852Y019133D01*
X024821Y019080D01*
X024786Y019029D01*
X024748Y018980D01*
X024707Y018933D01*
X024664Y018890D01*
X024617Y018849D01*
X024568Y018811D01*
X024517Y018776D01*
X024464Y018745D01*
X024409Y018717D01*
X024352Y018692D01*
X024294Y018671D01*
X024235Y018654D01*
X024174Y018640D01*
X024113Y018631D01*
X024052Y018625D01*
X023990Y018623D01*
X023699Y018914D02*
X023761Y018916D01*
X023822Y018922D01*
X023883Y018931D01*
X023944Y018945D01*
X024003Y018962D01*
X024061Y018983D01*
X024118Y019008D01*
X024173Y019036D01*
X024226Y019067D01*
X024277Y019102D01*
X024326Y019140D01*
X024373Y019181D01*
X024416Y019224D01*
X024457Y019271D01*
X024495Y019320D01*
X024530Y019371D01*
X024561Y019424D01*
X024589Y019479D01*
X024614Y019536D01*
X024635Y019594D01*
X024652Y019653D01*
X024666Y019714D01*
X024675Y019775D01*
X024681Y019836D01*
X024683Y019898D01*
X024392Y020190D02*
X024390Y020128D01*
X024384Y020067D01*
X024374Y020006D01*
X024361Y019945D01*
X024344Y019886D01*
X024323Y019828D01*
X024298Y019771D01*
X024270Y019716D01*
X024238Y019663D01*
X024204Y019612D01*
X024166Y019563D01*
X024125Y019516D01*
X024081Y019473D01*
X024035Y019432D01*
X023986Y019394D01*
X023934Y019359D01*
X023881Y019328D01*
X023826Y019300D01*
X023769Y019275D01*
X023711Y019254D01*
X023652Y019237D01*
X023591Y019223D01*
X023530Y019214D01*
X023469Y019208D01*
X023407Y019206D01*
X023116Y019497D02*
X023178Y019499D01*
X023239Y019505D01*
X023300Y019514D01*
X023361Y019528D01*
X023420Y019545D01*
X023478Y019566D01*
X023535Y019591D01*
X023590Y019619D01*
X023643Y019650D01*
X023694Y019685D01*
X023743Y019723D01*
X023790Y019764D01*
X023833Y019807D01*
X023874Y019854D01*
X023912Y019903D01*
X023947Y019954D01*
X023978Y020007D01*
X024006Y020062D01*
X024031Y020119D01*
X024052Y020177D01*
X024069Y020236D01*
X024083Y020297D01*
X024092Y020358D01*
X024098Y020419D01*
X024100Y020481D01*
X023809Y020772D02*
X023807Y020710D01*
X023801Y020649D01*
X023792Y020588D01*
X023778Y020527D01*
X023761Y020468D01*
X023740Y020410D01*
X023715Y020353D01*
X023687Y020298D01*
X023656Y020245D01*
X023621Y020194D01*
X023583Y020145D01*
X023542Y020098D01*
X023499Y020055D01*
X023452Y020014D01*
X023403Y019976D01*
X023352Y019941D01*
X023299Y019910D01*
X023244Y019882D01*
X023187Y019857D01*
X023129Y019836D01*
X023070Y019819D01*
X023009Y019805D01*
X022948Y019796D01*
X022887Y019790D01*
X022825Y019788D01*
X022533Y020080D02*
X022595Y020082D01*
X022656Y020088D01*
X022717Y020097D01*
X022778Y020111D01*
X022837Y020128D01*
X022895Y020149D01*
X022952Y020174D01*
X023007Y020202D01*
X023060Y020233D01*
X023112Y020268D01*
X023161Y020306D01*
X023207Y020347D01*
X023251Y020390D01*
X023292Y020437D01*
X023330Y020486D01*
X023364Y020537D01*
X023396Y020590D01*
X023424Y020645D01*
X023449Y020702D01*
X023470Y020760D01*
X023487Y020819D01*
X023500Y020880D01*
X023510Y020941D01*
X023516Y021002D01*
X023518Y021064D01*
X023226Y021355D02*
X023224Y021293D01*
X023218Y021232D01*
X023209Y021171D01*
X023195Y021110D01*
X023178Y021051D01*
X023157Y020993D01*
X023132Y020936D01*
X023104Y020881D01*
X023073Y020828D01*
X023038Y020777D01*
X023000Y020728D01*
X022959Y020681D01*
X022916Y020638D01*
X022869Y020597D01*
X022820Y020559D01*
X022769Y020524D01*
X022716Y020493D01*
X022661Y020465D01*
X022604Y020440D01*
X022546Y020419D01*
X022487Y020402D01*
X022426Y020388D01*
X022365Y020379D01*
X022304Y020373D01*
X022242Y020371D01*
X021951Y020662D02*
X022013Y020664D01*
X022074Y020670D01*
X022135Y020679D01*
X022196Y020693D01*
X022255Y020710D01*
X022313Y020731D01*
X022370Y020756D01*
X022425Y020784D01*
X022478Y020815D01*
X022529Y020850D01*
X022578Y020888D01*
X022625Y020929D01*
X022668Y020972D01*
X022709Y021019D01*
X022747Y021068D01*
X022782Y021119D01*
X022813Y021172D01*
X022841Y021227D01*
X022866Y021284D01*
X022887Y021342D01*
X022904Y021401D01*
X022918Y021462D01*
X022927Y021523D01*
X022933Y021584D01*
X022935Y021646D01*
X022644Y021938D02*
X022642Y021876D01*
X022636Y021815D01*
X022626Y021754D01*
X022613Y021693D01*
X022596Y021634D01*
X022575Y021576D01*
X022550Y021519D01*
X022522Y021464D01*
X022490Y021411D01*
X022456Y021360D01*
X022418Y021311D01*
X022377Y021264D01*
X022333Y021221D01*
X022287Y021180D01*
X022238Y021142D01*
X022186Y021107D01*
X022133Y021076D01*
X022078Y021048D01*
X022021Y021023D01*
X021963Y021002D01*
X021904Y020985D01*
X021843Y020971D01*
X021782Y020962D01*
X021721Y020956D01*
X021659Y020954D01*
X021368Y021245D02*
X021430Y021247D01*
X021491Y021253D01*
X021552Y021262D01*
X021613Y021276D01*
X021672Y021293D01*
X021730Y021314D01*
X021787Y021339D01*
X021842Y021367D01*
X021895Y021398D01*
X021946Y021433D01*
X021995Y021471D01*
X022042Y021512D01*
X022085Y021555D01*
X022126Y021602D01*
X022164Y021651D01*
X022199Y021702D01*
X022230Y021755D01*
X022258Y021810D01*
X022283Y021867D01*
X022304Y021925D01*
X022321Y021984D01*
X022335Y022045D01*
X022344Y022106D01*
X022350Y022167D01*
X022352Y022229D01*
X022061Y022520D02*
X022059Y022458D01*
X022053Y022397D01*
X022044Y022336D01*
X022030Y022275D01*
X022013Y022216D01*
X021992Y022158D01*
X021967Y022101D01*
X021939Y022046D01*
X021908Y021993D01*
X021873Y021942D01*
X021835Y021893D01*
X021794Y021846D01*
X021751Y021803D01*
X021704Y021762D01*
X021655Y021724D01*
X021604Y021689D01*
X021551Y021658D01*
X021496Y021630D01*
X021439Y021605D01*
X021381Y021584D01*
X021322Y021567D01*
X021261Y021553D01*
X021200Y021544D01*
X021139Y021538D01*
X021077Y021536D01*
X020785Y021828D02*
X020847Y021830D01*
X020908Y021836D01*
X020969Y021845D01*
X021030Y021859D01*
X021089Y021876D01*
X021147Y021897D01*
X021204Y021922D01*
X021259Y021950D01*
X021312Y021981D01*
X021364Y022016D01*
X021413Y022054D01*
X021459Y022095D01*
X021503Y022138D01*
X021544Y022185D01*
X021582Y022234D01*
X021616Y022285D01*
X021648Y022338D01*
X021676Y022393D01*
X021701Y022450D01*
X021722Y022508D01*
X021739Y022567D01*
X021752Y022628D01*
X021762Y022689D01*
X021768Y022750D01*
X021770Y022812D01*
X021478Y023103D02*
X021476Y023041D01*
X021470Y022980D01*
X021461Y022919D01*
X021447Y022858D01*
X021430Y022799D01*
X021409Y022741D01*
X021384Y022684D01*
X021356Y022629D01*
X021325Y022576D01*
X021290Y022525D01*
X021252Y022476D01*
X021211Y022429D01*
X021168Y022386D01*
X021121Y022345D01*
X021072Y022307D01*
X021021Y022272D01*
X020968Y022241D01*
X020913Y022213D01*
X020856Y022188D01*
X020798Y022167D01*
X020739Y022150D01*
X020678Y022136D01*
X020617Y022127D01*
X020556Y022121D01*
X020494Y022119D01*
X020203Y022410D02*
X020265Y022412D01*
X020326Y022418D01*
X020387Y022427D01*
X020448Y022441D01*
X020507Y022458D01*
X020565Y022479D01*
X020622Y022504D01*
X020677Y022532D01*
X020730Y022563D01*
X020781Y022598D01*
X020830Y022636D01*
X020877Y022677D01*
X020920Y022720D01*
X020961Y022767D01*
X020999Y022816D01*
X021034Y022867D01*
X021065Y022920D01*
X021093Y022975D01*
X021118Y023032D01*
X021139Y023090D01*
X021156Y023149D01*
X021170Y023210D01*
X021179Y023271D01*
X021185Y023332D01*
X021187Y023394D01*
X020896Y023686D02*
X020894Y023624D01*
X020888Y023563D01*
X020878Y023502D01*
X020865Y023441D01*
X020848Y023382D01*
X020827Y023324D01*
X020802Y023267D01*
X020774Y023212D01*
X020742Y023159D01*
X020708Y023108D01*
X020670Y023059D01*
X020629Y023012D01*
X020585Y022969D01*
X020539Y022928D01*
X020490Y022890D01*
X020438Y022855D01*
X020385Y022824D01*
X020330Y022796D01*
X020273Y022771D01*
X020215Y022750D01*
X020156Y022733D01*
X020095Y022719D01*
X020034Y022710D01*
X019973Y022704D01*
X019911Y022702D01*
X019620Y022993D02*
X019682Y022995D01*
X019743Y023001D01*
X019804Y023010D01*
X019865Y023024D01*
X019924Y023041D01*
X019982Y023062D01*
X020039Y023087D01*
X020094Y023115D01*
X020147Y023146D01*
X020198Y023181D01*
X020247Y023219D01*
X020294Y023260D01*
X020337Y023303D01*
X020378Y023350D01*
X020416Y023399D01*
X020451Y023450D01*
X020482Y023503D01*
X020510Y023558D01*
X020535Y023615D01*
X020556Y023673D01*
X020573Y023732D01*
X020587Y023793D01*
X020596Y023854D01*
X020602Y023915D01*
X020604Y023977D01*
X020312Y024269D02*
X020310Y024207D01*
X020304Y024146D01*
X020295Y024085D01*
X020281Y024024D01*
X020264Y023965D01*
X020243Y023907D01*
X020219Y023850D01*
X020191Y023795D01*
X020159Y023742D01*
X020125Y023690D01*
X020087Y023642D01*
X020046Y023595D01*
X020002Y023551D01*
X019956Y023510D01*
X019907Y023473D01*
X019856Y023438D01*
X019803Y023406D01*
X019748Y023378D01*
X019691Y023353D01*
X019633Y023332D01*
X019574Y023315D01*
X019513Y023302D01*
X019452Y023292D01*
X019391Y023286D01*
X019329Y023284D01*
X019037Y023576D02*
X019099Y023578D01*
X019160Y023584D01*
X019221Y023593D01*
X019282Y023607D01*
X019341Y023624D01*
X019399Y023645D01*
X019456Y023670D01*
X019511Y023698D01*
X019564Y023729D01*
X019616Y023764D01*
X019665Y023802D01*
X019711Y023843D01*
X019755Y023886D01*
X019796Y023933D01*
X019834Y023982D01*
X019868Y024033D01*
X019900Y024086D01*
X019928Y024141D01*
X019953Y024198D01*
X019974Y024256D01*
X019991Y024315D01*
X020004Y024376D01*
X020014Y024437D01*
X020020Y024498D01*
X020022Y024560D01*
X019730Y024851D02*
X019728Y024789D01*
X019722Y024728D01*
X019713Y024667D01*
X019699Y024606D01*
X019682Y024547D01*
X019661Y024489D01*
X019636Y024432D01*
X019608Y024377D01*
X019577Y024324D01*
X019542Y024273D01*
X019504Y024224D01*
X019463Y024177D01*
X019420Y024134D01*
X019373Y024093D01*
X019324Y024055D01*
X019273Y024020D01*
X019220Y023989D01*
X019165Y023961D01*
X019108Y023936D01*
X019050Y023915D01*
X018991Y023898D01*
X018930Y023884D01*
X018869Y023875D01*
X018808Y023869D01*
X018746Y023867D01*
X018455Y024158D02*
X018517Y024160D01*
X018578Y024166D01*
X018639Y024176D01*
X018700Y024189D01*
X018759Y024206D01*
X018817Y024227D01*
X018874Y024252D01*
X018929Y024280D01*
X018982Y024312D01*
X019033Y024347D01*
X019082Y024384D01*
X019128Y024425D01*
X019172Y024469D01*
X019213Y024516D01*
X019251Y024564D01*
X019285Y024616D01*
X019317Y024669D01*
X019345Y024724D01*
X019369Y024781D01*
X019390Y024839D01*
X019407Y024898D01*
X019421Y024959D01*
X019430Y025020D01*
X019436Y025081D01*
X019438Y025143D01*
X019148Y025434D02*
X019146Y025372D01*
X019140Y025311D01*
X019130Y025250D01*
X019117Y025189D01*
X019100Y025130D01*
X019079Y025072D01*
X019054Y025015D01*
X019026Y024960D01*
X018994Y024907D01*
X018960Y024856D01*
X018922Y024807D01*
X018881Y024760D01*
X018837Y024717D01*
X018791Y024676D01*
X018742Y024638D01*
X018690Y024603D01*
X018637Y024572D01*
X018582Y024544D01*
X018525Y024519D01*
X018467Y024498D01*
X018408Y024481D01*
X018347Y024467D01*
X018286Y024458D01*
X018225Y024452D01*
X018163Y024450D01*
X017872Y024741D02*
X017934Y024743D01*
X017995Y024749D01*
X018056Y024758D01*
X018117Y024772D01*
X018176Y024789D01*
X018234Y024810D01*
X018291Y024835D01*
X018346Y024863D01*
X018399Y024894D01*
X018450Y024929D01*
X018499Y024967D01*
X018546Y025008D01*
X018589Y025051D01*
X018630Y025098D01*
X018668Y025147D01*
X018703Y025198D01*
X018734Y025251D01*
X018762Y025306D01*
X018787Y025363D01*
X018808Y025421D01*
X018825Y025480D01*
X018839Y025541D01*
X018848Y025602D01*
X018854Y025663D01*
X018856Y025725D01*
X018564Y026017D02*
X018562Y025955D01*
X018556Y025894D01*
X018547Y025833D01*
X018533Y025772D01*
X018516Y025713D01*
X018495Y025655D01*
X018471Y025598D01*
X018443Y025543D01*
X018411Y025490D01*
X018377Y025438D01*
X018339Y025390D01*
X018298Y025343D01*
X018254Y025299D01*
X018208Y025258D01*
X018159Y025221D01*
X018108Y025186D01*
X018055Y025154D01*
X018000Y025126D01*
X017943Y025101D01*
X017885Y025080D01*
X017826Y025063D01*
X017765Y025050D01*
X017704Y025040D01*
X017643Y025034D01*
X017581Y025032D01*
X017289Y025324D02*
X017351Y025326D01*
X017412Y025332D01*
X017473Y025341D01*
X017534Y025355D01*
X017593Y025372D01*
X017651Y025393D01*
X017708Y025418D01*
X017763Y025446D01*
X017816Y025477D01*
X017868Y025512D01*
X017917Y025550D01*
X017963Y025591D01*
X018007Y025634D01*
X018048Y025681D01*
X018086Y025730D01*
X018120Y025781D01*
X018152Y025834D01*
X018180Y025889D01*
X018205Y025946D01*
X018226Y026004D01*
X018243Y026063D01*
X018256Y026124D01*
X018266Y026185D01*
X018272Y026246D01*
X018274Y026308D01*
X017982Y026599D02*
X017980Y026537D01*
X017974Y026476D01*
X017965Y026415D01*
X017951Y026354D01*
X017934Y026295D01*
X017913Y026237D01*
X017888Y026180D01*
X017860Y026125D01*
X017829Y026072D01*
X017794Y026021D01*
X017756Y025972D01*
X017715Y025925D01*
X017672Y025882D01*
X017625Y025841D01*
X017576Y025803D01*
X017525Y025768D01*
X017472Y025737D01*
X017417Y025709D01*
X017360Y025684D01*
X017302Y025663D01*
X017243Y025646D01*
X017182Y025632D01*
X017121Y025623D01*
X017060Y025617D01*
X016998Y025615D01*
X016707Y025906D02*
X016769Y025908D01*
X016830Y025914D01*
X016891Y025924D01*
X016952Y025937D01*
X017011Y025954D01*
X017069Y025975D01*
X017126Y026000D01*
X017181Y026028D01*
X017234Y026060D01*
X017285Y026095D01*
X017334Y026132D01*
X017380Y026173D01*
X017424Y026217D01*
X017465Y026264D01*
X017503Y026312D01*
X017537Y026364D01*
X017569Y026417D01*
X017597Y026472D01*
X017621Y026529D01*
X017642Y026587D01*
X017659Y026646D01*
X017673Y026707D01*
X017682Y026768D01*
X017688Y026829D01*
X017690Y026891D01*
X017400Y027182D02*
X017398Y027120D01*
X017392Y027059D01*
X017382Y026998D01*
X017369Y026937D01*
X017352Y026878D01*
X017331Y026820D01*
X017306Y026763D01*
X017278Y026708D01*
X017246Y026655D01*
X017212Y026604D01*
X017174Y026555D01*
X017133Y026508D01*
X017089Y026465D01*
X017043Y026424D01*
X016994Y026386D01*
X016942Y026351D01*
X016889Y026320D01*
X016834Y026292D01*
X016777Y026267D01*
X016719Y026246D01*
X016660Y026229D01*
X016599Y026215D01*
X016538Y026206D01*
X016477Y026200D01*
X016415Y026198D01*
X016124Y026489D02*
X016186Y026491D01*
X016247Y026497D01*
X016308Y026506D01*
X016369Y026520D01*
X016428Y026537D01*
X016486Y026558D01*
X016543Y026583D01*
X016598Y026611D01*
X016651Y026642D01*
X016702Y026677D01*
X016751Y026715D01*
X016798Y026756D01*
X016841Y026799D01*
X016882Y026846D01*
X016920Y026895D01*
X016955Y026946D01*
X016986Y026999D01*
X017014Y027054D01*
X017039Y027111D01*
X017060Y027169D01*
X017077Y027228D01*
X017091Y027289D01*
X017100Y027350D01*
X017106Y027411D01*
X017108Y027473D01*
X016816Y027765D02*
X016814Y027703D01*
X016808Y027642D01*
X016799Y027581D01*
X016785Y027520D01*
X016768Y027461D01*
X016747Y027403D01*
X016723Y027346D01*
X016695Y027291D01*
X016663Y027238D01*
X016629Y027186D01*
X016591Y027138D01*
X016550Y027091D01*
X016506Y027047D01*
X016460Y027006D01*
X016411Y026969D01*
X016360Y026934D01*
X016307Y026902D01*
X016252Y026874D01*
X016195Y026849D01*
X016137Y026828D01*
X016078Y026811D01*
X016017Y026798D01*
X015956Y026788D01*
X015895Y026782D01*
X015833Y026780D01*
X012856Y027363D02*
X012794Y027365D01*
X012733Y027371D01*
X012672Y027380D01*
X012611Y027394D01*
X012552Y027411D01*
X012494Y027432D01*
X012437Y027457D01*
X012382Y027485D01*
X012329Y027516D01*
X012278Y027551D01*
X012229Y027589D01*
X012182Y027630D01*
X012139Y027673D01*
X012098Y027720D01*
X012060Y027769D01*
X012025Y027820D01*
X011994Y027873D01*
X011966Y027928D01*
X011941Y027985D01*
X011920Y028043D01*
X011903Y028102D01*
X011889Y028163D01*
X011880Y028224D01*
X011874Y028285D01*
X011872Y028347D01*
X011872Y034316D01*
X011581Y034607D02*
X011581Y028056D01*
X011289Y027765D02*
X011289Y034898D01*
X010998Y035190D02*
X010998Y027473D01*
X010707Y027182D02*
X010707Y035481D01*
X010415Y035772D02*
X010415Y026891D01*
X010124Y026599D02*
X010124Y036064D01*
X009833Y036355D02*
X009833Y026308D01*
X009541Y026017D02*
X009541Y036646D01*
X009250Y036938D02*
X009250Y025725D01*
X008959Y025434D02*
X008959Y037229D01*
X008667Y037520D02*
X008667Y025143D01*
X008376Y024851D02*
X008376Y037812D01*
X008085Y038103D02*
X008085Y024560D01*
X007793Y024269D02*
X007793Y038394D01*
X007502Y038686D02*
X007502Y023977D01*
X007211Y023686D02*
X007211Y038977D01*
X006919Y039269D02*
X006919Y023394D01*
X006628Y023103D02*
X006628Y039560D01*
X006337Y039851D02*
X006337Y022812D01*
X006045Y022520D02*
X006045Y040143D01*
X005754Y040434D02*
X005754Y022229D01*
X005463Y021938D02*
X005463Y040725D01*
X005171Y041017D02*
X005171Y021646D01*
X004880Y021355D02*
X004880Y041308D01*
X004589Y041599D02*
X004589Y021064D01*
X004297Y020772D02*
X004297Y041891D01*
X004006Y042182D02*
X004006Y020481D01*
X003715Y020190D02*
X003715Y042473D01*
X003423Y042765D02*
X003423Y019898D01*
X003132Y019607D02*
X003132Y043056D01*
X002840Y043347D02*
X002840Y019316D01*
X002549Y019024D02*
X002549Y043639D01*
X002258Y043930D02*
X002258Y018733D01*
X001966Y018442D02*
X001966Y044221D01*
X001675Y044513D02*
X001675Y018150D01*
X001384Y017859D02*
X001384Y044804D01*
X001092Y045095D02*
X001092Y017568D01*
X000801Y017276D02*
X000801Y045387D01*
X000510Y045678D02*
X000510Y016985D01*
X000512Y016923D01*
X000518Y016862D01*
X000527Y016801D01*
X000541Y016740D01*
X000558Y016681D01*
X000579Y016623D01*
X000604Y016566D01*
X000632Y016511D01*
X000663Y016458D01*
X000698Y016407D01*
X000736Y016358D01*
X000777Y016311D01*
X000820Y016268D01*
X000867Y016227D01*
X000916Y016189D01*
X000967Y016154D01*
X001020Y016123D01*
X001075Y016095D01*
X001132Y016070D01*
X001190Y016049D01*
X001249Y016032D01*
X001310Y016018D01*
X001371Y016009D01*
X001432Y016003D01*
X001494Y016001D01*
X001785Y016292D02*
X001723Y016294D01*
X001662Y016300D01*
X001601Y016309D01*
X001540Y016323D01*
X001481Y016340D01*
X001423Y016361D01*
X001366Y016386D01*
X001311Y016414D01*
X001258Y016445D01*
X001207Y016480D01*
X001158Y016518D01*
X001111Y016559D01*
X001068Y016602D01*
X001027Y016649D01*
X000989Y016698D01*
X000954Y016749D01*
X000923Y016802D01*
X000895Y016857D01*
X000870Y016914D01*
X000849Y016972D01*
X000832Y017031D01*
X000818Y017092D01*
X000809Y017153D01*
X000803Y017214D01*
X000801Y017276D01*
X001092Y017568D02*
X001094Y017506D01*
X001100Y017445D01*
X001109Y017383D01*
X001123Y017323D01*
X001140Y017264D01*
X001161Y017205D01*
X001186Y017149D01*
X001214Y017093D01*
X001245Y017040D01*
X001280Y016989D01*
X001318Y016940D01*
X001359Y016894D01*
X001403Y016850D01*
X001449Y016809D01*
X001498Y016771D01*
X001549Y016736D01*
X001602Y016705D01*
X001658Y016677D01*
X001714Y016652D01*
X001773Y016631D01*
X001832Y016614D01*
X001892Y016600D01*
X001954Y016591D01*
X002015Y016585D01*
X002077Y016583D01*
X002368Y016875D02*
X002306Y016877D01*
X002245Y016883D01*
X002184Y016892D01*
X002123Y016906D01*
X002064Y016923D01*
X002006Y016944D01*
X001949Y016969D01*
X001894Y016997D01*
X001841Y017028D01*
X001790Y017063D01*
X001741Y017101D01*
X001694Y017142D01*
X001651Y017185D01*
X001610Y017232D01*
X001572Y017281D01*
X001537Y017332D01*
X001506Y017385D01*
X001478Y017440D01*
X001453Y017497D01*
X001432Y017555D01*
X001415Y017614D01*
X001401Y017675D01*
X001392Y017736D01*
X001386Y017797D01*
X001384Y017859D01*
X001675Y018150D02*
X001677Y018088D01*
X001683Y018027D01*
X001692Y017966D01*
X001706Y017905D01*
X001723Y017846D01*
X001744Y017788D01*
X001769Y017731D01*
X001797Y017676D01*
X001828Y017623D01*
X001863Y017572D01*
X001901Y017523D01*
X001942Y017476D01*
X001985Y017433D01*
X002032Y017392D01*
X002081Y017354D01*
X002132Y017319D01*
X002185Y017288D01*
X002240Y017260D01*
X002297Y017235D01*
X002355Y017214D01*
X002414Y017197D01*
X002475Y017183D01*
X002536Y017174D01*
X002597Y017168D01*
X002659Y017166D01*
X002951Y017457D02*
X002889Y017459D01*
X002828Y017465D01*
X002766Y017474D01*
X002706Y017488D01*
X002647Y017505D01*
X002588Y017526D01*
X002532Y017551D01*
X002476Y017579D01*
X002423Y017610D01*
X002372Y017645D01*
X002323Y017683D01*
X002277Y017724D01*
X002233Y017768D01*
X002192Y017814D01*
X002154Y017863D01*
X002119Y017914D01*
X002088Y017967D01*
X002060Y018023D01*
X002035Y018079D01*
X002014Y018138D01*
X001997Y018197D01*
X001983Y018257D01*
X001974Y018319D01*
X001968Y018380D01*
X001966Y018442D01*
X002258Y018733D02*
X002260Y018671D01*
X002266Y018610D01*
X002275Y018549D01*
X002289Y018488D01*
X002306Y018429D01*
X002327Y018371D01*
X002352Y018314D01*
X002380Y018259D01*
X002411Y018206D01*
X002446Y018155D01*
X002484Y018106D01*
X002525Y018059D01*
X002568Y018016D01*
X002615Y017975D01*
X002664Y017937D01*
X002715Y017902D01*
X002768Y017871D01*
X002823Y017843D01*
X002880Y017818D01*
X002938Y017797D01*
X002997Y017780D01*
X003058Y017766D01*
X003119Y017757D01*
X003180Y017751D01*
X003242Y017749D01*
X003533Y018040D02*
X003471Y018042D01*
X003410Y018048D01*
X003349Y018057D01*
X003288Y018071D01*
X003229Y018088D01*
X003171Y018109D01*
X003114Y018134D01*
X003059Y018162D01*
X003006Y018193D01*
X002955Y018228D01*
X002906Y018266D01*
X002859Y018307D01*
X002816Y018350D01*
X002775Y018397D01*
X002737Y018446D01*
X002702Y018497D01*
X002671Y018550D01*
X002643Y018605D01*
X002618Y018662D01*
X002597Y018720D01*
X002580Y018779D01*
X002566Y018840D01*
X002557Y018901D01*
X002551Y018962D01*
X002549Y019024D01*
X002840Y019316D02*
X002842Y019254D01*
X002848Y019193D01*
X002857Y019131D01*
X002871Y019071D01*
X002888Y019012D01*
X002909Y018953D01*
X002934Y018897D01*
X002962Y018841D01*
X002993Y018788D01*
X003028Y018737D01*
X003066Y018688D01*
X003107Y018642D01*
X003151Y018598D01*
X003197Y018557D01*
X003246Y018519D01*
X003297Y018484D01*
X003350Y018453D01*
X003406Y018425D01*
X003462Y018400D01*
X003521Y018379D01*
X003580Y018362D01*
X003640Y018348D01*
X003702Y018339D01*
X003763Y018333D01*
X003825Y018331D01*
X004116Y018623D02*
X004054Y018625D01*
X003993Y018631D01*
X003932Y018640D01*
X003871Y018654D01*
X003812Y018671D01*
X003754Y018692D01*
X003697Y018717D01*
X003642Y018745D01*
X003589Y018776D01*
X003538Y018811D01*
X003489Y018849D01*
X003442Y018890D01*
X003399Y018933D01*
X003358Y018980D01*
X003320Y019029D01*
X003285Y019080D01*
X003254Y019133D01*
X003226Y019188D01*
X003201Y019245D01*
X003180Y019303D01*
X003163Y019362D01*
X003149Y019423D01*
X003140Y019484D01*
X003134Y019545D01*
X003132Y019607D01*
X003423Y019898D02*
X003425Y019836D01*
X003431Y019775D01*
X003440Y019714D01*
X003454Y019653D01*
X003471Y019594D01*
X003492Y019536D01*
X003517Y019479D01*
X003545Y019424D01*
X003576Y019371D01*
X003611Y019320D01*
X003649Y019271D01*
X003690Y019224D01*
X003733Y019181D01*
X003780Y019140D01*
X003829Y019102D01*
X003880Y019067D01*
X003933Y019036D01*
X003988Y019008D01*
X004045Y018983D01*
X004103Y018962D01*
X004162Y018945D01*
X004223Y018931D01*
X004284Y018922D01*
X004345Y018916D01*
X004407Y018914D01*
X004699Y019206D02*
X004637Y019208D01*
X004576Y019214D01*
X004515Y019223D01*
X004454Y019237D01*
X004395Y019254D01*
X004337Y019275D01*
X004280Y019300D01*
X004225Y019328D01*
X004172Y019359D01*
X004121Y019394D01*
X004072Y019432D01*
X004025Y019473D01*
X003982Y019516D01*
X003941Y019563D01*
X003903Y019612D01*
X003868Y019663D01*
X003837Y019716D01*
X003809Y019771D01*
X003784Y019828D01*
X003763Y019886D01*
X003746Y019945D01*
X003732Y020006D01*
X003723Y020067D01*
X003717Y020128D01*
X003715Y020190D01*
X004006Y020481D02*
X004008Y020419D01*
X004014Y020358D01*
X004023Y020297D01*
X004037Y020236D01*
X004054Y020177D01*
X004075Y020119D01*
X004100Y020062D01*
X004128Y020007D01*
X004159Y019954D01*
X004194Y019903D01*
X004232Y019854D01*
X004273Y019807D01*
X004316Y019764D01*
X004363Y019723D01*
X004412Y019685D01*
X004463Y019650D01*
X004516Y019619D01*
X004571Y019591D01*
X004628Y019566D01*
X004686Y019545D01*
X004745Y019528D01*
X004806Y019514D01*
X004867Y019505D01*
X004928Y019499D01*
X004990Y019497D01*
X005281Y019788D02*
X005219Y019790D01*
X005158Y019796D01*
X005097Y019805D01*
X005036Y019819D01*
X004977Y019836D01*
X004919Y019857D01*
X004862Y019882D01*
X004807Y019910D01*
X004754Y019941D01*
X004703Y019976D01*
X004654Y020014D01*
X004607Y020055D01*
X004564Y020098D01*
X004523Y020145D01*
X004485Y020194D01*
X004450Y020245D01*
X004419Y020298D01*
X004391Y020353D01*
X004366Y020410D01*
X004345Y020468D01*
X004328Y020527D01*
X004314Y020588D01*
X004305Y020649D01*
X004299Y020710D01*
X004297Y020772D01*
X004589Y021064D02*
X004591Y021002D01*
X004597Y020941D01*
X004606Y020880D01*
X004620Y020819D01*
X004637Y020760D01*
X004658Y020702D01*
X004683Y020645D01*
X004711Y020590D01*
X004742Y020537D01*
X004777Y020486D01*
X004815Y020437D01*
X004856Y020390D01*
X004899Y020347D01*
X004946Y020306D01*
X004995Y020268D01*
X005046Y020233D01*
X005099Y020202D01*
X005154Y020174D01*
X005211Y020149D01*
X005269Y020128D01*
X005328Y020111D01*
X005389Y020097D01*
X005450Y020088D01*
X005511Y020082D01*
X005573Y020080D01*
X005864Y020371D02*
X005802Y020373D01*
X005741Y020379D01*
X005680Y020388D01*
X005619Y020402D01*
X005560Y020419D01*
X005502Y020440D01*
X005445Y020465D01*
X005390Y020493D01*
X005337Y020524D01*
X005286Y020559D01*
X005237Y020597D01*
X005190Y020638D01*
X005147Y020681D01*
X005106Y020728D01*
X005068Y020777D01*
X005033Y020828D01*
X005002Y020881D01*
X004974Y020936D01*
X004949Y020993D01*
X004928Y021051D01*
X004911Y021110D01*
X004897Y021171D01*
X004888Y021232D01*
X004882Y021293D01*
X004880Y021355D01*
X005171Y021646D02*
X005173Y021584D01*
X005179Y021523D01*
X005188Y021462D01*
X005202Y021401D01*
X005219Y021342D01*
X005240Y021284D01*
X005265Y021227D01*
X005293Y021172D01*
X005324Y021119D01*
X005359Y021068D01*
X005397Y021019D01*
X005438Y020972D01*
X005481Y020929D01*
X005528Y020888D01*
X005577Y020850D01*
X005628Y020815D01*
X005681Y020784D01*
X005736Y020756D01*
X005793Y020731D01*
X005851Y020710D01*
X005910Y020693D01*
X005971Y020679D01*
X006032Y020670D01*
X006093Y020664D01*
X006155Y020662D01*
X006447Y020954D02*
X006385Y020956D01*
X006324Y020962D01*
X006263Y020971D01*
X006202Y020985D01*
X006143Y021002D01*
X006085Y021023D01*
X006028Y021048D01*
X005973Y021076D01*
X005920Y021107D01*
X005869Y021142D01*
X005820Y021180D01*
X005773Y021221D01*
X005730Y021264D01*
X005689Y021311D01*
X005651Y021360D01*
X005616Y021411D01*
X005585Y021464D01*
X005557Y021519D01*
X005532Y021576D01*
X005511Y021634D01*
X005494Y021693D01*
X005480Y021754D01*
X005471Y021815D01*
X005465Y021876D01*
X005463Y021938D01*
X005754Y022229D02*
X005756Y022167D01*
X005762Y022106D01*
X005771Y022045D01*
X005785Y021984D01*
X005802Y021925D01*
X005823Y021867D01*
X005848Y021810D01*
X005876Y021755D01*
X005907Y021702D01*
X005942Y021651D01*
X005980Y021602D01*
X006021Y021555D01*
X006064Y021512D01*
X006111Y021471D01*
X006160Y021433D01*
X006211Y021398D01*
X006264Y021367D01*
X006319Y021339D01*
X006376Y021314D01*
X006434Y021293D01*
X006493Y021276D01*
X006554Y021262D01*
X006615Y021253D01*
X006676Y021247D01*
X006738Y021245D01*
X007029Y021536D02*
X006967Y021538D01*
X006906Y021544D01*
X006845Y021553D01*
X006784Y021567D01*
X006725Y021584D01*
X006667Y021605D01*
X006610Y021630D01*
X006555Y021658D01*
X006502Y021689D01*
X006451Y021724D01*
X006402Y021762D01*
X006355Y021803D01*
X006312Y021846D01*
X006271Y021893D01*
X006233Y021942D01*
X006198Y021993D01*
X006167Y022046D01*
X006139Y022101D01*
X006114Y022158D01*
X006093Y022216D01*
X006076Y022275D01*
X006062Y022336D01*
X006053Y022397D01*
X006047Y022458D01*
X006045Y022520D01*
X006337Y022812D02*
X006339Y022750D01*
X006345Y022689D01*
X006354Y022628D01*
X006368Y022567D01*
X006385Y022508D01*
X006406Y022450D01*
X006431Y022393D01*
X006459Y022338D01*
X006490Y022285D01*
X006525Y022234D01*
X006563Y022185D01*
X006604Y022138D01*
X006647Y022095D01*
X006694Y022054D01*
X006743Y022016D01*
X006794Y021981D01*
X006847Y021950D01*
X006902Y021922D01*
X006959Y021897D01*
X007017Y021876D01*
X007076Y021859D01*
X007137Y021845D01*
X007198Y021836D01*
X007259Y021830D01*
X007321Y021828D01*
X007612Y022119D02*
X007550Y022121D01*
X007489Y022127D01*
X007428Y022136D01*
X007367Y022150D01*
X007308Y022167D01*
X007250Y022188D01*
X007193Y022213D01*
X007138Y022241D01*
X007085Y022272D01*
X007034Y022307D01*
X006985Y022345D01*
X006938Y022386D01*
X006895Y022429D01*
X006854Y022476D01*
X006816Y022525D01*
X006781Y022576D01*
X006750Y022629D01*
X006722Y022684D01*
X006697Y022741D01*
X006676Y022799D01*
X006659Y022858D01*
X006645Y022919D01*
X006636Y022980D01*
X006630Y023041D01*
X006628Y023103D01*
X006919Y023394D02*
X006921Y023332D01*
X006927Y023271D01*
X006936Y023210D01*
X006950Y023149D01*
X006967Y023090D01*
X006988Y023032D01*
X007013Y022975D01*
X007041Y022920D01*
X007072Y022867D01*
X007107Y022816D01*
X007145Y022767D01*
X007186Y022720D01*
X007229Y022677D01*
X007276Y022636D01*
X007325Y022598D01*
X007376Y022563D01*
X007429Y022532D01*
X007484Y022504D01*
X007541Y022479D01*
X007599Y022458D01*
X007658Y022441D01*
X007719Y022427D01*
X007780Y022418D01*
X007841Y022412D01*
X007903Y022410D01*
X008195Y022702D02*
X008133Y022704D01*
X008072Y022710D01*
X008011Y022719D01*
X007950Y022733D01*
X007891Y022750D01*
X007833Y022771D01*
X007776Y022796D01*
X007721Y022824D01*
X007668Y022855D01*
X007617Y022890D01*
X007568Y022928D01*
X007521Y022969D01*
X007478Y023012D01*
X007437Y023059D01*
X007399Y023108D01*
X007364Y023159D01*
X007333Y023212D01*
X007305Y023267D01*
X007280Y023324D01*
X007259Y023382D01*
X007242Y023441D01*
X007228Y023502D01*
X007219Y023563D01*
X007213Y023624D01*
X007211Y023686D01*
X007502Y023977D02*
X007504Y023915D01*
X007510Y023854D01*
X007519Y023793D01*
X007533Y023732D01*
X007550Y023673D01*
X007571Y023615D01*
X007596Y023558D01*
X007624Y023503D01*
X007655Y023450D01*
X007690Y023399D01*
X007728Y023350D01*
X007769Y023303D01*
X007812Y023260D01*
X007859Y023219D01*
X007908Y023181D01*
X007959Y023146D01*
X008012Y023115D01*
X008067Y023087D01*
X008124Y023062D01*
X008182Y023041D01*
X008241Y023024D01*
X008302Y023010D01*
X008363Y023001D01*
X008424Y022995D01*
X008486Y022993D01*
X008778Y023284D02*
X008716Y023286D01*
X008655Y023292D01*
X008593Y023301D01*
X008533Y023315D01*
X008474Y023332D01*
X008415Y023353D01*
X008359Y023378D01*
X008303Y023406D01*
X008250Y023437D01*
X008199Y023472D01*
X008150Y023510D01*
X008104Y023551D01*
X008060Y023595D01*
X008019Y023641D01*
X007981Y023690D01*
X007946Y023741D01*
X007915Y023794D01*
X007887Y023850D01*
X007862Y023906D01*
X007841Y023965D01*
X007824Y024024D01*
X007810Y024084D01*
X007801Y024146D01*
X007795Y024207D01*
X007793Y024269D01*
X008085Y024560D02*
X008087Y024498D01*
X008093Y024437D01*
X008102Y024376D01*
X008116Y024315D01*
X008133Y024256D01*
X008154Y024198D01*
X008179Y024141D01*
X008207Y024086D01*
X008238Y024033D01*
X008273Y023982D01*
X008311Y023933D01*
X008352Y023886D01*
X008395Y023843D01*
X008442Y023802D01*
X008491Y023764D01*
X008542Y023729D01*
X008595Y023698D01*
X008650Y023670D01*
X008707Y023645D01*
X008765Y023624D01*
X008824Y023607D01*
X008885Y023593D01*
X008946Y023584D01*
X009007Y023578D01*
X009069Y023576D01*
X009360Y023867D02*
X009298Y023869D01*
X009237Y023875D01*
X009176Y023884D01*
X009115Y023898D01*
X009056Y023915D01*
X008998Y023936D01*
X008941Y023961D01*
X008886Y023989D01*
X008833Y024020D01*
X008782Y024055D01*
X008733Y024093D01*
X008686Y024134D01*
X008643Y024177D01*
X008602Y024224D01*
X008564Y024273D01*
X008529Y024324D01*
X008498Y024377D01*
X008470Y024432D01*
X008445Y024489D01*
X008424Y024547D01*
X008407Y024606D01*
X008393Y024667D01*
X008384Y024728D01*
X008378Y024789D01*
X008376Y024851D01*
X008667Y025143D02*
X008669Y025081D01*
X008675Y025020D01*
X008684Y024958D01*
X008698Y024898D01*
X008715Y024839D01*
X008736Y024780D01*
X008761Y024724D01*
X008789Y024668D01*
X008820Y024615D01*
X008855Y024564D01*
X008893Y024515D01*
X008934Y024469D01*
X008978Y024425D01*
X009024Y024384D01*
X009073Y024346D01*
X009124Y024311D01*
X009177Y024280D01*
X009233Y024252D01*
X009289Y024227D01*
X009348Y024206D01*
X009407Y024189D01*
X009467Y024175D01*
X009529Y024166D01*
X009590Y024160D01*
X009652Y024158D01*
X009943Y024450D02*
X009881Y024452D01*
X009820Y024458D01*
X009759Y024467D01*
X009698Y024481D01*
X009639Y024498D01*
X009581Y024519D01*
X009524Y024544D01*
X009469Y024572D01*
X009416Y024603D01*
X009365Y024638D01*
X009316Y024676D01*
X009269Y024717D01*
X009226Y024760D01*
X009185Y024807D01*
X009147Y024856D01*
X009112Y024907D01*
X009081Y024960D01*
X009053Y025015D01*
X009028Y025072D01*
X009007Y025130D01*
X008990Y025189D01*
X008976Y025250D01*
X008967Y025311D01*
X008961Y025372D01*
X008959Y025434D01*
X009250Y025725D02*
X009252Y025663D01*
X009258Y025602D01*
X009267Y025541D01*
X009281Y025480D01*
X009298Y025421D01*
X009319Y025363D01*
X009344Y025306D01*
X009372Y025251D01*
X009403Y025198D01*
X009438Y025147D01*
X009476Y025098D01*
X009517Y025051D01*
X009560Y025008D01*
X009607Y024967D01*
X009656Y024929D01*
X009707Y024894D01*
X009760Y024863D01*
X009815Y024835D01*
X009872Y024810D01*
X009930Y024789D01*
X009989Y024772D01*
X010050Y024758D01*
X010111Y024749D01*
X010172Y024743D01*
X010234Y024741D01*
X010526Y025032D02*
X010464Y025034D01*
X010403Y025040D01*
X010341Y025049D01*
X010281Y025063D01*
X010222Y025080D01*
X010163Y025101D01*
X010107Y025126D01*
X010051Y025154D01*
X009998Y025185D01*
X009947Y025220D01*
X009898Y025258D01*
X009852Y025299D01*
X009808Y025343D01*
X009767Y025389D01*
X009729Y025438D01*
X009694Y025489D01*
X009663Y025542D01*
X009635Y025598D01*
X009610Y025654D01*
X009589Y025713D01*
X009572Y025772D01*
X009558Y025832D01*
X009549Y025894D01*
X009543Y025955D01*
X009541Y026017D01*
X009833Y026308D02*
X009835Y026246D01*
X009841Y026185D01*
X009850Y026124D01*
X009864Y026063D01*
X009881Y026004D01*
X009902Y025946D01*
X009927Y025889D01*
X009955Y025834D01*
X009986Y025781D01*
X010021Y025730D01*
X010059Y025681D01*
X010100Y025634D01*
X010143Y025591D01*
X010190Y025550D01*
X010239Y025512D01*
X010290Y025477D01*
X010343Y025446D01*
X010398Y025418D01*
X010455Y025393D01*
X010513Y025372D01*
X010572Y025355D01*
X010633Y025341D01*
X010694Y025332D01*
X010755Y025326D01*
X010817Y025324D01*
X011108Y025615D02*
X011046Y025617D01*
X010985Y025623D01*
X010924Y025632D01*
X010863Y025646D01*
X010804Y025663D01*
X010746Y025684D01*
X010689Y025709D01*
X010634Y025737D01*
X010581Y025768D01*
X010530Y025803D01*
X010481Y025841D01*
X010434Y025882D01*
X010391Y025925D01*
X010350Y025972D01*
X010312Y026021D01*
X010277Y026072D01*
X010246Y026125D01*
X010218Y026180D01*
X010193Y026237D01*
X010172Y026295D01*
X010155Y026354D01*
X010141Y026415D01*
X010132Y026476D01*
X010126Y026537D01*
X010124Y026599D01*
X010415Y026891D02*
X010417Y026829D01*
X010423Y026768D01*
X010432Y026706D01*
X010446Y026646D01*
X010463Y026587D01*
X010484Y026528D01*
X010509Y026472D01*
X010537Y026416D01*
X010568Y026363D01*
X010603Y026312D01*
X010641Y026263D01*
X010682Y026217D01*
X010726Y026173D01*
X010772Y026132D01*
X010821Y026094D01*
X010872Y026059D01*
X010925Y026028D01*
X010981Y026000D01*
X011037Y025975D01*
X011096Y025954D01*
X011155Y025937D01*
X011215Y025923D01*
X011277Y025914D01*
X011338Y025908D01*
X011400Y025906D01*
X011691Y026198D02*
X011629Y026200D01*
X011568Y026206D01*
X011507Y026215D01*
X011446Y026229D01*
X011387Y026246D01*
X011329Y026267D01*
X011272Y026292D01*
X011217Y026320D01*
X011164Y026351D01*
X011113Y026386D01*
X011064Y026424D01*
X011017Y026465D01*
X010974Y026508D01*
X010933Y026555D01*
X010895Y026604D01*
X010860Y026655D01*
X010829Y026708D01*
X010801Y026763D01*
X010776Y026820D01*
X010755Y026878D01*
X010738Y026937D01*
X010724Y026998D01*
X010715Y027059D01*
X010709Y027120D01*
X010707Y027182D01*
X010998Y027473D02*
X011000Y027411D01*
X011006Y027350D01*
X011015Y027289D01*
X011029Y027228D01*
X011046Y027169D01*
X011067Y027111D01*
X011092Y027054D01*
X011120Y026999D01*
X011151Y026946D01*
X011186Y026895D01*
X011224Y026846D01*
X011265Y026799D01*
X011308Y026756D01*
X011355Y026715D01*
X011404Y026677D01*
X011455Y026642D01*
X011508Y026611D01*
X011563Y026583D01*
X011620Y026558D01*
X011678Y026537D01*
X011737Y026520D01*
X011798Y026506D01*
X011859Y026497D01*
X011920Y026491D01*
X011982Y026489D01*
X012274Y026780D02*
X012212Y026782D01*
X012151Y026788D01*
X012089Y026797D01*
X012029Y026811D01*
X011970Y026828D01*
X011911Y026849D01*
X011855Y026874D01*
X011799Y026902D01*
X011746Y026933D01*
X011695Y026968D01*
X011646Y027006D01*
X011600Y027047D01*
X011556Y027091D01*
X011515Y027137D01*
X011477Y027186D01*
X011442Y027237D01*
X011411Y027290D01*
X011383Y027346D01*
X011358Y027402D01*
X011337Y027461D01*
X011320Y027520D01*
X011306Y027580D01*
X011297Y027642D01*
X011291Y027703D01*
X011289Y027765D01*
X011581Y028056D02*
X011583Y027994D01*
X011589Y027933D01*
X011598Y027872D01*
X011612Y027811D01*
X011629Y027752D01*
X011650Y027694D01*
X011675Y027637D01*
X011703Y027582D01*
X011734Y027529D01*
X011769Y027478D01*
X011807Y027429D01*
X011848Y027382D01*
X011891Y027339D01*
X011938Y027298D01*
X011987Y027260D01*
X012038Y027225D01*
X012091Y027194D01*
X012146Y027166D01*
X012203Y027141D01*
X012261Y027120D01*
X012320Y027103D01*
X012381Y027089D01*
X012442Y027080D01*
X012503Y027074D01*
X012565Y027072D01*
X011872Y034316D02*
X011874Y034378D01*
X011880Y034439D01*
X011889Y034500D01*
X011903Y034561D01*
X011920Y034620D01*
X011941Y034678D01*
X011966Y034735D01*
X011994Y034790D01*
X012025Y034843D01*
X012060Y034894D01*
X012098Y034943D01*
X012139Y034990D01*
X012182Y035033D01*
X012229Y035074D01*
X012278Y035112D01*
X012329Y035147D01*
X012382Y035178D01*
X012437Y035206D01*
X012494Y035231D01*
X012552Y035252D01*
X012611Y035269D01*
X012672Y035283D01*
X012733Y035292D01*
X012794Y035298D01*
X012856Y035300D01*
X015541Y035300D01*
X015541Y035299D01*
X015833Y035591D02*
X012565Y035591D01*
X012274Y035883D02*
X016124Y035883D01*
X016415Y036173D02*
X016415Y036174D01*
X011982Y036174D01*
X011691Y036465D02*
X016707Y036465D01*
X016998Y036757D02*
X011400Y036757D01*
X011108Y037048D02*
X017289Y037048D01*
X017289Y037047D01*
X017289Y037047D01*
X017289Y037048D01*
X017581Y037339D02*
X010817Y037339D01*
X010526Y037631D02*
X017872Y037631D01*
X018163Y037921D02*
X018163Y037921D01*
X018163Y037922D01*
X018163Y037921D01*
X018163Y037922D02*
X010234Y037922D01*
X009943Y038213D02*
X018455Y038213D01*
X018746Y038505D02*
X009652Y038505D01*
X009360Y038796D02*
X019037Y038796D01*
X019037Y038795D01*
X019329Y039087D02*
X009069Y039087D01*
X008778Y039379D02*
X019620Y039379D01*
X019911Y039669D02*
X019911Y039670D01*
X008486Y039670D01*
X008195Y039961D02*
X020203Y039961D01*
X020494Y040253D02*
X007903Y040253D01*
X007612Y040544D02*
X020785Y040544D01*
X020785Y040543D01*
X021077Y040835D02*
X007321Y040835D01*
X007029Y041127D02*
X021368Y041127D01*
X021659Y041417D02*
X021659Y041418D01*
X006738Y041418D01*
X006447Y041709D02*
X021951Y041709D01*
X021659Y041418D02*
X021659Y041417D01*
X021659Y041417D01*
X022242Y042001D02*
X022304Y041999D01*
X022365Y041993D01*
X022426Y041984D01*
X022487Y041970D01*
X022546Y041953D01*
X022604Y041932D01*
X022661Y041907D01*
X022716Y041879D01*
X022769Y041848D01*
X022820Y041813D01*
X022869Y041775D01*
X022916Y041734D01*
X022959Y041691D01*
X023000Y041644D01*
X023038Y041595D01*
X023073Y041544D01*
X023104Y041491D01*
X023132Y041436D01*
X023157Y041379D01*
X023178Y041321D01*
X023195Y041262D01*
X023209Y041201D01*
X023218Y041140D01*
X023224Y041079D01*
X023226Y041017D01*
X023809Y041599D02*
X023807Y041661D01*
X023801Y041722D01*
X023792Y041783D01*
X023778Y041844D01*
X023761Y041903D01*
X023740Y041961D01*
X023715Y042018D01*
X023687Y042073D01*
X023656Y042126D01*
X023621Y042177D01*
X023583Y042226D01*
X023542Y042273D01*
X023499Y042316D01*
X023452Y042357D01*
X023403Y042395D01*
X023352Y042430D01*
X023299Y042461D01*
X023244Y042489D01*
X023187Y042514D01*
X023129Y042535D01*
X023070Y042552D01*
X023009Y042566D01*
X022948Y042575D01*
X022887Y042581D01*
X022825Y042583D01*
X005573Y042583D01*
X005864Y042292D02*
X022533Y042292D01*
X022533Y042291D01*
X022533Y042291D01*
X022533Y042291D01*
X022242Y042001D02*
X006155Y042001D01*
X005573Y042583D02*
X005511Y042581D01*
X005450Y042575D01*
X005389Y042566D01*
X005328Y042552D01*
X005269Y042535D01*
X005211Y042514D01*
X005154Y042489D01*
X005099Y042461D01*
X005046Y042430D01*
X004995Y042395D01*
X004946Y042357D01*
X004899Y042316D01*
X004856Y042273D01*
X004815Y042226D01*
X004777Y042177D01*
X004742Y042126D01*
X004711Y042073D01*
X004683Y042018D01*
X004658Y041961D01*
X004637Y041903D01*
X004620Y041844D01*
X004606Y041783D01*
X004597Y041722D01*
X004591Y041661D01*
X004589Y041599D01*
X004006Y042182D02*
X004008Y042244D01*
X004014Y042305D01*
X004023Y042366D01*
X004037Y042427D01*
X004054Y042486D01*
X004075Y042544D01*
X004100Y042601D01*
X004128Y042656D01*
X004159Y042709D01*
X004194Y042760D01*
X004232Y042809D01*
X004273Y042856D01*
X004316Y042899D01*
X004363Y042940D01*
X004412Y042978D01*
X004463Y043013D01*
X004516Y043044D01*
X004571Y043072D01*
X004628Y043097D01*
X004686Y043118D01*
X004745Y043135D01*
X004806Y043149D01*
X004867Y043158D01*
X004928Y043164D01*
X004990Y043166D01*
X023407Y043166D01*
X023407Y043165D01*
X023116Y042875D02*
X005281Y042875D01*
X004699Y043457D02*
X004637Y043455D01*
X004576Y043449D01*
X004515Y043440D01*
X004454Y043426D01*
X004395Y043409D01*
X004337Y043388D01*
X004280Y043363D01*
X004225Y043335D01*
X004172Y043304D01*
X004121Y043269D01*
X004072Y043231D01*
X004025Y043190D01*
X003982Y043147D01*
X003941Y043100D01*
X003903Y043051D01*
X003868Y043000D01*
X003837Y042947D01*
X003809Y042892D01*
X003784Y042835D01*
X003763Y042777D01*
X003746Y042718D01*
X003732Y042657D01*
X003723Y042596D01*
X003717Y042535D01*
X003715Y042473D01*
X003132Y043056D02*
X003134Y043118D01*
X003140Y043179D01*
X003149Y043240D01*
X003163Y043301D01*
X003180Y043360D01*
X003201Y043418D01*
X003226Y043475D01*
X003254Y043530D01*
X003285Y043583D01*
X003320Y043634D01*
X003358Y043683D01*
X003399Y043730D01*
X003442Y043773D01*
X003489Y043814D01*
X003538Y043852D01*
X003589Y043887D01*
X003642Y043918D01*
X003697Y043946D01*
X003754Y043971D01*
X003812Y043992D01*
X003871Y044009D01*
X003932Y044023D01*
X003993Y044032D01*
X004054Y044038D01*
X004116Y044040D01*
X024281Y044040D01*
X024281Y044039D01*
X023990Y043749D02*
X004407Y043749D01*
X004699Y043457D02*
X023699Y043457D01*
X024281Y044039D02*
X024343Y044037D01*
X024404Y044031D01*
X024465Y044022D01*
X024526Y044008D01*
X024585Y043991D01*
X024643Y043970D01*
X024700Y043946D01*
X024755Y043918D01*
X024808Y043886D01*
X024860Y043852D01*
X024908Y043814D01*
X024955Y043773D01*
X024999Y043729D01*
X025040Y043683D01*
X025077Y043634D01*
X025112Y043583D01*
X025144Y043530D01*
X025172Y043475D01*
X025197Y043418D01*
X025218Y043360D01*
X025235Y043301D01*
X025248Y043240D01*
X025258Y043179D01*
X025264Y043118D01*
X025266Y043056D01*
X025848Y043639D02*
X025846Y043701D01*
X025840Y043762D01*
X025831Y043823D01*
X025817Y043884D01*
X025800Y043943D01*
X025779Y044001D01*
X025754Y044058D01*
X025726Y044113D01*
X025695Y044166D01*
X025660Y044217D01*
X025622Y044266D01*
X025581Y044313D01*
X025538Y044356D01*
X025491Y044397D01*
X025442Y044435D01*
X025391Y044470D01*
X025338Y044501D01*
X025283Y044529D01*
X025226Y044554D01*
X025168Y044575D01*
X025109Y044592D01*
X025048Y044606D01*
X024987Y044615D01*
X024926Y044621D01*
X024864Y044623D01*
X003533Y044623D01*
X003242Y044914D02*
X025155Y044914D01*
X025155Y044913D01*
X025447Y045206D02*
X002951Y045206D01*
X002659Y045497D02*
X025738Y045497D01*
X026029Y045787D02*
X026029Y045788D01*
X002368Y045788D01*
X002077Y046080D02*
X026321Y046080D01*
X026612Y046371D02*
X001785Y046371D01*
X001494Y046662D02*
X026903Y046662D01*
X026903Y046661D01*
X026903Y046661D01*
X026903Y046661D01*
X026965Y046659D01*
X027026Y046653D01*
X027087Y046644D01*
X027148Y046630D01*
X027207Y046613D01*
X027265Y046592D01*
X027322Y046568D01*
X027377Y046540D01*
X027430Y046508D01*
X027482Y046474D01*
X027530Y046436D01*
X027577Y046395D01*
X027621Y046351D01*
X027662Y046305D01*
X027699Y046256D01*
X027734Y046205D01*
X027766Y046152D01*
X027794Y046097D01*
X027819Y046040D01*
X027840Y045982D01*
X027857Y045923D01*
X027870Y045862D01*
X027880Y045801D01*
X027886Y045740D01*
X027888Y045678D01*
X027596Y045387D02*
X027594Y045449D01*
X027588Y045510D01*
X027579Y045571D01*
X027565Y045632D01*
X027548Y045691D01*
X027527Y045749D01*
X027502Y045806D01*
X027474Y045861D01*
X027443Y045914D01*
X027408Y045965D01*
X027370Y046014D01*
X027329Y046061D01*
X027286Y046104D01*
X027239Y046145D01*
X027190Y046183D01*
X027139Y046218D01*
X027086Y046249D01*
X027031Y046277D01*
X026974Y046302D01*
X026916Y046323D01*
X026857Y046340D01*
X026796Y046354D01*
X026735Y046363D01*
X026674Y046369D01*
X026612Y046371D01*
X026029Y045788D02*
X026029Y045787D01*
X026029Y045787D01*
X026321Y046080D02*
X026383Y046078D01*
X026444Y046072D01*
X026505Y046062D01*
X026566Y046049D01*
X026625Y046032D01*
X026683Y046011D01*
X026740Y045986D01*
X026795Y045958D01*
X026848Y045926D01*
X026899Y045892D01*
X026948Y045854D01*
X026995Y045813D01*
X027038Y045769D01*
X027079Y045723D01*
X027117Y045674D01*
X027152Y045622D01*
X027183Y045569D01*
X027211Y045514D01*
X027236Y045457D01*
X027257Y045399D01*
X027274Y045340D01*
X027288Y045279D01*
X027297Y045218D01*
X027303Y045157D01*
X027305Y045095D01*
X027014Y044804D02*
X027012Y044866D01*
X027006Y044927D01*
X026996Y044988D01*
X026983Y045049D01*
X026966Y045108D01*
X026945Y045166D01*
X026920Y045223D01*
X026892Y045278D01*
X026860Y045331D01*
X026825Y045382D01*
X026788Y045431D01*
X026747Y045477D01*
X026703Y045521D01*
X026656Y045562D01*
X026608Y045600D01*
X026556Y045634D01*
X026503Y045666D01*
X026448Y045694D01*
X026391Y045718D01*
X026333Y045739D01*
X026274Y045756D01*
X026213Y045770D01*
X026152Y045779D01*
X026091Y045785D01*
X026029Y045787D01*
X025738Y045497D02*
X025800Y045495D01*
X025861Y045489D01*
X025922Y045480D01*
X025983Y045466D01*
X026042Y045449D01*
X026100Y045428D01*
X026157Y045403D01*
X026212Y045375D01*
X026265Y045344D01*
X026316Y045309D01*
X026365Y045271D01*
X026412Y045230D01*
X026455Y045187D01*
X026496Y045140D01*
X026534Y045091D01*
X026569Y045040D01*
X026600Y044987D01*
X026628Y044932D01*
X026653Y044875D01*
X026674Y044817D01*
X026691Y044758D01*
X026705Y044697D01*
X026714Y044636D01*
X026720Y044575D01*
X026722Y044513D01*
X026431Y044221D02*
X026429Y044283D01*
X026423Y044344D01*
X026414Y044405D01*
X026400Y044466D01*
X026383Y044525D01*
X026362Y044583D01*
X026337Y044640D01*
X026309Y044695D01*
X026278Y044748D01*
X026243Y044800D01*
X026205Y044849D01*
X026164Y044895D01*
X026121Y044939D01*
X026074Y044980D01*
X026025Y045018D01*
X025974Y045052D01*
X025921Y045084D01*
X025866Y045112D01*
X025809Y045137D01*
X025751Y045158D01*
X025692Y045175D01*
X025631Y045188D01*
X025570Y045198D01*
X025509Y045204D01*
X025447Y045206D01*
X024573Y044331D02*
X003825Y044331D01*
X003242Y044914D02*
X003180Y044912D01*
X003119Y044906D01*
X003058Y044897D01*
X002997Y044883D01*
X002938Y044866D01*
X002880Y044845D01*
X002823Y044820D01*
X002768Y044792D01*
X002715Y044761D01*
X002664Y044726D01*
X002615Y044688D01*
X002568Y044647D01*
X002525Y044604D01*
X002484Y044557D01*
X002446Y044508D01*
X002411Y044457D01*
X002380Y044404D01*
X002352Y044349D01*
X002327Y044292D01*
X002306Y044234D01*
X002289Y044175D01*
X002275Y044114D01*
X002266Y044053D01*
X002260Y043992D01*
X002258Y043930D01*
X001675Y044513D02*
X001677Y044575D01*
X001683Y044636D01*
X001692Y044697D01*
X001706Y044758D01*
X001723Y044817D01*
X001744Y044875D01*
X001769Y044932D01*
X001797Y044987D01*
X001828Y045040D01*
X001863Y045091D01*
X001901Y045140D01*
X001942Y045187D01*
X001985Y045230D01*
X002032Y045271D01*
X002081Y045309D01*
X002132Y045344D01*
X002185Y045375D01*
X002240Y045403D01*
X002297Y045428D01*
X002355Y045449D01*
X002414Y045466D01*
X002475Y045480D01*
X002536Y045489D01*
X002597Y045495D01*
X002659Y045497D01*
X002077Y046080D02*
X002015Y046078D01*
X001954Y046072D01*
X001892Y046063D01*
X001832Y046049D01*
X001773Y046032D01*
X001714Y046011D01*
X001658Y045986D01*
X001602Y045958D01*
X001549Y045927D01*
X001498Y045892D01*
X001449Y045854D01*
X001403Y045813D01*
X001359Y045769D01*
X001318Y045723D01*
X001280Y045674D01*
X001245Y045623D01*
X001214Y045570D01*
X001186Y045514D01*
X001161Y045458D01*
X001140Y045399D01*
X001123Y045340D01*
X001109Y045280D01*
X001100Y045218D01*
X001094Y045157D01*
X001092Y045095D01*
X000510Y045678D02*
X000512Y045740D01*
X000518Y045801D01*
X000527Y045862D01*
X000541Y045923D01*
X000558Y045982D01*
X000579Y046040D01*
X000604Y046097D01*
X000632Y046152D01*
X000663Y046205D01*
X000698Y046256D01*
X000736Y046305D01*
X000777Y046352D01*
X000820Y046395D01*
X000867Y046436D01*
X000916Y046474D01*
X000967Y046509D01*
X001020Y046540D01*
X001075Y046568D01*
X001132Y046593D01*
X001190Y046614D01*
X001249Y046631D01*
X001310Y046645D01*
X001371Y046654D01*
X001432Y046660D01*
X001494Y046662D01*
X001785Y046371D02*
X001723Y046369D01*
X001662Y046363D01*
X001601Y046354D01*
X001540Y046340D01*
X001481Y046323D01*
X001423Y046302D01*
X001366Y046277D01*
X001311Y046249D01*
X001258Y046218D01*
X001207Y046183D01*
X001158Y046145D01*
X001111Y046104D01*
X001068Y046061D01*
X001027Y046014D01*
X000989Y045965D01*
X000954Y045914D01*
X000923Y045861D01*
X000895Y045806D01*
X000870Y045749D01*
X000849Y045691D01*
X000832Y045632D01*
X000818Y045571D01*
X000809Y045510D01*
X000803Y045449D01*
X000801Y045387D01*
X001384Y044804D02*
X001386Y044866D01*
X001392Y044927D01*
X001401Y044988D01*
X001415Y045049D01*
X001432Y045108D01*
X001453Y045166D01*
X001478Y045223D01*
X001506Y045278D01*
X001537Y045331D01*
X001572Y045382D01*
X001610Y045431D01*
X001651Y045478D01*
X001694Y045521D01*
X001741Y045562D01*
X001790Y045600D01*
X001841Y045635D01*
X001894Y045666D01*
X001949Y045694D01*
X002006Y045719D01*
X002064Y045740D01*
X002123Y045757D01*
X002184Y045771D01*
X002245Y045780D01*
X002306Y045786D01*
X002368Y045788D01*
X002951Y045206D02*
X002889Y045204D01*
X002828Y045198D01*
X002766Y045189D01*
X002706Y045175D01*
X002647Y045158D01*
X002588Y045137D01*
X002532Y045112D01*
X002476Y045084D01*
X002423Y045053D01*
X002372Y045018D01*
X002323Y044980D01*
X002277Y044939D01*
X002233Y044895D01*
X002192Y044849D01*
X002154Y044800D01*
X002119Y044749D01*
X002088Y044696D01*
X002060Y044640D01*
X002035Y044584D01*
X002014Y044525D01*
X001997Y044466D01*
X001983Y044406D01*
X001974Y044344D01*
X001968Y044283D01*
X001966Y044221D01*
X002549Y043639D02*
X002551Y043701D01*
X002557Y043762D01*
X002566Y043823D01*
X002580Y043884D01*
X002597Y043943D01*
X002618Y044001D01*
X002643Y044058D01*
X002671Y044113D01*
X002702Y044166D01*
X002737Y044217D01*
X002775Y044266D01*
X002816Y044313D01*
X002859Y044356D01*
X002906Y044397D01*
X002955Y044435D01*
X003006Y044470D01*
X003059Y044501D01*
X003114Y044529D01*
X003171Y044554D01*
X003229Y044575D01*
X003288Y044592D01*
X003349Y044606D01*
X003410Y044615D01*
X003471Y044621D01*
X003533Y044623D01*
X003825Y044331D02*
X003763Y044329D01*
X003702Y044323D01*
X003641Y044314D01*
X003580Y044300D01*
X003521Y044283D01*
X003463Y044262D01*
X003406Y044237D01*
X003351Y044209D01*
X003298Y044178D01*
X003246Y044143D01*
X003197Y044105D01*
X003151Y044064D01*
X003107Y044021D01*
X003066Y043974D01*
X003028Y043925D01*
X002994Y043874D01*
X002962Y043821D01*
X002934Y043766D01*
X002909Y043709D01*
X002888Y043651D01*
X002871Y043592D01*
X002858Y043531D01*
X002848Y043470D01*
X002842Y043409D01*
X002840Y043347D01*
X003423Y042765D02*
X003425Y042827D01*
X003431Y042888D01*
X003440Y042949D01*
X003454Y043010D01*
X003471Y043069D01*
X003492Y043127D01*
X003517Y043184D01*
X003545Y043239D01*
X003576Y043292D01*
X003611Y043343D01*
X003649Y043392D01*
X003690Y043439D01*
X003733Y043482D01*
X003780Y043523D01*
X003829Y043561D01*
X003880Y043596D01*
X003933Y043627D01*
X003988Y043655D01*
X004045Y043680D01*
X004103Y043701D01*
X004162Y043718D01*
X004223Y043732D01*
X004284Y043741D01*
X004345Y043747D01*
X004407Y043749D01*
X005281Y042875D02*
X005219Y042873D01*
X005158Y042867D01*
X005097Y042858D01*
X005036Y042844D01*
X004977Y042827D01*
X004919Y042806D01*
X004862Y042781D01*
X004807Y042753D01*
X004754Y042722D01*
X004703Y042687D01*
X004654Y042649D01*
X004607Y042608D01*
X004564Y042565D01*
X004523Y042518D01*
X004485Y042469D01*
X004450Y042418D01*
X004419Y042365D01*
X004391Y042310D01*
X004366Y042253D01*
X004345Y042195D01*
X004328Y042136D01*
X004314Y042075D01*
X004305Y042014D01*
X004299Y041953D01*
X004297Y041891D01*
X004880Y041308D02*
X004882Y041370D01*
X004888Y041431D01*
X004897Y041492D01*
X004911Y041553D01*
X004928Y041612D01*
X004949Y041670D01*
X004974Y041727D01*
X005002Y041782D01*
X005033Y041835D01*
X005068Y041886D01*
X005106Y041935D01*
X005147Y041982D01*
X005190Y042025D01*
X005237Y042066D01*
X005286Y042104D01*
X005337Y042139D01*
X005390Y042170D01*
X005445Y042198D01*
X005502Y042223D01*
X005560Y042244D01*
X005619Y042261D01*
X005680Y042275D01*
X005741Y042284D01*
X005802Y042290D01*
X005864Y042292D01*
X006155Y042001D02*
X006093Y041999D01*
X006032Y041993D01*
X005971Y041984D01*
X005910Y041970D01*
X005851Y041953D01*
X005793Y041932D01*
X005736Y041907D01*
X005681Y041879D01*
X005628Y041848D01*
X005577Y041813D01*
X005528Y041775D01*
X005481Y041734D01*
X005438Y041691D01*
X005397Y041644D01*
X005359Y041595D01*
X005324Y041544D01*
X005293Y041491D01*
X005265Y041436D01*
X005240Y041379D01*
X005219Y041321D01*
X005202Y041262D01*
X005188Y041201D01*
X005179Y041140D01*
X005173Y041079D01*
X005171Y041017D01*
X005463Y040725D02*
X005465Y040787D01*
X005471Y040848D01*
X005480Y040909D01*
X005494Y040970D01*
X005511Y041029D01*
X005532Y041087D01*
X005557Y041144D01*
X005585Y041199D01*
X005616Y041252D01*
X005651Y041303D01*
X005689Y041352D01*
X005730Y041399D01*
X005773Y041442D01*
X005820Y041483D01*
X005869Y041521D01*
X005920Y041556D01*
X005973Y041587D01*
X006028Y041615D01*
X006085Y041640D01*
X006143Y041661D01*
X006202Y041678D01*
X006263Y041692D01*
X006324Y041701D01*
X006385Y041707D01*
X006447Y041709D01*
X006738Y041418D02*
X006676Y041416D01*
X006615Y041410D01*
X006554Y041401D01*
X006493Y041387D01*
X006434Y041370D01*
X006376Y041349D01*
X006319Y041324D01*
X006264Y041296D01*
X006211Y041265D01*
X006160Y041230D01*
X006111Y041192D01*
X006064Y041151D01*
X006021Y041108D01*
X005980Y041061D01*
X005942Y041012D01*
X005907Y040961D01*
X005876Y040908D01*
X005848Y040853D01*
X005823Y040796D01*
X005802Y040738D01*
X005785Y040679D01*
X005771Y040618D01*
X005762Y040557D01*
X005756Y040496D01*
X005754Y040434D01*
X006045Y040143D02*
X006047Y040205D01*
X006053Y040266D01*
X006062Y040327D01*
X006076Y040388D01*
X006093Y040447D01*
X006114Y040505D01*
X006139Y040562D01*
X006167Y040617D01*
X006198Y040670D01*
X006233Y040721D01*
X006271Y040770D01*
X006312Y040817D01*
X006355Y040860D01*
X006402Y040901D01*
X006451Y040939D01*
X006502Y040974D01*
X006555Y041005D01*
X006610Y041033D01*
X006667Y041058D01*
X006725Y041079D01*
X006784Y041096D01*
X006845Y041110D01*
X006906Y041119D01*
X006967Y041125D01*
X007029Y041127D01*
X007321Y040835D02*
X007259Y040833D01*
X007198Y040827D01*
X007137Y040818D01*
X007076Y040804D01*
X007017Y040787D01*
X006959Y040766D01*
X006902Y040741D01*
X006847Y040713D01*
X006794Y040682D01*
X006743Y040647D01*
X006694Y040609D01*
X006647Y040568D01*
X006604Y040525D01*
X006563Y040478D01*
X006525Y040429D01*
X006490Y040378D01*
X006459Y040325D01*
X006431Y040270D01*
X006406Y040213D01*
X006385Y040155D01*
X006368Y040096D01*
X006354Y040035D01*
X006345Y039974D01*
X006339Y039913D01*
X006337Y039851D01*
X006628Y039560D02*
X006630Y039622D01*
X006636Y039683D01*
X006645Y039744D01*
X006659Y039805D01*
X006676Y039864D01*
X006697Y039922D01*
X006722Y039979D01*
X006750Y040034D01*
X006781Y040087D01*
X006816Y040138D01*
X006854Y040187D01*
X006895Y040234D01*
X006938Y040277D01*
X006985Y040318D01*
X007034Y040356D01*
X007085Y040391D01*
X007138Y040422D01*
X007193Y040450D01*
X007250Y040475D01*
X007308Y040496D01*
X007367Y040513D01*
X007428Y040527D01*
X007489Y040536D01*
X007550Y040542D01*
X007612Y040544D01*
X007903Y040253D02*
X007841Y040251D01*
X007780Y040245D01*
X007719Y040236D01*
X007658Y040222D01*
X007599Y040205D01*
X007541Y040184D01*
X007484Y040159D01*
X007429Y040131D01*
X007376Y040100D01*
X007325Y040065D01*
X007276Y040027D01*
X007229Y039986D01*
X007186Y039943D01*
X007145Y039896D01*
X007107Y039847D01*
X007072Y039796D01*
X007041Y039743D01*
X007013Y039688D01*
X006988Y039631D01*
X006967Y039573D01*
X006950Y039514D01*
X006936Y039453D01*
X006927Y039392D01*
X006921Y039331D01*
X006919Y039269D01*
X007211Y038977D02*
X007213Y039039D01*
X007219Y039100D01*
X007228Y039161D01*
X007242Y039222D01*
X007259Y039281D01*
X007280Y039339D01*
X007305Y039396D01*
X007333Y039451D01*
X007364Y039504D01*
X007399Y039555D01*
X007437Y039604D01*
X007478Y039651D01*
X007521Y039694D01*
X007568Y039735D01*
X007617Y039773D01*
X007668Y039808D01*
X007721Y039839D01*
X007776Y039867D01*
X007833Y039892D01*
X007891Y039913D01*
X007950Y039930D01*
X008011Y039944D01*
X008072Y039953D01*
X008133Y039959D01*
X008195Y039961D01*
X008486Y039670D02*
X008424Y039668D01*
X008363Y039662D01*
X008302Y039653D01*
X008241Y039639D01*
X008182Y039622D01*
X008124Y039601D01*
X008067Y039576D01*
X008012Y039548D01*
X007959Y039517D01*
X007908Y039482D01*
X007859Y039444D01*
X007812Y039403D01*
X007769Y039360D01*
X007728Y039313D01*
X007690Y039264D01*
X007655Y039213D01*
X007624Y039160D01*
X007596Y039105D01*
X007571Y039048D01*
X007550Y038990D01*
X007533Y038931D01*
X007519Y038870D01*
X007510Y038809D01*
X007504Y038748D01*
X007502Y038686D01*
X007793Y038394D02*
X007795Y038456D01*
X007801Y038517D01*
X007810Y038579D01*
X007824Y038639D01*
X007841Y038698D01*
X007862Y038757D01*
X007887Y038813D01*
X007915Y038869D01*
X007946Y038922D01*
X007981Y038973D01*
X008019Y039022D01*
X008060Y039068D01*
X008104Y039112D01*
X008150Y039153D01*
X008199Y039191D01*
X008250Y039226D01*
X008303Y039257D01*
X008359Y039285D01*
X008415Y039310D01*
X008474Y039331D01*
X008533Y039348D01*
X008593Y039362D01*
X008655Y039371D01*
X008716Y039377D01*
X008778Y039379D01*
X009069Y039087D02*
X009007Y039085D01*
X008946Y039079D01*
X008885Y039070D01*
X008824Y039056D01*
X008765Y039039D01*
X008707Y039018D01*
X008650Y038993D01*
X008595Y038965D01*
X008542Y038934D01*
X008491Y038899D01*
X008442Y038861D01*
X008395Y038820D01*
X008352Y038777D01*
X008311Y038730D01*
X008273Y038681D01*
X008238Y038630D01*
X008207Y038577D01*
X008179Y038522D01*
X008154Y038465D01*
X008133Y038407D01*
X008116Y038348D01*
X008102Y038287D01*
X008093Y038226D01*
X008087Y038165D01*
X008085Y038103D01*
X008376Y037812D02*
X008378Y037874D01*
X008384Y037935D01*
X008393Y037996D01*
X008407Y038057D01*
X008424Y038116D01*
X008445Y038174D01*
X008470Y038231D01*
X008498Y038286D01*
X008529Y038339D01*
X008564Y038390D01*
X008602Y038439D01*
X008643Y038486D01*
X008686Y038529D01*
X008733Y038570D01*
X008782Y038608D01*
X008833Y038643D01*
X008886Y038674D01*
X008941Y038702D01*
X008998Y038727D01*
X009056Y038748D01*
X009115Y038765D01*
X009176Y038779D01*
X009237Y038788D01*
X009298Y038794D01*
X009360Y038796D01*
X009652Y038505D02*
X009590Y038503D01*
X009529Y038497D01*
X009467Y038488D01*
X009407Y038474D01*
X009348Y038457D01*
X009289Y038436D01*
X009233Y038411D01*
X009177Y038383D01*
X009124Y038352D01*
X009073Y038317D01*
X009024Y038279D01*
X008978Y038238D01*
X008934Y038194D01*
X008893Y038148D01*
X008855Y038099D01*
X008820Y038048D01*
X008789Y037995D01*
X008761Y037939D01*
X008736Y037883D01*
X008715Y037824D01*
X008698Y037765D01*
X008684Y037705D01*
X008675Y037643D01*
X008669Y037582D01*
X008667Y037520D01*
X008959Y037229D02*
X008961Y037291D01*
X008967Y037352D01*
X008976Y037413D01*
X008990Y037474D01*
X009007Y037533D01*
X009028Y037591D01*
X009053Y037648D01*
X009081Y037703D01*
X009112Y037756D01*
X009147Y037807D01*
X009185Y037856D01*
X009226Y037903D01*
X009269Y037946D01*
X009316Y037987D01*
X009365Y038025D01*
X009416Y038060D01*
X009469Y038091D01*
X009524Y038119D01*
X009581Y038144D01*
X009639Y038165D01*
X009698Y038182D01*
X009759Y038196D01*
X009820Y038205D01*
X009881Y038211D01*
X009943Y038213D01*
X010234Y037922D02*
X010172Y037920D01*
X010111Y037914D01*
X010050Y037905D01*
X009989Y037891D01*
X009930Y037874D01*
X009872Y037853D01*
X009815Y037828D01*
X009760Y037800D01*
X009707Y037769D01*
X009656Y037734D01*
X009607Y037696D01*
X009560Y037655D01*
X009517Y037612D01*
X009476Y037565D01*
X009438Y037516D01*
X009403Y037465D01*
X009372Y037412D01*
X009344Y037357D01*
X009319Y037300D01*
X009298Y037242D01*
X009281Y037183D01*
X009267Y037122D01*
X009258Y037061D01*
X009252Y037000D01*
X009250Y036938D01*
X009541Y036646D02*
X009543Y036708D01*
X009549Y036769D01*
X009558Y036831D01*
X009572Y036891D01*
X009589Y036950D01*
X009610Y037009D01*
X009635Y037065D01*
X009663Y037121D01*
X009694Y037174D01*
X009729Y037225D01*
X009767Y037274D01*
X009808Y037320D01*
X009852Y037364D01*
X009898Y037405D01*
X009947Y037443D01*
X009998Y037478D01*
X010051Y037509D01*
X010107Y037537D01*
X010163Y037562D01*
X010222Y037583D01*
X010281Y037600D01*
X010341Y037614D01*
X010403Y037623D01*
X010464Y037629D01*
X010526Y037631D01*
X010817Y037339D02*
X010755Y037337D01*
X010694Y037331D01*
X010633Y037322D01*
X010572Y037308D01*
X010513Y037291D01*
X010455Y037270D01*
X010398Y037245D01*
X010343Y037217D01*
X010290Y037186D01*
X010239Y037151D01*
X010190Y037113D01*
X010143Y037072D01*
X010100Y037029D01*
X010059Y036982D01*
X010021Y036933D01*
X009986Y036882D01*
X009955Y036829D01*
X009927Y036774D01*
X009902Y036717D01*
X009881Y036659D01*
X009864Y036600D01*
X009850Y036539D01*
X009841Y036478D01*
X009835Y036417D01*
X009833Y036355D01*
X010124Y036064D02*
X010126Y036126D01*
X010132Y036187D01*
X010141Y036248D01*
X010155Y036309D01*
X010172Y036368D01*
X010193Y036426D01*
X010218Y036483D01*
X010246Y036538D01*
X010277Y036591D01*
X010312Y036642D01*
X010350Y036691D01*
X010391Y036738D01*
X010434Y036781D01*
X010481Y036822D01*
X010530Y036860D01*
X010581Y036895D01*
X010634Y036926D01*
X010689Y036954D01*
X010746Y036979D01*
X010804Y037000D01*
X010863Y037017D01*
X010924Y037031D01*
X010985Y037040D01*
X011046Y037046D01*
X011108Y037048D01*
X011400Y036757D02*
X011338Y036755D01*
X011277Y036749D01*
X011215Y036740D01*
X011155Y036726D01*
X011096Y036709D01*
X011037Y036688D01*
X010981Y036663D01*
X010925Y036635D01*
X010872Y036604D01*
X010821Y036569D01*
X010772Y036531D01*
X010726Y036490D01*
X010682Y036446D01*
X010641Y036400D01*
X010603Y036351D01*
X010568Y036300D01*
X010537Y036247D01*
X010509Y036191D01*
X010484Y036135D01*
X010463Y036076D01*
X010446Y036017D01*
X010432Y035957D01*
X010423Y035895D01*
X010417Y035834D01*
X010415Y035772D01*
X010707Y035481D02*
X010709Y035543D01*
X010715Y035604D01*
X010724Y035665D01*
X010738Y035726D01*
X010755Y035785D01*
X010776Y035843D01*
X010801Y035900D01*
X010829Y035955D01*
X010860Y036008D01*
X010895Y036059D01*
X010933Y036108D01*
X010974Y036155D01*
X011017Y036198D01*
X011064Y036239D01*
X011113Y036277D01*
X011164Y036312D01*
X011217Y036343D01*
X011272Y036371D01*
X011329Y036396D01*
X011387Y036417D01*
X011446Y036434D01*
X011507Y036448D01*
X011568Y036457D01*
X011629Y036463D01*
X011691Y036465D01*
X011982Y036174D02*
X011920Y036172D01*
X011859Y036166D01*
X011798Y036157D01*
X011737Y036143D01*
X011678Y036126D01*
X011620Y036105D01*
X011563Y036080D01*
X011508Y036052D01*
X011455Y036021D01*
X011404Y035986D01*
X011355Y035948D01*
X011308Y035907D01*
X011265Y035864D01*
X011224Y035817D01*
X011186Y035768D01*
X011151Y035717D01*
X011120Y035664D01*
X011092Y035609D01*
X011067Y035552D01*
X011046Y035494D01*
X011029Y035435D01*
X011015Y035374D01*
X011006Y035313D01*
X011000Y035252D01*
X010998Y035190D01*
X011289Y034898D02*
X011291Y034960D01*
X011297Y035021D01*
X011306Y035083D01*
X011320Y035143D01*
X011337Y035202D01*
X011358Y035261D01*
X011383Y035317D01*
X011411Y035373D01*
X011442Y035426D01*
X011477Y035477D01*
X011515Y035526D01*
X011556Y035572D01*
X011600Y035616D01*
X011646Y035657D01*
X011695Y035695D01*
X011746Y035730D01*
X011799Y035761D01*
X011855Y035789D01*
X011911Y035814D01*
X011970Y035835D01*
X012029Y035852D01*
X012089Y035866D01*
X012151Y035875D01*
X012212Y035881D01*
X012274Y035883D01*
X012565Y035591D02*
X012503Y035589D01*
X012442Y035583D01*
X012381Y035574D01*
X012320Y035560D01*
X012261Y035543D01*
X012203Y035522D01*
X012146Y035497D01*
X012091Y035469D01*
X012038Y035438D01*
X011987Y035403D01*
X011938Y035365D01*
X011891Y035324D01*
X011848Y035281D01*
X011807Y035234D01*
X011769Y035185D01*
X011734Y035134D01*
X011703Y035081D01*
X011675Y035026D01*
X011650Y034969D01*
X011629Y034911D01*
X011612Y034852D01*
X011598Y034791D01*
X011589Y034730D01*
X011583Y034669D01*
X011581Y034607D01*
X015541Y035299D02*
X015603Y035297D01*
X015664Y035291D01*
X015725Y035282D01*
X015786Y035268D01*
X015845Y035251D01*
X015903Y035230D01*
X015960Y035206D01*
X016015Y035178D01*
X016068Y035146D01*
X016120Y035112D01*
X016168Y035074D01*
X016215Y035033D01*
X016259Y034989D01*
X016300Y034943D01*
X016337Y034894D01*
X016372Y034843D01*
X016404Y034790D01*
X016432Y034735D01*
X016457Y034678D01*
X016478Y034620D01*
X016495Y034561D01*
X016508Y034500D01*
X016518Y034439D01*
X016524Y034378D01*
X016526Y034316D01*
X017108Y034898D02*
X017106Y034960D01*
X017100Y035021D01*
X017091Y035082D01*
X017077Y035143D01*
X017060Y035202D01*
X017039Y035260D01*
X017014Y035317D01*
X016986Y035372D01*
X016955Y035425D01*
X016920Y035477D01*
X016882Y035526D01*
X016841Y035572D01*
X016798Y035616D01*
X016751Y035657D01*
X016702Y035695D01*
X016651Y035729D01*
X016598Y035761D01*
X016543Y035789D01*
X016486Y035814D01*
X016428Y035835D01*
X016369Y035852D01*
X016308Y035865D01*
X016247Y035875D01*
X016186Y035881D01*
X016124Y035883D01*
X016707Y036465D02*
X016769Y036463D01*
X016830Y036457D01*
X016891Y036448D01*
X016952Y036434D01*
X017011Y036417D01*
X017069Y036396D01*
X017126Y036371D01*
X017181Y036343D01*
X017234Y036312D01*
X017285Y036277D01*
X017334Y036239D01*
X017381Y036198D01*
X017424Y036155D01*
X017465Y036108D01*
X017503Y036059D01*
X017538Y036008D01*
X017569Y035955D01*
X017597Y035900D01*
X017622Y035843D01*
X017643Y035785D01*
X017660Y035726D01*
X017674Y035665D01*
X017683Y035604D01*
X017689Y035543D01*
X017691Y035481D01*
X018274Y036064D02*
X018272Y036126D01*
X018266Y036187D01*
X018256Y036248D01*
X018243Y036309D01*
X018226Y036368D01*
X018205Y036426D01*
X018180Y036483D01*
X018152Y036538D01*
X018120Y036591D01*
X018085Y036642D01*
X018048Y036691D01*
X018007Y036737D01*
X017963Y036781D01*
X017916Y036822D01*
X017868Y036860D01*
X017816Y036894D01*
X017763Y036926D01*
X017708Y036954D01*
X017651Y036978D01*
X017593Y036999D01*
X017534Y037016D01*
X017473Y037030D01*
X017412Y037039D01*
X017351Y037045D01*
X017289Y037047D01*
X017872Y037631D02*
X017934Y037629D01*
X017995Y037623D01*
X018056Y037613D01*
X018117Y037600D01*
X018176Y037583D01*
X018234Y037562D01*
X018291Y037537D01*
X018346Y037509D01*
X018399Y037477D01*
X018450Y037443D01*
X018499Y037405D01*
X018546Y037364D01*
X018589Y037320D01*
X018630Y037274D01*
X018668Y037225D01*
X018703Y037173D01*
X018734Y037120D01*
X018762Y037065D01*
X018787Y037008D01*
X018808Y036950D01*
X018825Y036891D01*
X018839Y036830D01*
X018848Y036769D01*
X018854Y036708D01*
X018856Y036646D01*
X019439Y037229D02*
X019437Y037291D01*
X019431Y037352D01*
X019422Y037413D01*
X019408Y037474D01*
X019391Y037533D01*
X019370Y037591D01*
X019345Y037648D01*
X019317Y037703D01*
X019286Y037756D01*
X019251Y037807D01*
X019213Y037856D01*
X019172Y037903D01*
X019129Y037946D01*
X019082Y037987D01*
X019033Y038025D01*
X018982Y038060D01*
X018929Y038091D01*
X018874Y038119D01*
X018817Y038144D01*
X018759Y038165D01*
X018700Y038182D01*
X018639Y038196D01*
X018578Y038205D01*
X018517Y038211D01*
X018455Y038213D01*
X019037Y038795D02*
X019099Y038793D01*
X019160Y038787D01*
X019221Y038778D01*
X019282Y038764D01*
X019341Y038747D01*
X019399Y038726D01*
X019456Y038702D01*
X019511Y038674D01*
X019564Y038642D01*
X019616Y038608D01*
X019664Y038570D01*
X019711Y038529D01*
X019755Y038485D01*
X019796Y038439D01*
X019833Y038390D01*
X019868Y038339D01*
X019900Y038286D01*
X019928Y038231D01*
X019953Y038174D01*
X019974Y038116D01*
X019991Y038057D01*
X020004Y037996D01*
X020014Y037935D01*
X020020Y037874D01*
X020022Y037812D01*
X020604Y038394D02*
X020602Y038456D01*
X020596Y038517D01*
X020587Y038578D01*
X020573Y038639D01*
X020556Y038698D01*
X020535Y038756D01*
X020510Y038813D01*
X020482Y038868D01*
X020451Y038921D01*
X020416Y038973D01*
X020378Y039022D01*
X020337Y039068D01*
X020294Y039112D01*
X020247Y039153D01*
X020198Y039191D01*
X020147Y039225D01*
X020094Y039257D01*
X020039Y039285D01*
X019982Y039310D01*
X019924Y039331D01*
X019865Y039348D01*
X019804Y039361D01*
X019743Y039371D01*
X019682Y039377D01*
X019620Y039379D01*
X019911Y039669D02*
X019973Y039667D01*
X020034Y039661D01*
X020095Y039652D01*
X020156Y039638D01*
X020215Y039621D01*
X020273Y039600D01*
X020330Y039576D01*
X020385Y039548D01*
X020438Y039516D01*
X020490Y039482D01*
X020538Y039444D01*
X020585Y039403D01*
X020629Y039359D01*
X020670Y039313D01*
X020707Y039264D01*
X020742Y039213D01*
X020774Y039160D01*
X020802Y039105D01*
X020827Y039048D01*
X020848Y038990D01*
X020865Y038931D01*
X020878Y038870D01*
X020888Y038809D01*
X020894Y038748D01*
X020896Y038686D01*
X021478Y039269D02*
X021476Y039331D01*
X021470Y039392D01*
X021461Y039453D01*
X021447Y039514D01*
X021430Y039573D01*
X021409Y039631D01*
X021384Y039688D01*
X021356Y039743D01*
X021325Y039796D01*
X021290Y039847D01*
X021252Y039896D01*
X021211Y039943D01*
X021168Y039986D01*
X021121Y040027D01*
X021072Y040065D01*
X021021Y040100D01*
X020968Y040131D01*
X020913Y040159D01*
X020856Y040184D01*
X020798Y040205D01*
X020739Y040222D01*
X020678Y040236D01*
X020617Y040245D01*
X020556Y040251D01*
X020494Y040253D01*
X021077Y040835D02*
X021139Y040833D01*
X021200Y040827D01*
X021261Y040818D01*
X021322Y040804D01*
X021381Y040787D01*
X021439Y040766D01*
X021496Y040741D01*
X021551Y040713D01*
X021604Y040682D01*
X021655Y040647D01*
X021704Y040609D01*
X021751Y040568D01*
X021794Y040525D01*
X021835Y040478D01*
X021873Y040429D01*
X021908Y040378D01*
X021939Y040325D01*
X021967Y040270D01*
X021992Y040213D01*
X022013Y040155D01*
X022030Y040096D01*
X022044Y040035D01*
X022053Y039974D01*
X022059Y039913D01*
X022061Y039851D01*
X022644Y040434D02*
X022642Y040496D01*
X022636Y040557D01*
X022626Y040618D01*
X022613Y040679D01*
X022596Y040738D01*
X022575Y040796D01*
X022550Y040853D01*
X022522Y040908D01*
X022490Y040961D01*
X022455Y041012D01*
X022418Y041061D01*
X022377Y041107D01*
X022333Y041151D01*
X022286Y041192D01*
X022238Y041230D01*
X022186Y041264D01*
X022133Y041296D01*
X022078Y041324D01*
X022021Y041348D01*
X021963Y041369D01*
X021904Y041386D01*
X021843Y041400D01*
X021782Y041409D01*
X021721Y041415D01*
X021659Y041417D01*
X021951Y041709D02*
X022013Y041707D01*
X022074Y041701D01*
X022135Y041692D01*
X022196Y041678D01*
X022255Y041661D01*
X022313Y041640D01*
X022370Y041615D01*
X022425Y041587D01*
X022478Y041556D01*
X022529Y041521D01*
X022578Y041483D01*
X022625Y041442D01*
X022668Y041399D01*
X022709Y041352D01*
X022747Y041303D01*
X022782Y041252D01*
X022813Y041199D01*
X022841Y041144D01*
X022866Y041087D01*
X022887Y041029D01*
X022904Y040970D01*
X022918Y040909D01*
X022927Y040848D01*
X022933Y040787D01*
X022935Y040725D01*
X023518Y041308D02*
X023516Y041370D01*
X023510Y041431D01*
X023500Y041492D01*
X023487Y041553D01*
X023470Y041612D01*
X023449Y041670D01*
X023424Y041727D01*
X023396Y041782D01*
X023364Y041835D01*
X023329Y041886D01*
X023292Y041935D01*
X023251Y041981D01*
X023207Y042025D01*
X023160Y042066D01*
X023112Y042104D01*
X023060Y042138D01*
X023007Y042170D01*
X022952Y042198D01*
X022895Y042222D01*
X022837Y042243D01*
X022778Y042260D01*
X022717Y042274D01*
X022656Y042283D01*
X022595Y042289D01*
X022533Y042291D01*
X023116Y042875D02*
X023178Y042873D01*
X023239Y042867D01*
X023300Y042858D01*
X023361Y042844D01*
X023420Y042827D01*
X023478Y042806D01*
X023535Y042781D01*
X023590Y042753D01*
X023643Y042722D01*
X023694Y042687D01*
X023743Y042649D01*
X023790Y042608D01*
X023833Y042565D01*
X023874Y042518D01*
X023912Y042469D01*
X023947Y042418D01*
X023978Y042365D01*
X024006Y042310D01*
X024031Y042253D01*
X024052Y042195D01*
X024069Y042136D01*
X024083Y042075D01*
X024092Y042014D01*
X024098Y041953D01*
X024100Y041891D01*
X024683Y042473D02*
X024681Y042535D01*
X024675Y042596D01*
X024666Y042657D01*
X024652Y042718D01*
X024635Y042777D01*
X024614Y042835D01*
X024589Y042892D01*
X024561Y042947D01*
X024530Y043000D01*
X024495Y043051D01*
X024457Y043100D01*
X024416Y043147D01*
X024373Y043190D01*
X024326Y043231D01*
X024277Y043269D01*
X024226Y043304D01*
X024173Y043335D01*
X024118Y043363D01*
X024061Y043388D01*
X024003Y043409D01*
X023944Y043426D01*
X023883Y043440D01*
X023822Y043449D01*
X023761Y043455D01*
X023699Y043457D01*
X023990Y043749D02*
X024052Y043747D01*
X024113Y043741D01*
X024174Y043732D01*
X024235Y043718D01*
X024294Y043701D01*
X024352Y043680D01*
X024409Y043655D01*
X024464Y043627D01*
X024517Y043596D01*
X024568Y043561D01*
X024617Y043523D01*
X024664Y043482D01*
X024707Y043439D01*
X024748Y043392D01*
X024786Y043343D01*
X024821Y043292D01*
X024852Y043239D01*
X024880Y043184D01*
X024905Y043127D01*
X024926Y043069D01*
X024943Y043010D01*
X024957Y042949D01*
X024966Y042888D01*
X024972Y042827D01*
X024974Y042765D01*
X025557Y043347D02*
X025555Y043409D01*
X025549Y043470D01*
X025540Y043531D01*
X025526Y043592D01*
X025509Y043651D01*
X025488Y043709D01*
X025463Y043766D01*
X025435Y043821D01*
X025404Y043874D01*
X025369Y043925D01*
X025331Y043974D01*
X025290Y044021D01*
X025247Y044064D01*
X025200Y044105D01*
X025151Y044143D01*
X025100Y044178D01*
X025047Y044209D01*
X024992Y044237D01*
X024935Y044262D01*
X024877Y044283D01*
X024818Y044300D01*
X024757Y044314D01*
X024696Y044323D01*
X024635Y044329D01*
X024573Y044331D01*
X025155Y044913D02*
X025217Y044911D01*
X025278Y044905D01*
X025339Y044896D01*
X025400Y044882D01*
X025459Y044865D01*
X025517Y044844D01*
X025574Y044820D01*
X025629Y044792D01*
X025682Y044760D01*
X025734Y044726D01*
X025782Y044688D01*
X025829Y044647D01*
X025873Y044603D01*
X025914Y044557D01*
X025951Y044508D01*
X025986Y044457D01*
X026018Y044404D01*
X026046Y044349D01*
X026071Y044292D01*
X026092Y044234D01*
X026109Y044175D01*
X026122Y044114D01*
X026132Y044053D01*
X026138Y043992D01*
X026140Y043930D01*
X024392Y042182D02*
X024390Y042244D01*
X024384Y042305D01*
X024374Y042366D01*
X024361Y042427D01*
X024344Y042486D01*
X024323Y042544D01*
X024298Y042601D01*
X024270Y042656D01*
X024238Y042709D01*
X024203Y042760D01*
X024166Y042809D01*
X024125Y042855D01*
X024081Y042899D01*
X024034Y042940D01*
X023986Y042978D01*
X023934Y043012D01*
X023881Y043044D01*
X023826Y043072D01*
X023769Y043096D01*
X023711Y043117D01*
X023652Y043134D01*
X023591Y043148D01*
X023530Y043157D01*
X023469Y043163D01*
X023407Y043165D01*
X021368Y041127D02*
X021430Y041125D01*
X021491Y041119D01*
X021552Y041110D01*
X021613Y041096D01*
X021672Y041079D01*
X021730Y041058D01*
X021787Y041033D01*
X021842Y041005D01*
X021895Y040974D01*
X021946Y040939D01*
X021995Y040901D01*
X022042Y040860D01*
X022085Y040817D01*
X022126Y040770D01*
X022164Y040721D01*
X022199Y040670D01*
X022230Y040617D01*
X022258Y040562D01*
X022283Y040505D01*
X022304Y040447D01*
X022321Y040388D01*
X022335Y040327D01*
X022344Y040266D01*
X022350Y040205D01*
X022352Y040143D01*
X021770Y039560D02*
X021768Y039622D01*
X021762Y039683D01*
X021752Y039744D01*
X021739Y039805D01*
X021722Y039864D01*
X021701Y039922D01*
X021676Y039979D01*
X021648Y040034D01*
X021616Y040087D01*
X021581Y040138D01*
X021544Y040187D01*
X021503Y040233D01*
X021459Y040277D01*
X021412Y040318D01*
X021364Y040356D01*
X021312Y040390D01*
X021259Y040422D01*
X021204Y040450D01*
X021147Y040474D01*
X021089Y040495D01*
X021030Y040512D01*
X020969Y040526D01*
X020908Y040535D01*
X020847Y040541D01*
X020785Y040543D01*
X020203Y039961D02*
X020265Y039959D01*
X020326Y039953D01*
X020387Y039944D01*
X020448Y039930D01*
X020507Y039913D01*
X020565Y039892D01*
X020622Y039867D01*
X020677Y039839D01*
X020730Y039808D01*
X020781Y039773D01*
X020830Y039735D01*
X020877Y039694D01*
X020920Y039651D01*
X020961Y039604D01*
X020999Y039555D01*
X021034Y039504D01*
X021065Y039451D01*
X021093Y039396D01*
X021118Y039339D01*
X021139Y039281D01*
X021156Y039222D01*
X021170Y039161D01*
X021179Y039100D01*
X021185Y039039D01*
X021187Y038977D01*
X020313Y038103D02*
X020311Y038165D01*
X020305Y038226D01*
X020296Y038287D01*
X020282Y038348D01*
X020265Y038407D01*
X020244Y038465D01*
X020219Y038522D01*
X020191Y038577D01*
X020160Y038630D01*
X020125Y038681D01*
X020087Y038730D01*
X020046Y038777D01*
X020003Y038820D01*
X019956Y038861D01*
X019907Y038899D01*
X019856Y038934D01*
X019803Y038965D01*
X019748Y038993D01*
X019691Y039018D01*
X019633Y039039D01*
X019574Y039056D01*
X019513Y039070D01*
X019452Y039079D01*
X019391Y039085D01*
X019329Y039087D01*
X018746Y038505D02*
X018808Y038503D01*
X018869Y038497D01*
X018930Y038487D01*
X018991Y038474D01*
X019050Y038457D01*
X019108Y038436D01*
X019165Y038411D01*
X019220Y038383D01*
X019273Y038351D01*
X019324Y038317D01*
X019373Y038279D01*
X019420Y038238D01*
X019463Y038194D01*
X019504Y038148D01*
X019542Y038099D01*
X019577Y038047D01*
X019608Y037994D01*
X019636Y037939D01*
X019661Y037882D01*
X019682Y037824D01*
X019699Y037765D01*
X019713Y037704D01*
X019722Y037643D01*
X019728Y037582D01*
X019730Y037520D01*
X019148Y036938D02*
X019146Y037000D01*
X019140Y037061D01*
X019130Y037122D01*
X019117Y037183D01*
X019100Y037242D01*
X019079Y037300D01*
X019054Y037357D01*
X019026Y037412D01*
X018994Y037465D01*
X018959Y037516D01*
X018922Y037565D01*
X018881Y037611D01*
X018837Y037655D01*
X018790Y037696D01*
X018742Y037734D01*
X018690Y037768D01*
X018637Y037800D01*
X018582Y037828D01*
X018525Y037852D01*
X018467Y037873D01*
X018408Y037890D01*
X018347Y037904D01*
X018286Y037913D01*
X018225Y037919D01*
X018163Y037921D01*
X017581Y037339D02*
X017643Y037337D01*
X017704Y037331D01*
X017765Y037322D01*
X017826Y037308D01*
X017885Y037291D01*
X017943Y037270D01*
X018000Y037245D01*
X018055Y037217D01*
X018108Y037186D01*
X018159Y037151D01*
X018208Y037113D01*
X018255Y037072D01*
X018298Y037029D01*
X018339Y036982D01*
X018377Y036933D01*
X018412Y036882D01*
X018443Y036829D01*
X018471Y036774D01*
X018496Y036717D01*
X018517Y036659D01*
X018534Y036600D01*
X018548Y036539D01*
X018557Y036478D01*
X018563Y036417D01*
X018565Y036355D01*
X017982Y035772D02*
X017980Y035834D01*
X017974Y035895D01*
X017965Y035956D01*
X017951Y036017D01*
X017934Y036076D01*
X017913Y036134D01*
X017888Y036191D01*
X017860Y036246D01*
X017829Y036299D01*
X017794Y036351D01*
X017756Y036400D01*
X017715Y036446D01*
X017672Y036490D01*
X017625Y036531D01*
X017576Y036569D01*
X017525Y036603D01*
X017472Y036635D01*
X017417Y036663D01*
X017360Y036688D01*
X017302Y036709D01*
X017243Y036726D01*
X017182Y036739D01*
X017121Y036749D01*
X017060Y036755D01*
X016998Y036757D01*
X016415Y036173D02*
X016477Y036171D01*
X016538Y036165D01*
X016599Y036156D01*
X016660Y036142D01*
X016719Y036125D01*
X016777Y036104D01*
X016834Y036080D01*
X016889Y036052D01*
X016942Y036020D01*
X016994Y035986D01*
X017042Y035948D01*
X017089Y035907D01*
X017133Y035863D01*
X017174Y035817D01*
X017211Y035768D01*
X017246Y035717D01*
X017278Y035664D01*
X017306Y035609D01*
X017331Y035552D01*
X017352Y035494D01*
X017369Y035435D01*
X017382Y035374D01*
X017392Y035313D01*
X017398Y035252D01*
X017400Y035190D01*
X016817Y034607D02*
X016815Y034669D01*
X016809Y034730D01*
X016800Y034791D01*
X016786Y034852D01*
X016769Y034911D01*
X016748Y034969D01*
X016723Y035026D01*
X016695Y035081D01*
X016664Y035134D01*
X016629Y035185D01*
X016591Y035234D01*
X016550Y035281D01*
X016507Y035324D01*
X016460Y035365D01*
X016411Y035403D01*
X016360Y035438D01*
X016307Y035469D01*
X016252Y035497D01*
X016195Y035522D01*
X016137Y035543D01*
X016078Y035560D01*
X016017Y035574D01*
X015956Y035583D01*
X015895Y035589D01*
X015833Y035591D01*
M02*
